<svg xmlns="http://www.w3.org/2000/svg" xmlns:xlink="http://www.w3.org/1999/xlink" width="500" zoomAndPan="magnify" viewBox="0 0 375 374.999991" height="500" preserveAspectRatio="xMidYMid meet" version="1.0"><defs><clipPath id="fe35805c74"><path d="M 88 108.59375 L 134 108.59375 L 134 200 L 88 200 Z M 88 108.59375 " clip-rule="nonzero"/></clipPath></defs><path fill="#a87f59" d="M 11.359375 261.402344 C 145.070312 161.953125 261.390625 295.035156 375 234.84375 C 294.351562 319.984375 137.289062 183.828125 11.359375 261.402344 " fill-opacity="1" fill-rule="evenodd"/><g clip-path="url(#fe35805c74)"><path fill="#a87f59" d="M 94.585938 199.46875 C 90.535156 189.445312 88.304688 178.484375 88.304688 167.007812 C 88.304688 144.492188 96.886719 123.980469 110.953125 108.5625 C 125.019531 123.980469 133.601562 144.492188 133.601562 167.007812 C 133.601562 178.488281 131.367188 189.445312 127.316406 199.472656 C 129.566406 192.292969 130.78125 184.65625 130.78125 176.738281 C 130.78125 157.023438 123.269531 139.066406 110.953125 125.570312 C 98.636719 139.066406 91.125 157.023438 91.125 176.738281 C 91.125 184.65625 92.335938 192.292969 94.585938 199.46875 " fill-opacity="1" fill-rule="evenodd"/></g><path fill="#a87f59" d="M 86.757812 210.339844 C 78.234375 203.679688 70.824219 195.304688 65.082031 185.367188 C 53.824219 165.867188 51 143.816406 55.476562 123.429688 C 75.367188 129.746094 93.054688 143.21875 104.3125 162.71875 C 110.050781 172.660156 113.597656 183.265625 115.101562 193.972656 C 113.460938 186.632812 110.695312 179.414062 106.734375 172.554688 C 96.878906 155.480469 81.394531 143.6875 63.976562 138.15625 C 60.0625 156.003906 62.53125 175.3125 72.390625 192.382812 C 76.351562 199.242188 81.21875 205.246094 86.757812 210.339844 " fill-opacity="1" fill-rule="evenodd"/><path fill="#a87f59" d="M 80.566406 222.84375 C 71.511719 221.039062 62.59375 217.746094 54.152344 212.875 C 34.652344 201.617188 21.183594 183.929688 14.863281 164.039062 C 35.25 159.566406 57.300781 162.390625 76.800781 173.648438 C 86.742188 179.386719 95.117188 186.800781 101.773438 195.324219 C 96.683594 189.78125 90.679688 184.914062 83.820312 180.953125 C 66.746094 171.097656 47.4375 168.625 29.589844 172.542969 C 35.121094 189.957031 46.917969 205.441406 63.992188 215.300781 C 69.59375 218.535156 75.4375 220.972656 81.394531 222.652344 C 81.117188 222.71875 80.839844 222.777344 80.566406 222.84375 " fill-opacity="1" fill-rule="evenodd"/><path fill="#a87f59" d="M 37.199219 239.542969 C 23.117188 235.996094 10.398438 229.003906 0 219.515625 C 15.417969 205.449219 35.925781 196.871094 58.441406 196.871094 C 69.921875 196.871094 80.878906 199.101562 90.90625 203.152344 C 83.730469 200.902344 76.09375 199.6875 68.171875 199.6875 C 48.460938 199.6875 30.503906 207.199219 17.003906 219.515625 C 24.914062 226.734375 34.359375 232.300781 44.789062 235.675781 C 42.265625 236.894531 39.734375 238.171875 37.199219 239.542969 " fill-opacity="1" fill-rule="evenodd"/><path fill="#a87f59" d="M 106.800781 193.972656 C 108.308594 183.265625 111.851562 172.660156 117.59375 162.71875 C 128.851562 143.21875 146.539062 129.746094 166.429688 123.429688 C 170.902344 143.816406 168.078125 165.867188 156.820312 185.367188 C 151.082031 195.308594 143.667969 203.679688 135.148438 210.339844 C 140.683594 205.246094 145.554688 199.242188 149.515625 192.382812 C 159.371094 175.3125 161.84375 156.003906 157.925781 138.15625 C 140.511719 143.6875 125.027344 155.480469 115.171875 172.554688 C 111.210938 179.410156 108.441406 186.632812 106.800781 193.972656 " fill-opacity="1" fill-rule="evenodd"/><path fill="#a87f59" d="M 120.128906 195.320312 C 126.789062 186.800781 135.160156 179.386719 145.101562 173.648438 C 164.601562 162.390625 186.65625 159.566406 207.039062 164.039062 C 200.722656 183.929688 187.25 201.617188 167.75 212.875 C 163.011719 215.609375 158.121094 217.851562 153.136719 219.605469 C 152.109375 219.488281 151.082031 219.367188 150.050781 219.257812 C 152.714844 218.101562 155.339844 216.785156 157.914062 215.300781 C 174.984375 205.441406 186.78125 189.957031 192.3125 172.542969 C 174.464844 168.625 155.15625 171.097656 138.085938 180.953125 C 131.226562 184.914062 125.222656 189.78125 120.128906 195.320312 " fill-opacity="1" fill-rule="evenodd"/><path fill="#a87f59" d="M 130.996094 203.152344 C 141.027344 199.101562 151.984375 196.867188 163.464844 196.867188 C 185.976562 196.867188 206.488281 205.449219 221.90625 219.515625 C 217.691406 223.359375 213.09375 226.796875 208.183594 229.757812 C 203.929688 228.789062 199.664062 227.832031 195.386719 226.910156 C 198.753906 224.695312 201.933594 222.21875 204.902344 219.515625 C 191.402344 207.199219 173.445312 199.6875 153.734375 199.6875 C 145.8125 199.6875 138.175781 200.902344 130.996094 203.152344 " fill-opacity="1" fill-rule="evenodd"/><path fill="#a87f59" d="M 110.953125 198.75 C 121.898438 198.75 130.867188 207.21875 131.660156 217.964844 C 130.453125 217.925781 129.242188 217.90625 128.03125 217.882812 C 127.207031 209.175781 119.875 202.363281 110.953125 202.363281 C 101.480469 202.363281 93.796875 210.042969 93.796875 219.515625 C 93.796875 219.75 93.804688 219.980469 93.816406 220.207031 C 92.621094 220.402344 91.425781 220.585938 90.230469 220.804688 C 90.203125 220.378906 90.1875 219.949219 90.1875 219.515625 C 90.1875 208.046875 99.484375 198.75 110.953125 198.75 " fill-opacity="1" fill-rule="evenodd"/><path fill="#a87f59" d="M 26.800781 259.9375 C 101.898438 222.773438 179.257812 263.039062 257.632812 264.890625 C 179.355469 269.46875 101.25 237.347656 26.800781 259.9375 " fill-opacity="1" fill-rule="evenodd"/></svg>