<svg xmlns="http://www.w3.org/2000/svg" xmlns:xlink="http://www.w3.org/1999/xlink" width="191" zoomAndPan="magnify" viewBox="0 0 143.25 59.249999" height="79" preserveAspectRatio="xMidYMid meet" version="1.0"><defs><g/><clipPath id="f9c5e5b8da"><path d="M 57 25 L 137.332031 25 L 137.332031 35 L 57 35 Z M 57 25 " clip-rule="nonzero"/></clipPath><clipPath id="79070fb55d"><path d="M 54.847656 19 L 75 19 L 75 29 L 54.847656 29 Z M 54.847656 19 " clip-rule="nonzero"/></clipPath></defs><g clip-path="url(#f9c5e5b8da)"><path fill="#a87f59" d="M 57.351562 33.699219 C 86.84375 11.765625 112.5 41.117188 137.558594 27.84375 C 119.769531 46.621094 85.128906 16.589844 57.351562 33.699219 " fill-opacity="1" fill-rule="evenodd"/></g><path fill="#a87f59" d="M 75.710938 20.039062 C 74.816406 17.828125 74.324219 15.410156 74.324219 12.878906 C 74.324219 7.914062 76.214844 3.390625 79.320312 -0.0117188 C 82.421875 3.390625 84.316406 7.914062 84.316406 12.878906 C 84.316406 15.410156 83.824219 17.828125 82.929688 20.039062 C 83.425781 18.457031 83.691406 16.773438 83.691406 15.027344 C 83.691406 10.675781 82.035156 6.71875 79.320312 3.738281 C 76.601562 6.71875 74.945312 10.675781 74.945312 15.027344 C 74.945312 16.773438 75.214844 18.457031 75.710938 20.039062 " fill-opacity="1" fill-rule="evenodd"/><path fill="#a87f59" d="M 73.984375 22.4375 C 72.101562 20.96875 70.46875 19.121094 69.203125 16.929688 C 66.71875 12.628906 66.097656 7.765625 67.082031 3.265625 C 71.46875 4.660156 75.371094 7.632812 77.855469 11.933594 C 79.121094 14.125 79.902344 16.464844 80.234375 18.828125 C 79.871094 17.207031 79.261719 15.617188 78.390625 14.101562 C 76.214844 10.335938 72.800781 7.734375 68.957031 6.515625 C 68.09375 10.453125 68.640625 14.710938 70.8125 18.476562 C 71.6875 19.988281 72.761719 21.3125 73.984375 22.4375 " fill-opacity="1" fill-rule="evenodd"/><path fill="#a87f59" d="M 72.617188 25.195312 C 70.621094 24.796875 68.652344 24.070312 66.792969 22.996094 C 62.488281 20.511719 59.519531 16.613281 58.125 12.226562 C 62.621094 11.238281 67.484375 11.859375 71.785156 14.34375 C 73.980469 15.609375 75.828125 17.246094 77.296875 19.125 C 76.171875 17.902344 74.847656 16.828125 73.335938 15.957031 C 69.570312 13.78125 65.308594 13.238281 61.375 14.101562 C 62.59375 17.941406 65.195312 21.355469 68.960938 23.53125 C 70.195312 24.246094 71.484375 24.78125 72.800781 25.152344 C 72.738281 25.167969 72.679688 25.179688 72.617188 25.195312 " fill-opacity="1" fill-rule="evenodd"/><g clip-path="url(#79070fb55d)"><path fill="#a87f59" d="M 63.050781 28.878906 C 59.945312 28.097656 57.140625 26.554688 54.847656 24.460938 C 58.246094 21.359375 62.769531 19.464844 67.738281 19.464844 C 70.269531 19.464844 72.6875 19.957031 74.898438 20.851562 C 73.316406 20.355469 71.628906 20.089844 69.882812 20.089844 C 65.535156 20.089844 61.574219 21.746094 58.597656 24.460938 C 60.34375 26.054688 62.425781 27.28125 64.726562 28.027344 C 64.167969 28.292969 63.609375 28.578125 63.050781 28.878906 " fill-opacity="1" fill-rule="evenodd"/></g><path fill="#a87f59" d="M 78.402344 18.828125 C 78.734375 16.464844 79.519531 14.125 80.785156 11.933594 C 83.265625 7.632812 87.167969 4.660156 91.554688 3.265625 C 92.542969 7.765625 91.917969 12.628906 89.4375 16.929688 C 88.171875 19.121094 86.535156 20.96875 84.65625 22.4375 C 85.878906 21.3125 86.953125 19.988281 87.824219 18.476562 C 90 14.710938 90.542969 10.453125 89.679688 6.515625 C 85.839844 7.734375 82.421875 10.335938 80.25 14.101562 C 79.375 15.617188 78.765625 17.207031 78.402344 18.828125 " fill-opacity="1" fill-rule="evenodd"/><path fill="#a87f59" d="M 81.34375 19.125 C 82.8125 17.246094 84.660156 15.609375 86.851562 14.34375 C 91.152344 11.859375 96.015625 11.238281 100.511719 12.226562 C 99.121094 16.613281 96.148438 20.511719 91.847656 22.996094 C 90.800781 23.601562 89.722656 24.09375 88.625 24.480469 C 88.398438 24.453125 88.171875 24.429688 87.945312 24.402344 C 88.53125 24.148438 89.109375 23.859375 89.679688 23.53125 C 93.441406 21.355469 96.046875 17.941406 97.265625 14.101562 C 93.328125 13.234375 89.070312 13.78125 85.304688 15.957031 C 83.792969 16.828125 82.464844 17.902344 81.34375 19.125 " fill-opacity="1" fill-rule="evenodd"/><path fill="#a87f59" d="M 83.742188 20.851562 C 85.953125 19.957031 88.371094 19.464844 90.902344 19.464844 C 95.867188 19.464844 100.390625 21.359375 103.792969 24.460938 C 102.863281 25.308594 101.847656 26.066406 100.765625 26.71875 C 99.828125 26.507812 98.886719 26.296875 97.941406 26.09375 C 98.6875 25.605469 99.386719 25.058594 100.042969 24.460938 C 97.0625 21.746094 93.105469 20.085938 88.753906 20.085938 C 87.007812 20.085938 85.324219 20.355469 83.742188 20.851562 " fill-opacity="1" fill-rule="evenodd"/><path fill="#a87f59" d="M 79.320312 19.882812 C 81.734375 19.882812 83.710938 21.75 83.886719 24.117188 C 83.621094 24.109375 83.351562 24.105469 83.085938 24.101562 C 82.90625 22.179688 81.289062 20.675781 79.320312 20.675781 C 77.230469 20.675781 75.535156 22.371094 75.535156 24.460938 C 75.535156 24.511719 75.535156 24.5625 75.539062 24.613281 C 75.277344 24.65625 75.011719 24.699219 74.75 24.746094 C 74.742188 24.652344 74.738281 24.558594 74.738281 24.460938 C 74.738281 21.933594 76.789062 19.882812 79.320312 19.882812 " fill-opacity="1" fill-rule="evenodd"/><path fill="#a87f59" d="M 60.757812 33.375 C 77.324219 25.179688 94.386719 34.0625 111.671875 34.46875 C 94.40625 35.480469 77.179688 28.394531 60.757812 33.375 " fill-opacity="1" fill-rule="evenodd"/><g fill="#a87f59" fill-opacity="1"><g transform="translate(4.27425, 49.239113)"><g><path d="M 5.8125 -11.390625 C 6.351562 -11.390625 6.84375 -11.34375 7.28125 -11.25 C 7.71875 -11.15625 8.144531 -11.007812 8.5625 -10.8125 C 8.976562 -10.625 9.410156 -10.378906 9.859375 -10.078125 C 10.023438 -9.941406 10.210938 -9.820312 10.421875 -9.71875 C 10.640625 -9.625 10.828125 -9.582031 10.984375 -9.59375 L 10.984375 -7 L 10.796875 -7 C 10.617188 -7.644531 10.328125 -8.238281 9.921875 -8.78125 C 9.515625 -9.320312 9.019531 -9.765625 8.4375 -10.109375 C 7.851562 -10.460938 7.191406 -10.660156 6.453125 -10.703125 C 5.859375 -10.734375 5.28125 -10.628906 4.71875 -10.390625 C 4.15625 -10.160156 3.648438 -9.816406 3.203125 -9.359375 C 2.765625 -8.898438 2.414062 -8.351562 2.15625 -7.71875 C 1.90625 -7.082031 1.78125 -6.378906 1.78125 -5.609375 C 1.78125 -4.804688 1.921875 -4.078125 2.203125 -3.421875 C 2.484375 -2.765625 2.863281 -2.207031 3.34375 -1.75 C 3.832031 -1.300781 4.375 -0.96875 4.96875 -0.75 C 5.445312 -0.582031 5.945312 -0.519531 6.46875 -0.5625 C 6.988281 -0.613281 7.476562 -0.757812 7.9375 -1 C 8.40625 -1.238281 8.796875 -1.5625 9.109375 -1.96875 L 9.109375 -3.421875 C 9.109375 -3.816406 9.085938 -4.179688 9.046875 -4.515625 C 9.003906 -4.847656 8.925781 -5.15625 8.8125 -5.4375 L 11.140625 -5.4375 C 11.035156 -5.15625 10.960938 -4.847656 10.921875 -4.515625 C 10.890625 -4.179688 10.875 -3.816406 10.875 -3.421875 L 10.875 -0.15625 L 10.75 -0.15625 C 10.644531 -0.613281 10.425781 -0.894531 10.09375 -1 C 9.769531 -1.101562 9.425781 -1.03125 9.0625 -0.78125 C 8.09375 -0.125 7.007812 0.203125 5.8125 0.203125 C 5.007812 0.203125 4.253906 0.0546875 3.546875 -0.234375 C 2.835938 -0.535156 2.21875 -0.953125 1.6875 -1.484375 C 1.15625 -2.015625 0.738281 -2.628906 0.4375 -3.328125 C 0.144531 -4.035156 0 -4.796875 0 -5.609375 C 0 -6.410156 0.144531 -7.160156 0.4375 -7.859375 C 0.738281 -8.554688 1.15625 -9.171875 1.6875 -9.703125 C 2.21875 -10.234375 2.835938 -10.644531 3.546875 -10.9375 C 4.253906 -11.238281 5.007812 -11.390625 5.8125 -11.390625 Z M 5.8125 -11.390625 "/></g></g></g><g fill="#a87f59" fill-opacity="1"><g transform="translate(16.356917, 49.239113)"><g><path d="M 6.09375 -11.171875 L 9.421875 -1.96875 C 9.535156 -1.632812 9.679688 -1.289062 9.859375 -0.9375 C 10.035156 -0.59375 10.203125 -0.28125 10.359375 0 L 8.09375 0 C 8.09375 -0.257812 8.039062 -0.566406 7.9375 -0.921875 C 7.832031 -1.273438 7.722656 -1.613281 7.609375 -1.9375 C 7.472656 -2.3125 7.320312 -2.644531 7.15625 -2.9375 C 6.988281 -3.226562 6.75 -3.46875 6.4375 -3.65625 C 6.09375 -3.875 5.703125 -4.019531 5.265625 -4.09375 C 4.828125 -4.164062 4.390625 -4.171875 3.953125 -4.109375 C 3.515625 -4.046875 3.117188 -3.910156 2.765625 -3.703125 C 2.421875 -3.503906 2.164062 -3.253906 2 -2.953125 C 1.832031 -2.660156 1.675781 -2.332031 1.53125 -1.96875 C 1.34375 -1.4375 1.484375 -0.78125 1.953125 0 L 0 0 C 0.164062 -0.28125 0.332031 -0.59375 0.5 -0.9375 C 0.664062 -1.289062 0.804688 -1.632812 0.921875 -1.96875 L 4.25 -11.171875 Z M 6.828125 -4.09375 L 4.5625 -10.3125 L 2.3125 -4.09375 C 2.75 -4.375 3.234375 -4.5625 3.765625 -4.65625 C 4.296875 -4.75 4.828125 -4.75 5.359375 -4.65625 C 5.898438 -4.5625 6.390625 -4.375 6.828125 -4.09375 Z M 6.828125 -4.09375 "/></g></g></g><g fill="#a87f59" fill-opacity="1"><g transform="translate(27.649948, 49.239113)"><g><path d="M 7.375 -11.171875 L 9.34375 -11.171875 C 9.25 -10.898438 9.179688 -10.597656 9.140625 -10.265625 C 9.097656 -9.929688 9.078125 -9.578125 9.078125 -9.203125 L 9.078125 0 L 8.296875 0 L 0.84375 -10.03125 L 0.84375 -2.671875 C 0.84375 -2.347656 0.875 -2.007812 0.9375 -1.65625 C 1 -1.3125 1.109375 -0.992188 1.265625 -0.703125 C 1.429688 -0.410156 1.664062 -0.175781 1.96875 0 L 0 0 C 0.101562 -0.289062 0.171875 -0.597656 0.203125 -0.921875 C 0.242188 -1.253906 0.265625 -1.609375 0.265625 -1.984375 L 0.265625 -10.828125 L 0 -11.171875 C 0.351562 -11.171875 0.707031 -11.171875 1.0625 -11.171875 C 1.425781 -11.171875 1.785156 -11.171875 2.140625 -11.171875 L 8.5 -2.625 L 8.5 -8.515625 C 8.5 -8.828125 8.46875 -9.15625 8.40625 -9.5 C 8.34375 -9.851562 8.234375 -10.175781 8.078125 -10.46875 C 7.921875 -10.769531 7.6875 -11.003906 7.375 -11.171875 Z M 7.375 -11.171875 "/></g></g></g><g fill="#a87f59" fill-opacity="1"><g transform="translate(37.944766, 49.239113)"><g><path d="M 7.765625 0 L 0 0 C 0.101562 -0.289062 0.171875 -0.597656 0.203125 -0.921875 C 0.242188 -1.253906 0.265625 -1.609375 0.265625 -1.984375 C 0.265625 -2.234375 0.265625 -2.597656 0.265625 -3.078125 C 0.265625 -3.554688 0.265625 -4.09375 0.265625 -4.6875 C 0.265625 -5.289062 0.265625 -5.890625 0.265625 -6.484375 C 0.265625 -7.078125 0.265625 -7.613281 0.265625 -8.09375 C 0.265625 -8.582031 0.265625 -8.953125 0.265625 -9.203125 C 0.265625 -9.578125 0.242188 -9.929688 0.203125 -10.265625 C 0.171875 -10.597656 0.101562 -10.898438 0 -11.171875 L 7.328125 -11.171875 L 7.4375 -9.484375 L 7.3125 -9.484375 C 7.28125 -9.585938 7.191406 -9.726562 7.046875 -9.90625 C 6.910156 -10.082031 6.703125 -10.238281 6.421875 -10.375 C 6.148438 -10.519531 5.789062 -10.59375 5.34375 -10.59375 L 1.984375 -10.59375 L 1.984375 -5.40625 L 3.625 -5.40625 C 4.070312 -5.40625 4.429688 -5.476562 4.703125 -5.625 C 4.972656 -5.769531 5.175781 -5.929688 5.3125 -6.109375 C 5.457031 -6.285156 5.550781 -6.425781 5.59375 -6.53125 L 5.71875 -6.53125 C 5.71875 -6.0625 5.71875 -5.585938 5.71875 -5.109375 C 5.71875 -4.640625 5.71875 -4.175781 5.71875 -3.71875 L 5.59375 -3.71875 C 5.550781 -3.820312 5.457031 -3.957031 5.3125 -4.125 C 5.175781 -4.300781 4.972656 -4.460938 4.703125 -4.609375 C 4.429688 -4.753906 4.070312 -4.828125 3.625 -4.828125 L 1.984375 -4.828125 L 1.984375 -0.578125 L 5.765625 -0.578125 C 6.210938 -0.578125 6.570312 -0.648438 6.84375 -0.796875 C 7.125 -0.941406 7.332031 -1.101562 7.46875 -1.28125 C 7.601562 -1.457031 7.691406 -1.597656 7.734375 -1.703125 L 7.875 -1.703125 Z M 7.765625 0 "/></g></g></g><g fill="#a87f59" fill-opacity="1"><g transform="translate(46.764619, 49.239113)"><g><path d="M 7.890625 -8.125 C 7.867188 -8.738281 7.707031 -9.238281 7.40625 -9.625 C 7.101562 -10.019531 6.707031 -10.3125 6.21875 -10.5 C 5.726562 -10.695312 5.179688 -10.796875 4.578125 -10.796875 C 4.335938 -10.804688 4.066406 -10.769531 3.765625 -10.6875 C 3.472656 -10.613281 3.195312 -10.492188 2.9375 -10.328125 C 2.675781 -10.160156 2.484375 -9.929688 2.359375 -9.640625 C 2.222656 -9.304688 2.210938 -8.945312 2.328125 -8.5625 C 2.441406 -8.175781 2.71875 -7.882812 3.15625 -7.6875 C 3.582031 -7.507812 4.050781 -7.335938 4.5625 -7.171875 C 5.082031 -7.015625 5.597656 -6.835938 6.109375 -6.640625 C 6.628906 -6.453125 7.097656 -6.21875 7.515625 -5.9375 C 7.992188 -5.601562 8.347656 -5.210938 8.578125 -4.765625 C 8.804688 -4.328125 8.914062 -3.867188 8.90625 -3.390625 C 8.90625 -2.910156 8.789062 -2.441406 8.5625 -1.984375 C 8.34375 -1.535156 8.007812 -1.140625 7.5625 -0.796875 C 7.113281 -0.453125 6.609375 -0.195312 6.046875 -0.03125 C 5.492188 0.125 4.9375 0.203125 4.375 0.203125 C 3.988281 0.203125 3.5625 0.144531 3.09375 0.03125 C 2.625 -0.0703125 2.164062 -0.226562 1.71875 -0.4375 C 1.269531 -0.644531 0.875 -0.890625 0.53125 -1.171875 C 0.476562 -1.222656 0.398438 -1.273438 0.296875 -1.328125 C 0.203125 -1.390625 0.101562 -1.40625 0 -1.375 L 0.296875 -4.890625 L 0.4375 -4.890625 C 0.4375 -4.328125 0.46875 -3.828125 0.53125 -3.390625 C 0.601562 -2.953125 0.753906 -2.546875 0.984375 -2.171875 C 1.210938 -1.796875 1.570312 -1.441406 2.0625 -1.109375 C 2.414062 -0.859375 2.789062 -0.675781 3.1875 -0.5625 C 3.582031 -0.457031 4 -0.40625 4.4375 -0.40625 C 5 -0.40625 5.476562 -0.519531 5.875 -0.75 C 6.28125 -0.976562 6.59375 -1.28125 6.8125 -1.65625 C 7.03125 -2.039062 7.140625 -2.453125 7.140625 -2.890625 C 7.140625 -3.296875 7.039062 -3.640625 6.84375 -3.921875 C 6.644531 -4.203125 6.390625 -4.441406 6.078125 -4.640625 C 5.773438 -4.835938 5.457031 -5 5.125 -5.125 C 4.582031 -5.34375 4.023438 -5.53125 3.453125 -5.6875 C 2.878906 -5.851562 2.335938 -6.070312 1.828125 -6.34375 C 1.441406 -6.5625 1.132812 -6.84375 0.90625 -7.1875 C 0.675781 -7.539062 0.535156 -7.914062 0.484375 -8.3125 C 0.429688 -8.707031 0.472656 -9.097656 0.609375 -9.484375 C 0.753906 -9.867188 1.007812 -10.210938 1.375 -10.515625 C 1.75 -10.828125 2.195312 -11.050781 2.71875 -11.1875 C 3.238281 -11.320312 3.753906 -11.390625 4.265625 -11.390625 C 5.566406 -11.390625 6.65625 -11.070312 7.53125 -10.4375 C 7.613281 -10.375 7.695312 -10.316406 7.78125 -10.265625 C 7.863281 -10.222656 7.941406 -10.222656 8.015625 -10.265625 L 8.015625 -8.125 Z M 7.890625 -8.125 "/></g></g></g><g fill="#a87f59" fill-opacity="1"><g transform="translate(56.62738, 49.239113)"><g><path d="M 1.984375 -1.984375 C 1.984375 -1.609375 2.003906 -1.253906 2.046875 -0.921875 C 2.085938 -0.597656 2.15625 -0.289062 2.25 0 L 0 0 C 0.101562 -0.289062 0.171875 -0.597656 0.203125 -0.921875 C 0.242188 -1.253906 0.265625 -1.609375 0.265625 -1.984375 C 0.265625 -2.234375 0.265625 -2.597656 0.265625 -3.078125 C 0.265625 -3.554688 0.265625 -4.09375 0.265625 -4.6875 C 0.265625 -5.289062 0.265625 -5.890625 0.265625 -6.484375 C 0.265625 -7.078125 0.265625 -7.613281 0.265625 -8.09375 C 0.265625 -8.582031 0.265625 -8.953125 0.265625 -9.203125 C 0.265625 -9.578125 0.242188 -9.929688 0.203125 -10.265625 C 0.171875 -10.597656 0.101562 -10.898438 0 -11.171875 L 2.25 -11.171875 C 2.15625 -10.898438 2.085938 -10.597656 2.046875 -10.265625 C 2.003906 -9.929688 1.984375 -9.578125 1.984375 -9.203125 L 1.984375 -5.40625 L 6.96875 -5.40625 L 6.96875 -9.203125 C 6.96875 -9.578125 6.945312 -9.929688 6.90625 -10.265625 C 6.875 -10.597656 6.800781 -10.898438 6.6875 -11.171875 L 8.9375 -11.171875 C 8.84375 -10.898438 8.773438 -10.597656 8.734375 -10.265625 C 8.691406 -9.929688 8.671875 -9.578125 8.671875 -9.203125 C 8.671875 -8.953125 8.671875 -8.582031 8.671875 -8.09375 C 8.671875 -7.613281 8.671875 -7.078125 8.671875 -6.484375 C 8.671875 -5.890625 8.671875 -5.289062 8.671875 -4.6875 C 8.671875 -4.09375 8.671875 -3.554688 8.671875 -3.078125 C 8.671875 -2.597656 8.671875 -2.234375 8.671875 -1.984375 C 8.671875 -1.609375 8.691406 -1.253906 8.734375 -0.921875 C 8.773438 -0.597656 8.84375 -0.289062 8.9375 0 L 6.6875 0 C 6.800781 -0.289062 6.875 -0.597656 6.90625 -0.921875 C 6.945312 -1.253906 6.96875 -1.609375 6.96875 -1.984375 L 6.96875 -4.828125 L 1.984375 -4.828125 Z M 1.984375 -1.984375 "/></g></g></g><g fill="#a87f59" fill-opacity="1"><g transform="translate(66.505034, 49.239113)"><g/></g></g><g fill="#a87f59" fill-opacity="1"><g transform="translate(71.346932, 49.239113)"><g><path d="M 4.40625 -11.171875 C 5.25 -11.171875 5.9375 -11.0625 6.46875 -10.84375 C 7.007812 -10.632812 7.40625 -10.351562 7.65625 -10 C 7.914062 -9.644531 8.046875 -9.25 8.046875 -8.8125 C 8.046875 -8.300781 7.9375 -7.863281 7.71875 -7.5 C 7.5 -7.144531 7.207031 -6.835938 6.84375 -6.578125 C 6.488281 -6.316406 6.09375 -6.082031 5.65625 -5.875 C 5.226562 -5.664062 4.796875 -5.453125 4.359375 -5.234375 C 3.929688 -5.023438 3.535156 -4.789062 3.171875 -4.53125 C 2.816406 -4.269531 2.53125 -3.957031 2.3125 -3.59375 C 2.09375 -3.238281 1.984375 -2.804688 1.984375 -2.296875 L 1.984375 -1.984375 C 1.984375 -1.609375 2.003906 -1.253906 2.046875 -0.921875 C 2.085938 -0.597656 2.15625 -0.289062 2.25 0 C 1.925781 0 1.550781 0 1.125 0 C 0.695312 0 0.320312 0 0 0 C 0.101562 -0.289062 0.171875 -0.597656 0.203125 -0.921875 C 0.242188 -1.253906 0.265625 -1.609375 0.265625 -1.984375 C 0.265625 -2.234375 0.265625 -2.597656 0.265625 -3.078125 C 0.265625 -3.554688 0.265625 -4.09375 0.265625 -4.6875 C 0.265625 -5.289062 0.265625 -5.890625 0.265625 -6.484375 C 0.265625 -7.078125 0.265625 -7.613281 0.265625 -8.09375 C 0.265625 -8.582031 0.265625 -8.953125 0.265625 -9.203125 C 0.265625 -9.578125 0.242188 -9.929688 0.203125 -10.265625 C 0.171875 -10.597656 0.101562 -10.898438 0 -11.171875 Z M 1.984375 -4.078125 C 2.234375 -4.503906 2.539062 -4.875 2.90625 -5.1875 C 3.28125 -5.5 3.671875 -5.78125 4.078125 -6.03125 C 4.484375 -6.28125 4.851562 -6.535156 5.1875 -6.796875 C 5.53125 -7.066406 5.804688 -7.367188 6.015625 -7.703125 C 6.234375 -8.035156 6.332031 -8.429688 6.3125 -8.890625 C 6.3125 -9.335938 6.144531 -9.691406 5.8125 -9.953125 C 5.488281 -10.210938 5.066406 -10.394531 4.546875 -10.5 C 4.023438 -10.601562 3.46875 -10.65625 2.875 -10.65625 L 1.984375 -10.65625 Z M 1.984375 -4.078125 "/></g></g></g><g fill="#a87f59" fill-opacity="1"><g transform="translate(80.330665, 49.239113)"><g><path d="M 6.09375 -11.171875 L 9.421875 -1.96875 C 9.535156 -1.632812 9.679688 -1.289062 9.859375 -0.9375 C 10.035156 -0.59375 10.203125 -0.28125 10.359375 0 L 8.09375 0 C 8.09375 -0.257812 8.039062 -0.566406 7.9375 -0.921875 C 7.832031 -1.273438 7.722656 -1.613281 7.609375 -1.9375 C 7.472656 -2.3125 7.320312 -2.644531 7.15625 -2.9375 C 6.988281 -3.226562 6.75 -3.46875 6.4375 -3.65625 C 6.09375 -3.875 5.703125 -4.019531 5.265625 -4.09375 C 4.828125 -4.164062 4.390625 -4.171875 3.953125 -4.109375 C 3.515625 -4.046875 3.117188 -3.910156 2.765625 -3.703125 C 2.421875 -3.503906 2.164062 -3.253906 2 -2.953125 C 1.832031 -2.660156 1.675781 -2.332031 1.53125 -1.96875 C 1.34375 -1.4375 1.484375 -0.78125 1.953125 0 L 0 0 C 0.164062 -0.28125 0.332031 -0.59375 0.5 -0.9375 C 0.664062 -1.289062 0.804688 -1.632812 0.921875 -1.96875 L 4.25 -11.171875 Z M 6.828125 -4.09375 L 4.5625 -10.3125 L 2.3125 -4.09375 C 2.75 -4.375 3.234375 -4.5625 3.765625 -4.65625 C 4.296875 -4.75 4.828125 -4.75 5.359375 -4.65625 C 5.898438 -4.5625 6.390625 -4.375 6.828125 -4.09375 Z M 6.828125 -4.09375 "/></g></g></g><g fill="#a87f59" fill-opacity="1"><g transform="translate(91.623698, 49.239113)"><g><path d="M 1.984375 -9.203125 L 1.984375 -0.578125 L 5.40625 -0.578125 C 5.851562 -0.578125 6.210938 -0.648438 6.484375 -0.796875 C 6.753906 -0.941406 6.957031 -1.101562 7.09375 -1.28125 C 7.226562 -1.457031 7.316406 -1.597656 7.359375 -1.703125 L 7.5 -1.703125 L 7.390625 0 L 0 0 C 0.101562 -0.289062 0.171875 -0.597656 0.203125 -0.921875 C 0.242188 -1.253906 0.265625 -1.609375 0.265625 -1.984375 C 0.265625 -2.234375 0.265625 -2.597656 0.265625 -3.078125 C 0.265625 -3.554688 0.265625 -4.09375 0.265625 -4.6875 C 0.265625 -5.289062 0.265625 -5.890625 0.265625 -6.484375 C 0.265625 -7.078125 0.265625 -7.613281 0.265625 -8.09375 C 0.265625 -8.582031 0.265625 -8.953125 0.265625 -9.203125 C 0.265625 -9.578125 0.242188 -9.929688 0.203125 -10.265625 C 0.171875 -10.597656 0.101562 -10.898438 0 -11.171875 L 2.25 -11.171875 C 2.15625 -10.898438 2.085938 -10.597656 2.046875 -10.265625 C 2.003906 -9.929688 1.984375 -9.578125 1.984375 -9.203125 Z M 1.984375 -9.203125 "/></g></g></g><g fill="#a87f59" fill-opacity="1"><g transform="translate(100.085981, 49.239113)"><g><path d="M 6.09375 -11.171875 L 9.421875 -1.96875 C 9.535156 -1.632812 9.679688 -1.289062 9.859375 -0.9375 C 10.035156 -0.59375 10.203125 -0.28125 10.359375 0 L 8.09375 0 C 8.09375 -0.257812 8.039062 -0.566406 7.9375 -0.921875 C 7.832031 -1.273438 7.722656 -1.613281 7.609375 -1.9375 C 7.472656 -2.3125 7.320312 -2.644531 7.15625 -2.9375 C 6.988281 -3.226562 6.75 -3.46875 6.4375 -3.65625 C 6.09375 -3.875 5.703125 -4.019531 5.265625 -4.09375 C 4.828125 -4.164062 4.390625 -4.171875 3.953125 -4.109375 C 3.515625 -4.046875 3.117188 -3.910156 2.765625 -3.703125 C 2.421875 -3.503906 2.164062 -3.253906 2 -2.953125 C 1.832031 -2.660156 1.675781 -2.332031 1.53125 -1.96875 C 1.34375 -1.4375 1.484375 -0.78125 1.953125 0 L 0 0 C 0.164062 -0.28125 0.332031 -0.59375 0.5 -0.9375 C 0.664062 -1.289062 0.804688 -1.632812 0.921875 -1.96875 L 4.25 -11.171875 Z M 6.828125 -4.09375 L 4.5625 -10.3125 L 2.3125 -4.09375 C 2.75 -4.375 3.234375 -4.5625 3.765625 -4.65625 C 4.296875 -4.75 4.828125 -4.75 5.359375 -4.65625 C 5.898438 -4.5625 6.390625 -4.375 6.828125 -4.09375 Z M 6.828125 -4.09375 "/></g></g></g><g fill="#a87f59" fill-opacity="1"><g transform="translate(111.379013, 49.239113)"><g><path d="M 5.8125 -11.390625 C 6.519531 -11.390625 7.171875 -11.300781 7.765625 -11.125 C 8.367188 -10.945312 8.972656 -10.65625 9.578125 -10.25 C 9.765625 -10.125 9.988281 -9.976562 10.25 -9.8125 C 10.519531 -9.644531 10.765625 -9.566406 10.984375 -9.578125 L 10.984375 -7.015625 L 10.796875 -7.015625 C 10.617188 -7.648438 10.320312 -8.238281 9.90625 -8.78125 C 9.5 -9.332031 9.003906 -9.78125 8.421875 -10.125 C 7.847656 -10.46875 7.191406 -10.660156 6.453125 -10.703125 C 5.847656 -10.734375 5.265625 -10.628906 4.703125 -10.390625 C 4.148438 -10.160156 3.65625 -9.816406 3.21875 -9.359375 C 2.78125 -8.898438 2.429688 -8.351562 2.171875 -7.71875 C 1.910156 -7.082031 1.78125 -6.378906 1.78125 -5.609375 C 1.78125 -4.878906 1.898438 -4.207031 2.140625 -3.59375 C 2.378906 -2.976562 2.707031 -2.441406 3.125 -1.984375 C 3.539062 -1.535156 4.015625 -1.179688 4.546875 -0.921875 C 5.085938 -0.660156 5.65625 -0.519531 6.25 -0.5 C 7.019531 -0.488281 7.734375 -0.640625 8.390625 -0.953125 C 9.054688 -1.265625 9.632812 -1.695312 10.125 -2.25 C 10.613281 -2.800781 10.988281 -3.429688 11.25 -4.140625 L 11.421875 -4.140625 C 11.203125 -3.296875 10.816406 -2.546875 10.265625 -1.890625 C 9.710938 -1.234375 9.050781 -0.71875 8.28125 -0.34375 C 7.507812 0.0195312 6.6875 0.203125 5.8125 0.203125 C 5.007812 0.203125 4.253906 0.0546875 3.546875 -0.234375 C 2.835938 -0.535156 2.21875 -0.953125 1.6875 -1.484375 C 1.15625 -2.015625 0.738281 -2.628906 0.4375 -3.328125 C 0.144531 -4.035156 0 -4.796875 0 -5.609375 C 0 -6.410156 0.144531 -7.160156 0.4375 -7.859375 C 0.738281 -8.554688 1.15625 -9.171875 1.6875 -9.703125 C 2.21875 -10.234375 2.835938 -10.644531 3.546875 -10.9375 C 4.253906 -11.238281 5.007812 -11.390625 5.8125 -11.390625 Z M 5.8125 -11.390625 "/></g></g></g><g fill="#a87f59" fill-opacity="1"><g transform="translate(123.729858, 49.239113)"><g><path d="M 7.765625 0 L 0 0 C 0.101562 -0.289062 0.171875 -0.597656 0.203125 -0.921875 C 0.242188 -1.253906 0.265625 -1.609375 0.265625 -1.984375 C 0.265625 -2.234375 0.265625 -2.597656 0.265625 -3.078125 C 0.265625 -3.554688 0.265625 -4.09375 0.265625 -4.6875 C 0.265625 -5.289062 0.265625 -5.890625 0.265625 -6.484375 C 0.265625 -7.078125 0.265625 -7.613281 0.265625 -8.09375 C 0.265625 -8.582031 0.265625 -8.953125 0.265625 -9.203125 C 0.265625 -9.578125 0.242188 -9.929688 0.203125 -10.265625 C 0.171875 -10.597656 0.101562 -10.898438 0 -11.171875 L 7.328125 -11.171875 L 7.4375 -9.484375 L 7.3125 -9.484375 C 7.28125 -9.585938 7.191406 -9.726562 7.046875 -9.90625 C 6.910156 -10.082031 6.703125 -10.238281 6.421875 -10.375 C 6.148438 -10.519531 5.789062 -10.59375 5.34375 -10.59375 L 1.984375 -10.59375 L 1.984375 -5.40625 L 3.625 -5.40625 C 4.070312 -5.40625 4.429688 -5.476562 4.703125 -5.625 C 4.972656 -5.769531 5.175781 -5.929688 5.3125 -6.109375 C 5.457031 -6.285156 5.550781 -6.425781 5.59375 -6.53125 L 5.71875 -6.53125 C 5.71875 -6.0625 5.71875 -5.585938 5.71875 -5.109375 C 5.71875 -4.640625 5.71875 -4.175781 5.71875 -3.71875 L 5.59375 -3.71875 C 5.550781 -3.820312 5.457031 -3.957031 5.3125 -4.125 C 5.175781 -4.300781 4.972656 -4.460938 4.703125 -4.609375 C 4.429688 -4.753906 4.070312 -4.828125 3.625 -4.828125 L 1.984375 -4.828125 L 1.984375 -0.578125 L 5.765625 -0.578125 C 6.210938 -0.578125 6.570312 -0.648438 6.84375 -0.796875 C 7.125 -0.941406 7.332031 -1.101562 7.46875 -1.28125 C 7.601562 -1.457031 7.691406 -1.597656 7.734375 -1.703125 L 7.875 -1.703125 Z M 7.765625 0 "/></g></g></g><g fill="#a87f59" fill-opacity="1"><g transform="translate(5.484019, 31.168564)"><g><path d="M 1.984375 -1.984375 C 1.984375 -1.609375 2.003906 -1.253906 2.046875 -0.921875 C 2.085938 -0.597656 2.15625 -0.289062 2.25 0 L 0 0 C 0.101562 -0.289062 0.171875 -0.597656 0.203125 -0.921875 C 0.242188 -1.253906 0.265625 -1.609375 0.265625 -1.984375 C 0.265625 -2.234375 0.265625 -2.597656 0.265625 -3.078125 C 0.265625 -3.554688 0.265625 -4.09375 0.265625 -4.6875 C 0.265625 -5.289062 0.265625 -5.890625 0.265625 -6.484375 C 0.265625 -7.078125 0.265625 -7.613281 0.265625 -8.09375 C 0.265625 -8.582031 0.265625 -8.953125 0.265625 -9.203125 C 0.265625 -9.578125 0.242188 -9.929688 0.203125 -10.265625 C 0.171875 -10.597656 0.101562 -10.898438 0 -11.171875 L 2.25 -11.171875 C 2.15625 -10.898438 2.085938 -10.597656 2.046875 -10.265625 C 2.003906 -9.929688 1.984375 -9.578125 1.984375 -9.203125 L 1.984375 -5.40625 L 6.96875 -5.40625 L 6.96875 -9.203125 C 6.96875 -9.578125 6.945312 -9.929688 6.90625 -10.265625 C 6.875 -10.597656 6.800781 -10.898438 6.6875 -11.171875 L 8.9375 -11.171875 C 8.84375 -10.898438 8.773438 -10.597656 8.734375 -10.265625 C 8.691406 -9.929688 8.671875 -9.578125 8.671875 -9.203125 C 8.671875 -8.953125 8.671875 -8.582031 8.671875 -8.09375 C 8.671875 -7.613281 8.671875 -7.078125 8.671875 -6.484375 C 8.671875 -5.890625 8.671875 -5.289062 8.671875 -4.6875 C 8.671875 -4.09375 8.671875 -3.554688 8.671875 -3.078125 C 8.671875 -2.597656 8.671875 -2.234375 8.671875 -1.984375 C 8.671875 -1.609375 8.691406 -1.253906 8.734375 -0.921875 C 8.773438 -0.597656 8.84375 -0.289062 8.9375 0 L 6.6875 0 C 6.800781 -0.289062 6.875 -0.597656 6.90625 -0.921875 C 6.945312 -1.253906 6.96875 -1.609375 6.96875 -1.984375 L 6.96875 -4.828125 L 1.984375 -4.828125 Z M 1.984375 -1.984375 "/></g></g></g><g fill="#a87f59" fill-opacity="1"><g transform="translate(15.361676, 31.168564)"><g><path d="M 5.796875 -11.390625 C 6.597656 -11.390625 7.347656 -11.238281 8.046875 -10.9375 C 8.753906 -10.644531 9.375 -10.234375 9.90625 -9.703125 C 10.4375 -9.171875 10.847656 -8.550781 11.140625 -7.84375 C 11.441406 -7.144531 11.59375 -6.394531 11.59375 -5.59375 C 11.59375 -4.78125 11.441406 -4.023438 11.140625 -3.328125 C 10.847656 -2.628906 10.4375 -2.015625 9.90625 -1.484375 C 9.375 -0.953125 8.753906 -0.535156 8.046875 -0.234375 C 7.347656 0.0546875 6.597656 0.203125 5.796875 0.203125 C 4.992188 0.203125 4.238281 0.0546875 3.53125 -0.234375 C 2.832031 -0.535156 2.21875 -0.953125 1.6875 -1.484375 C 1.15625 -2.015625 0.738281 -2.628906 0.4375 -3.328125 C 0.144531 -4.023438 0 -4.78125 0 -5.59375 C 0 -6.394531 0.144531 -7.144531 0.4375 -7.84375 C 0.738281 -8.550781 1.15625 -9.171875 1.6875 -9.703125 C 2.21875 -10.234375 2.832031 -10.644531 3.53125 -10.9375 C 4.238281 -11.238281 4.992188 -11.390625 5.796875 -11.390625 Z M 8.296875 -1.046875 C 8.785156 -1.316406 9.175781 -1.679688 9.46875 -2.140625 C 9.757812 -2.609375 9.953125 -3.140625 10.046875 -3.734375 C 10.148438 -4.335938 10.140625 -4.960938 10.015625 -5.609375 C 9.898438 -6.265625 9.664062 -6.90625 9.3125 -7.53125 C 8.96875 -8.15625 8.550781 -8.691406 8.0625 -9.140625 C 7.570312 -9.585938 7.050781 -9.929688 6.5 -10.171875 C 5.945312 -10.410156 5.394531 -10.53125 4.84375 -10.53125 C 4.300781 -10.539062 3.785156 -10.414062 3.296875 -10.15625 C 2.804688 -9.882812 2.414062 -9.507812 2.125 -9.03125 C 1.832031 -8.5625 1.640625 -8.03125 1.546875 -7.4375 C 1.453125 -6.851562 1.460938 -6.234375 1.578125 -5.578125 C 1.703125 -4.929688 1.9375 -4.296875 2.28125 -3.671875 C 2.625 -3.046875 3.035156 -2.503906 3.515625 -2.046875 C 4.003906 -1.597656 4.523438 -1.25 5.078125 -1 C 5.628906 -0.757812 6.179688 -0.640625 6.734375 -0.640625 C 7.296875 -0.640625 7.816406 -0.773438 8.296875 -1.046875 Z M 8.296875 -1.046875 "/></g></g></g><g fill="#a87f59" fill-opacity="1"><g transform="translate(27.921097, 31.168564)"><g><path d="M 5.375 -1.984375 C 5.375 -1.609375 5.390625 -1.253906 5.421875 -0.921875 C 5.460938 -0.597656 5.535156 -0.289062 5.640625 0 L 3.390625 0 C 3.492188 -0.289062 3.5625 -0.597656 3.59375 -0.921875 C 3.632812 -1.253906 3.65625 -1.609375 3.65625 -1.984375 C 3.65625 -3.410156 3.65625 -4.84375 3.65625 -6.28125 C 3.65625 -7.71875 3.65625 -9.15625 3.65625 -10.59375 L 2.09375 -10.59375 C 1.65625 -10.59375 1.296875 -10.519531 1.015625 -10.375 C 0.742188 -10.238281 0.535156 -10.082031 0.390625 -9.90625 C 0.253906 -9.726562 0.171875 -9.585938 0.140625 -9.484375 L 0 -9.484375 L 0.109375 -11.171875 L 8.921875 -11.171875 L 9.03125 -9.484375 L 8.90625 -9.484375 C 8.863281 -9.585938 8.769531 -9.726562 8.625 -9.90625 C 8.488281 -10.082031 8.285156 -10.238281 8.015625 -10.375 C 7.742188 -10.519531 7.382812 -10.59375 6.9375 -10.59375 L 5.375 -10.59375 C 5.375 -9.15625 5.375 -7.71875 5.375 -6.28125 C 5.375 -4.84375 5.375 -3.410156 5.375 -1.984375 Z M 5.375 -1.984375 "/></g></g></g><g fill="#a87f59" fill-opacity="1"><g transform="translate(37.903042, 31.168564)"><g><path d="M 7.765625 0 L 0 0 C 0.101562 -0.289062 0.171875 -0.597656 0.203125 -0.921875 C 0.242188 -1.253906 0.265625 -1.609375 0.265625 -1.984375 C 0.265625 -2.234375 0.265625 -2.597656 0.265625 -3.078125 C 0.265625 -3.554688 0.265625 -4.09375 0.265625 -4.6875 C 0.265625 -5.289062 0.265625 -5.890625 0.265625 -6.484375 C 0.265625 -7.078125 0.265625 -7.613281 0.265625 -8.09375 C 0.265625 -8.582031 0.265625 -8.953125 0.265625 -9.203125 C 0.265625 -9.578125 0.242188 -9.929688 0.203125 -10.265625 C 0.171875 -10.597656 0.101562 -10.898438 0 -11.171875 L 7.328125 -11.171875 L 7.4375 -9.484375 L 7.3125 -9.484375 C 7.28125 -9.585938 7.191406 -9.726562 7.046875 -9.90625 C 6.910156 -10.082031 6.703125 -10.238281 6.421875 -10.375 C 6.148438 -10.519531 5.789062 -10.59375 5.34375 -10.59375 L 1.984375 -10.59375 L 1.984375 -5.40625 L 3.625 -5.40625 C 4.070312 -5.40625 4.429688 -5.476562 4.703125 -5.625 C 4.972656 -5.769531 5.175781 -5.929688 5.3125 -6.109375 C 5.457031 -6.285156 5.550781 -6.425781 5.59375 -6.53125 L 5.71875 -6.53125 C 5.71875 -6.0625 5.71875 -5.585938 5.71875 -5.109375 C 5.71875 -4.640625 5.71875 -4.175781 5.71875 -3.71875 L 5.59375 -3.71875 C 5.550781 -3.820312 5.457031 -3.957031 5.3125 -4.125 C 5.175781 -4.300781 4.972656 -4.460938 4.703125 -4.609375 C 4.429688 -4.753906 4.070312 -4.828125 3.625 -4.828125 L 1.984375 -4.828125 L 1.984375 -0.578125 L 5.765625 -0.578125 C 6.210938 -0.578125 6.570312 -0.648438 6.84375 -0.796875 C 7.125 -0.941406 7.332031 -1.101562 7.46875 -1.28125 C 7.601562 -1.457031 7.691406 -1.597656 7.734375 -1.703125 L 7.875 -1.703125 Z M 7.765625 0 "/></g></g></g><g fill="#a87f59" fill-opacity="1"><g transform="translate(46.722895, 31.168564)"><g><path d="M 1.984375 -9.203125 L 1.984375 -0.578125 L 5.40625 -0.578125 C 5.851562 -0.578125 6.210938 -0.648438 6.484375 -0.796875 C 6.753906 -0.941406 6.957031 -1.101562 7.09375 -1.28125 C 7.226562 -1.457031 7.316406 -1.597656 7.359375 -1.703125 L 7.5 -1.703125 L 7.390625 0 L 0 0 C 0.101562 -0.289062 0.171875 -0.597656 0.203125 -0.921875 C 0.242188 -1.253906 0.265625 -1.609375 0.265625 -1.984375 C 0.265625 -2.234375 0.265625 -2.597656 0.265625 -3.078125 C 0.265625 -3.554688 0.265625 -4.09375 0.265625 -4.6875 C 0.265625 -5.289062 0.265625 -5.890625 0.265625 -6.484375 C 0.265625 -7.078125 0.265625 -7.613281 0.265625 -8.09375 C 0.265625 -8.582031 0.265625 -8.953125 0.265625 -9.203125 C 0.265625 -9.578125 0.242188 -9.929688 0.203125 -10.265625 C 0.171875 -10.597656 0.101562 -10.898438 0 -11.171875 L 2.25 -11.171875 C 2.15625 -10.898438 2.085938 -10.597656 2.046875 -10.265625 C 2.003906 -9.929688 1.984375 -9.578125 1.984375 -9.203125 Z M 1.984375 -9.203125 "/></g></g></g></svg>