<svg xmlns="http://www.w3.org/2000/svg" xmlns:xlink="http://www.w3.org/1999/xlink" width="196" zoomAndPan="magnify" viewBox="0 0 147 180.749997" height="241" preserveAspectRatio="xMidYMid meet" version="1.0"><defs><g/><clipPath id="6ada3cb3e2"><path d="M 40.917969 43.226562 L 105.726562 43.226562 L 105.726562 130.691406 L 40.917969 130.691406 Z M 40.917969 43.226562 " clip-rule="nonzero"/></clipPath><clipPath id="236739af35"><path d="M 40.925781 131.445312 L 105.71875 131.445312 L 105.71875 152.417969 L 40.925781 152.417969 Z M 40.925781 131.445312 " clip-rule="nonzero"/></clipPath></defs><g clip-path="url(#6ada3cb3e2)"><path stroke-linecap="butt" transform="matrix(0.748964, 0, 0, 0.748964, 40.918276, 43.227146)" fill="none" stroke-linejoin="miter" d="M -0.000409614 -0.000779607 L 86.530572 -0.000779607 L 86.530572 116.780319 L -0.000409614 116.780319 Z M -0.000409614 -0.000779607 " stroke="#ffffff" stroke-width="4" stroke-opacity="1" stroke-miterlimit="4"/></g><g fill="#ffffff" fill-opacity="1"><g transform="translate(39.462582, 120.778181)"><g><path d="M 8.671875 -29.484375 L 11.75 -29.484375 C 12.457031 -25.953125 13.484375 -22.515625 14.828125 -19.171875 C 16.179688 -15.835938 17.820312 -12.820312 19.75 -10.125 C 21.675781 -7.425781 23.84375 -5.285156 26.25 -3.703125 C 28.664062 -2.128906 31.253906 -1.34375 34.015625 -1.34375 C 36.898438 -1.34375 39.226562 -1.710938 41 -2.453125 C 42.769531 -3.191406 44.085938 -4.140625 44.953125 -5.296875 C 45.816406 -6.453125 46.410156 -7.65625 46.734375 -8.90625 C 47.054688 -10.164062 47.21875 -11.304688 47.21875 -12.328125 C 47.21875 -14.128906 46.539062 -15.71875 45.1875 -17.09375 C 43.84375 -18.476562 42.207031 -19.78125 40.28125 -21 L 19.65625 -34.296875 C 18.050781 -35.328125 16.410156 -36.644531 14.734375 -38.25 C 13.066406 -39.851562 11.671875 -41.78125 10.546875 -44.03125 C 9.421875 -46.28125 8.859375 -48.882812 8.859375 -51.84375 C 8.859375 -56.269531 9.757812 -59.847656 11.5625 -62.578125 C 13.363281 -65.316406 15.707031 -67.296875 18.59375 -68.515625 C 21.488281 -69.734375 24.539062 -70.34375 27.75 -70.34375 C 29.875 -70.34375 31.847656 -70.035156 33.671875 -69.421875 C 35.503906 -68.816406 37.09375 -68.128906 38.4375 -67.359375 C 39.789062 -66.585938 40.789062 -65.976562 41.4375 -65.53125 C 42.070312 -65.070312 42.695312 -64.664062 43.3125 -64.3125 C 43.925781 -63.96875 44.457031 -63.796875 44.90625 -63.796875 C 45.539062 -63.796875 46.035156 -64.003906 46.390625 -64.421875 C 46.742188 -64.835938 46.953125 -65.363281 47.015625 -66 L 47.609375 -68.609375 L 50.6875 -68.609375 L 51.65625 -43.546875 L 48.5625 -43.546875 C 47.40625 -47.984375 45.71875 -52 43.5 -55.59375 C 41.289062 -59.195312 38.769531 -62.039062 35.9375 -64.125 C 33.113281 -66.21875 30.128906 -67.265625 26.984375 -67.265625 C 20.296875 -67.265625 16.953125 -64.566406 16.953125 -59.171875 C 16.953125 -56.984375 17.835938 -54.957031 19.609375 -53.09375 C 21.378906 -51.226562 23.351562 -49.554688 25.53125 -48.078125 L 46.25 -34.6875 C 48.882812 -32.957031 50.988281 -30.566406 52.5625 -27.515625 C 54.132812 -24.460938 54.921875 -21.328125 54.921875 -18.109375 C 54.921875 -14.960938 54.148438 -11.863281 52.609375 -8.8125 C 51.066406 -5.757812 48.722656 -3.238281 45.578125 -1.25 C 42.429688 0.738281 38.382812 1.734375 33.4375 1.734375 C 30.351562 1.734375 27.703125 1.28125 25.484375 0.375 C 23.265625 -0.519531 21.515625 -1.476562 20.234375 -2.5 C 19.015625 -3.46875 18.035156 -4.191406 17.296875 -4.671875 C 16.554688 -5.148438 15.863281 -5.390625 15.21875 -5.390625 C 13.875 -5.390625 13.039062 -4.300781 12.71875 -2.125 L 12.234375 0.96875 L 9.25 0.96875 Z M 8.671875 -29.484375 "/></g></g></g><path stroke-linecap="butt" transform="matrix(1.456009, 0, 0, 1.456009, 39.954563, 23.225569)" fill="none" stroke-linejoin="miter" d="M 11.08722 46.75466 L 13.203986 46.75466 C 13.689582 49.177271 14.39517 51.538177 15.320753 53.832011 C 16.246335 56.125846 17.373131 58.199686 18.695774 60.053534 C 20.021101 61.904698 21.507398 63.374899 23.157349 64.464135 C 24.815349 65.539956 26.591394 66.079209 28.488167 66.079209 C 30.470791 66.079209 32.064402 65.827021 33.271683 65.319963 C 34.487013 64.802173 35.393815 64.150241 35.984042 63.364167 C 36.587682 62.567362 36.998158 61.738362 37.212786 60.877168 C 37.438145 60.015974 37.553507 59.232583 37.553507 58.532359 C 37.553507 57.295567 37.089375 56.200965 36.163792 55.25392 C 35.235527 54.306875 34.111414 53.410804 32.786088 52.571073 L 18.631386 43.444027 C 17.52337 42.733072 16.391209 41.82627 15.240267 40.728986 C 14.097374 39.618287 13.139598 38.29296 12.364255 36.753006 C 11.599644 35.213052 11.215996 33.426276 11.215996 31.389994 C 11.215996 28.353011 11.830368 25.895523 13.059112 24.022896 C 14.295905 22.147586 15.908296 20.790065 17.888237 19.950334 C 19.881593 19.110603 21.982262 18.689396 24.190245 18.689396 C 25.644349 18.689396 26.996504 18.898658 28.24671 19.319865 C 29.504966 19.741072 30.599567 20.213253 31.52515 20.741774 C 32.453415 21.270295 33.137541 21.688819 33.577528 22.002712 C 34.020198 22.303191 34.449453 22.579524 34.87066 22.826346 C 35.291867 23.062437 35.656734 23.180482 35.967945 23.180482 C 36.410614 23.180482 36.751336 23.040974 36.987426 22.761958 C 37.234248 22.469528 37.379122 22.10466 37.422048 21.661991 L 37.811061 19.885946 L 39.927827 19.885946 L 40.59049 37.093728 L 38.473724 37.093728 C 37.68765 34.04333 36.52866 31.288046 34.999437 28.819827 C 33.480945 26.343559 31.753192 24.387763 29.813493 22.955123 C 27.873795 21.522483 25.821417 20.806162 23.656359 20.806162 C 19.06869 20.806162 16.774856 22.66001 16.774856 26.365022 C 16.774856 27.86205 17.378496 29.251765 18.583095 30.534166 C 19.801107 31.813884 21.158628 32.962143 22.655657 33.973576 L 36.890844 43.167694 C 38.699083 44.364243 40.142455 46.011512 41.220959 48.112181 C 42.307512 50.202119 42.85213 52.35108 42.85213 54.559063 C 42.85213 56.72412 42.318244 58.856984 41.253154 60.957653 C 40.196112 63.047591 38.586403 64.775345 36.421346 66.143597 C 34.267019 67.511849 31.48759 68.195975 28.08574 68.195975 C 25.974339 68.195975 24.152686 67.882082 22.623463 67.259661 C 21.104971 66.645289 19.903056 65.987992 19.020399 65.287769 C 18.180668 64.61974 17.507273 64.123413 17.000215 63.801471 C 16.493157 63.466115 16.020976 63.299779 15.578306 63.299779 C 14.652724 63.299779 14.081277 64.048293 13.866649 65.545322 L 13.525928 67.662088 L 11.47355 67.662088 Z M 11.08722 46.75466 " stroke="#ffffff" stroke-width="1.241042" stroke-opacity="1" stroke-miterlimit="4"/><g fill="#000000" fill-opacity="1"><g transform="translate(47.41661, 120.778181)"><g><path d="M 8.671875 -29.484375 L 11.75 -29.484375 C 12.457031 -25.953125 13.484375 -22.515625 14.828125 -19.171875 C 16.179688 -15.835938 17.820312 -12.820312 19.75 -10.125 C 21.675781 -7.425781 23.84375 -5.285156 26.25 -3.703125 C 28.664062 -2.128906 31.253906 -1.34375 34.015625 -1.34375 C 36.898438 -1.34375 39.226562 -1.710938 41 -2.453125 C 42.769531 -3.191406 44.085938 -4.140625 44.953125 -5.296875 C 45.816406 -6.453125 46.410156 -7.65625 46.734375 -8.90625 C 47.054688 -10.164062 47.21875 -11.304688 47.21875 -12.328125 C 47.21875 -14.128906 46.539062 -15.71875 45.1875 -17.09375 C 43.84375 -18.476562 42.207031 -19.78125 40.28125 -21 L 19.65625 -34.296875 C 18.050781 -35.328125 16.410156 -36.644531 14.734375 -38.25 C 13.066406 -39.851562 11.671875 -41.78125 10.546875 -44.03125 C 9.421875 -46.28125 8.859375 -48.882812 8.859375 -51.84375 C 8.859375 -56.269531 9.757812 -59.847656 11.5625 -62.578125 C 13.363281 -65.316406 15.707031 -67.296875 18.59375 -68.515625 C 21.488281 -69.734375 24.539062 -70.34375 27.75 -70.34375 C 29.875 -70.34375 31.847656 -70.035156 33.671875 -69.421875 C 35.503906 -68.816406 37.09375 -68.128906 38.4375 -67.359375 C 39.789062 -66.585938 40.789062 -65.976562 41.4375 -65.53125 C 42.070312 -65.070312 42.695312 -64.664062 43.3125 -64.3125 C 43.925781 -63.96875 44.457031 -63.796875 44.90625 -63.796875 C 45.539062 -63.796875 46.035156 -64.003906 46.390625 -64.421875 C 46.742188 -64.835938 46.953125 -65.363281 47.015625 -66 L 47.609375 -68.609375 L 50.6875 -68.609375 L 51.65625 -43.546875 L 48.5625 -43.546875 C 47.40625 -47.984375 45.71875 -52 43.5 -55.59375 C 41.289062 -59.195312 38.769531 -62.039062 35.9375 -64.125 C 33.113281 -66.21875 30.128906 -67.265625 26.984375 -67.265625 C 20.296875 -67.265625 16.953125 -64.566406 16.953125 -59.171875 C 16.953125 -56.984375 17.835938 -54.957031 19.609375 -53.09375 C 21.378906 -51.226562 23.351562 -49.554688 25.53125 -48.078125 L 46.25 -34.6875 C 48.882812 -32.957031 50.988281 -30.566406 52.5625 -27.515625 C 54.132812 -24.460938 54.921875 -21.328125 54.921875 -18.109375 C 54.921875 -14.960938 54.148438 -11.863281 52.609375 -8.8125 C 51.066406 -5.757812 48.722656 -3.238281 45.578125 -1.25 C 42.429688 0.738281 38.382812 1.734375 33.4375 1.734375 C 30.351562 1.734375 27.703125 1.28125 25.484375 0.375 C 23.265625 -0.519531 21.515625 -1.476562 20.234375 -2.5 C 19.015625 -3.46875 18.035156 -4.191406 17.296875 -4.671875 C 16.554688 -5.148438 15.863281 -5.390625 15.21875 -5.390625 C 13.875 -5.390625 13.039062 -4.300781 12.71875 -2.125 L 12.234375 0.96875 L 9.25 0.96875 Z M 8.671875 -29.484375 "/></g></g></g><g fill="#ffffff" fill-opacity="1"><g transform="translate(43.055212, 147.301553)"><g><path d="M 1.859375 0 L 0 0 C 0.101562 -0.269531 0.171875 -0.5625 0.203125 -0.875 C 0.234375 -1.1875 0.25 -1.519531 0.25 -1.875 L 0.25 -10.171875 L 0.0625 -10.5625 L 1.890625 -10.5625 L 5.40625 -3.75 L 8.9375 -10.5625 L 10.828125 -10.5625 C 10.722656 -10.300781 10.65625 -10.007812 10.625 -9.6875 C 10.59375 -9.375 10.578125 -9.039062 10.578125 -8.6875 C 10.578125 -8.445312 10.578125 -8.097656 10.578125 -7.640625 C 10.578125 -7.191406 10.578125 -6.6875 10.578125 -6.125 C 10.578125 -5.5625 10.578125 -5 10.578125 -4.4375 C 10.578125 -3.875 10.578125 -3.363281 10.578125 -2.90625 C 10.578125 -2.445312 10.578125 -2.101562 10.578125 -1.875 C 10.578125 -1.519531 10.59375 -1.1875 10.625 -0.875 C 10.65625 -0.5625 10.722656 -0.269531 10.828125 0 L 8.6875 0 C 8.789062 -0.269531 8.859375 -0.5625 8.890625 -0.875 C 8.921875 -1.1875 8.9375 -1.519531 8.9375 -1.875 L 8.9375 -9.359375 L 5.109375 -1.96875 L 4.484375 -1.96875 L 0.796875 -9.109375 L 0.796875 -2.515625 C 0.796875 -2.210938 0.820312 -1.894531 0.875 -1.5625 C 0.9375 -1.238281 1.046875 -0.9375 1.203125 -0.65625 C 1.359375 -0.382812 1.578125 -0.164062 1.859375 0 Z M 1.859375 0 "/></g></g></g><g fill="#ffffff" fill-opacity="1"><g transform="translate(54.758278, 147.301553)"><g><path d="M 5.46875 -10.75 C 6.226562 -10.75 6.941406 -10.609375 7.609375 -10.328125 C 8.273438 -10.046875 8.859375 -9.65625 9.359375 -9.15625 C 9.859375 -8.65625 10.25 -8.070312 10.53125 -7.40625 C 10.8125 -6.75 10.953125 -6.039062 10.953125 -5.28125 C 10.953125 -4.519531 10.8125 -3.804688 10.53125 -3.140625 C 10.25 -2.484375 9.859375 -1.898438 9.359375 -1.390625 C 8.859375 -0.890625 8.273438 -0.5 7.609375 -0.21875 C 6.941406 0.0625 6.226562 0.203125 5.46875 0.203125 C 4.71875 0.203125 4.007812 0.0625 3.34375 -0.21875 C 2.675781 -0.5 2.09375 -0.890625 1.59375 -1.390625 C 1.09375 -1.898438 0.703125 -2.484375 0.421875 -3.140625 C 0.140625 -3.804688 0 -4.519531 0 -5.28125 C 0 -6.039062 0.140625 -6.75 0.421875 -7.40625 C 0.703125 -8.070312 1.09375 -8.65625 1.59375 -9.15625 C 2.09375 -9.65625 2.675781 -10.046875 3.34375 -10.328125 C 4.007812 -10.609375 4.71875 -10.75 5.46875 -10.75 Z M 7.84375 -0.984375 C 8.300781 -1.234375 8.664062 -1.578125 8.9375 -2.015625 C 9.21875 -2.460938 9.398438 -2.96875 9.484375 -3.53125 C 9.578125 -4.09375 9.566406 -4.679688 9.453125 -5.296875 C 9.347656 -5.910156 9.128906 -6.515625 8.796875 -7.109375 C 8.472656 -7.703125 8.078125 -8.207031 7.609375 -8.625 C 7.148438 -9.050781 6.660156 -9.378906 6.140625 -9.609375 C 5.617188 -9.835938 5.097656 -9.953125 4.578125 -9.953125 C 4.054688 -9.960938 3.566406 -9.84375 3.109375 -9.59375 C 2.648438 -9.332031 2.28125 -8.976562 2 -8.53125 C 1.726562 -8.09375 1.546875 -7.59375 1.453125 -7.03125 C 1.367188 -6.46875 1.378906 -5.878906 1.484375 -5.265625 C 1.597656 -4.648438 1.820312 -4.050781 2.15625 -3.46875 C 2.476562 -2.875 2.867188 -2.363281 3.328125 -1.9375 C 3.785156 -1.507812 4.273438 -1.179688 4.796875 -0.953125 C 5.316406 -0.722656 5.835938 -0.609375 6.359375 -0.609375 C 6.890625 -0.609375 7.382812 -0.734375 7.84375 -0.984375 Z M 7.84375 -0.984375 "/></g></g></g><g fill="#ffffff" fill-opacity="1"><g transform="translate(65.715397, 147.301553)"><g><path d="M 5.078125 -1.875 C 5.078125 -1.519531 5.09375 -1.1875 5.125 -0.875 C 5.164062 -0.5625 5.234375 -0.269531 5.328125 0 L 3.203125 0 C 3.296875 -0.269531 3.359375 -0.5625 3.390625 -0.875 C 3.429688 -1.1875 3.453125 -1.519531 3.453125 -1.875 C 3.453125 -3.226562 3.453125 -4.582031 3.453125 -5.9375 C 3.453125 -7.289062 3.453125 -8.648438 3.453125 -10.015625 L 1.96875 -10.015625 C 1.550781 -10.015625 1.210938 -9.941406 0.953125 -9.796875 C 0.703125 -9.660156 0.507812 -9.507812 0.375 -9.34375 C 0.25 -9.1875 0.164062 -9.054688 0.125 -8.953125 L 0 -8.953125 L 0.09375 -10.5625 L 8.4375 -10.5625 L 8.53125 -8.953125 L 8.40625 -8.953125 C 8.363281 -9.054688 8.273438 -9.1875 8.140625 -9.34375 C 8.015625 -9.507812 7.820312 -9.660156 7.5625 -9.796875 C 7.3125 -9.941406 6.972656 -10.015625 6.546875 -10.015625 L 5.078125 -10.015625 C 5.078125 -8.648438 5.078125 -7.289062 5.078125 -5.9375 C 5.078125 -4.582031 5.078125 -3.226562 5.078125 -1.875 Z M 5.078125 -1.875 "/></g></g></g><g fill="#ffffff" fill-opacity="1"><g transform="translate(73.999783, 147.301553)"><g><path d="M 5.46875 -10.75 C 6.226562 -10.75 6.941406 -10.609375 7.609375 -10.328125 C 8.273438 -10.046875 8.859375 -9.65625 9.359375 -9.15625 C 9.859375 -8.65625 10.25 -8.070312 10.53125 -7.40625 C 10.8125 -6.75 10.953125 -6.039062 10.953125 -5.28125 C 10.953125 -4.519531 10.8125 -3.804688 10.53125 -3.140625 C 10.25 -2.484375 9.859375 -1.898438 9.359375 -1.390625 C 8.859375 -0.890625 8.273438 -0.5 7.609375 -0.21875 C 6.941406 0.0625 6.226562 0.203125 5.46875 0.203125 C 4.71875 0.203125 4.007812 0.0625 3.34375 -0.21875 C 2.675781 -0.5 2.09375 -0.890625 1.59375 -1.390625 C 1.09375 -1.898438 0.703125 -2.484375 0.421875 -3.140625 C 0.140625 -3.804688 0 -4.519531 0 -5.28125 C 0 -6.039062 0.140625 -6.75 0.421875 -7.40625 C 0.703125 -8.070312 1.09375 -8.65625 1.59375 -9.15625 C 2.09375 -9.65625 2.675781 -10.046875 3.34375 -10.328125 C 4.007812 -10.609375 4.71875 -10.75 5.46875 -10.75 Z M 7.84375 -0.984375 C 8.300781 -1.234375 8.664062 -1.578125 8.9375 -2.015625 C 9.21875 -2.460938 9.398438 -2.96875 9.484375 -3.53125 C 9.578125 -4.09375 9.566406 -4.679688 9.453125 -5.296875 C 9.347656 -5.910156 9.128906 -6.515625 8.796875 -7.109375 C 8.472656 -7.703125 8.078125 -8.207031 7.609375 -8.625 C 7.148438 -9.050781 6.660156 -9.378906 6.140625 -9.609375 C 5.617188 -9.835938 5.097656 -9.953125 4.578125 -9.953125 C 4.054688 -9.960938 3.566406 -9.84375 3.109375 -9.59375 C 2.648438 -9.332031 2.28125 -8.976562 2 -8.53125 C 1.726562 -8.09375 1.546875 -7.59375 1.453125 -7.03125 C 1.367188 -6.46875 1.378906 -5.878906 1.484375 -5.265625 C 1.597656 -4.648438 1.820312 -4.050781 2.15625 -3.46875 C 2.476562 -2.875 2.867188 -2.363281 3.328125 -1.9375 C 3.785156 -1.507812 4.273438 -1.179688 4.796875 -0.953125 C 5.316406 -0.722656 5.835938 -0.609375 6.359375 -0.609375 C 6.890625 -0.609375 7.382812 -0.734375 7.84375 -0.984375 Z M 7.84375 -0.984375 "/></g></g></g><g fill="#ffffff" fill-opacity="1"><g transform="translate(85.857577, 147.301553)"><g><path d="M 4.171875 -10.5625 C 4.953125 -10.5625 5.597656 -10.457031 6.109375 -10.25 C 6.617188 -10.050781 6.992188 -9.78125 7.234375 -9.4375 C 7.484375 -9.101562 7.609375 -8.726562 7.609375 -8.3125 C 7.609375 -7.757812 7.46875 -7.300781 7.1875 -6.9375 C 6.914062 -6.570312 6.566406 -6.257812 6.140625 -6 C 5.710938 -5.738281 5.257812 -5.492188 4.78125 -5.265625 L 6.609375 -1.875 C 6.773438 -1.5625 6.96875 -1.226562 7.1875 -0.875 C 7.414062 -0.519531 7.617188 -0.226562 7.796875 0 L 5.5625 0 C 5.46875 -0.425781 5.304688 -0.84375 5.078125 -1.25 L 3.34375 -4.5 C 2.925781 -4.238281 2.578125 -3.925781 2.296875 -3.5625 C 2.015625 -3.195312 1.875 -2.734375 1.875 -2.171875 L 1.875 -1.875 C 1.875 -1.519531 1.890625 -1.1875 1.921875 -0.875 C 1.960938 -0.5625 2.03125 -0.269531 2.125 0 C 1.8125 0 1.457031 0 1.0625 0 C 0.664062 0 0.3125 0 0 0 C 0.101562 -0.269531 0.171875 -0.5625 0.203125 -0.875 C 0.234375 -1.1875 0.25 -1.519531 0.25 -1.875 C 0.25 -2.101562 0.25 -2.445312 0.25 -2.90625 C 0.25 -3.363281 0.25 -3.875 0.25 -4.4375 C 0.25 -5 0.25 -5.5625 0.25 -6.125 C 0.25 -6.6875 0.25 -7.191406 0.25 -7.640625 C 0.25 -8.097656 0.25 -8.445312 0.25 -8.6875 C 0.25 -9.039062 0.234375 -9.375 0.203125 -9.6875 C 0.171875 -10.007812 0.101562 -10.300781 0 -10.5625 Z M 1.875 -3.859375 C 2.101562 -4.265625 2.394531 -4.609375 2.75 -4.890625 C 3.101562 -5.179688 3.46875 -5.445312 3.84375 -5.6875 C 4.226562 -5.925781 4.582031 -6.171875 4.90625 -6.421875 C 5.226562 -6.671875 5.488281 -6.953125 5.6875 -7.265625 C 5.894531 -7.585938 5.988281 -7.960938 5.96875 -8.390625 C 5.957031 -8.816406 5.796875 -9.148438 5.484375 -9.390625 C 5.179688 -9.640625 4.785156 -9.8125 4.296875 -9.90625 C 3.804688 -10.007812 3.28125 -10.0625 2.71875 -10.0625 L 1.875 -10.0625 Z M 1.875 -3.859375 "/></g></g></g><g fill="#ffffff" fill-opacity="1"><g transform="translate(93.98751, 147.301553)"><g><path d="M 7.453125 -7.671875 C 7.429688 -8.253906 7.273438 -8.726562 6.984375 -9.09375 C 6.703125 -9.46875 6.332031 -9.742188 5.875 -9.921875 C 5.414062 -10.097656 4.898438 -10.1875 4.328125 -10.1875 C 4.097656 -10.195312 3.84375 -10.164062 3.5625 -10.09375 C 3.28125 -10.03125 3.015625 -9.914062 2.765625 -9.75 C 2.523438 -9.59375 2.34375 -9.378906 2.21875 -9.109375 C 2.101562 -8.785156 2.097656 -8.441406 2.203125 -8.078125 C 2.304688 -7.722656 2.566406 -7.453125 2.984375 -7.265625 C 3.390625 -7.097656 3.832031 -6.9375 4.3125 -6.78125 C 4.800781 -6.625 5.285156 -6.457031 5.765625 -6.28125 C 6.253906 -6.101562 6.695312 -5.878906 7.09375 -5.609375 C 7.539062 -5.296875 7.875 -4.929688 8.09375 -4.515625 C 8.320312 -4.097656 8.429688 -3.660156 8.421875 -3.203125 C 8.421875 -2.742188 8.3125 -2.300781 8.09375 -1.875 C 7.875 -1.445312 7.554688 -1.070312 7.140625 -0.75 C 6.710938 -0.425781 6.234375 -0.1875 5.703125 -0.03125 C 5.179688 0.125 4.660156 0.203125 4.140625 0.203125 C 3.773438 0.203125 3.367188 0.148438 2.921875 0.046875 C 2.472656 -0.0546875 2.035156 -0.207031 1.609375 -0.40625 C 1.191406 -0.601562 0.820312 -0.835938 0.5 -1.109375 C 0.445312 -1.160156 0.375 -1.210938 0.28125 -1.265625 C 0.195312 -1.316406 0.101562 -1.328125 0 -1.296875 L 0.28125 -4.625 L 0.40625 -4.625 C 0.40625 -4.09375 0.4375 -3.617188 0.5 -3.203125 C 0.570312 -2.785156 0.710938 -2.398438 0.921875 -2.046875 C 1.140625 -1.691406 1.476562 -1.359375 1.9375 -1.046875 C 2.28125 -0.804688 2.640625 -0.632812 3.015625 -0.53125 C 3.390625 -0.425781 3.78125 -0.375 4.1875 -0.375 C 4.71875 -0.375 5.171875 -0.484375 5.546875 -0.703125 C 5.929688 -0.921875 6.226562 -1.207031 6.4375 -1.5625 C 6.644531 -1.925781 6.75 -2.316406 6.75 -2.734375 C 6.75 -3.117188 6.65625 -3.441406 6.46875 -3.703125 C 6.28125 -3.960938 6.039062 -4.1875 5.75 -4.375 C 5.457031 -4.5625 5.15625 -4.71875 4.84375 -4.84375 C 4.320312 -5.050781 3.789062 -5.226562 3.25 -5.375 C 2.71875 -5.53125 2.210938 -5.738281 1.734375 -6 C 1.367188 -6.207031 1.078125 -6.472656 0.859375 -6.796875 C 0.640625 -7.128906 0.503906 -7.484375 0.453125 -7.859375 C 0.398438 -8.234375 0.441406 -8.597656 0.578125 -8.953125 C 0.710938 -9.316406 0.953125 -9.640625 1.296875 -9.921875 C 1.648438 -10.222656 2.070312 -10.4375 2.5625 -10.5625 C 3.0625 -10.6875 3.550781 -10.75 4.03125 -10.75 C 5.257812 -10.75 6.285156 -10.453125 7.109375 -9.859375 C 7.191406 -9.796875 7.269531 -9.742188 7.34375 -9.703125 C 7.425781 -9.660156 7.503906 -9.660156 7.578125 -9.703125 L 7.578125 -7.671875 Z M 7.453125 -7.671875 "/></g></g></g><g clip-path="url(#236739af35)"><path stroke-linecap="butt" transform="matrix(0.748964, 0, 0, 0.748964, 40.92483, 131.446847)" fill="none" stroke-linejoin="miter" d="M 0.00126946 -0.0020487 L 86.511389 -0.0020487 L 86.511389 28.281811 L 0.00126946 28.281811 Z M 0.00126946 -0.0020487 " stroke="#ffffff" stroke-width="4" stroke-opacity="1" stroke-miterlimit="4"/></g></svg>