<svg xmlns="http://www.w3.org/2000/svg" xmlns:xlink="http://www.w3.org/1999/xlink" width="500" zoomAndPan="magnify" viewBox="0 0 375 106.499997" height="142" preserveAspectRatio="xMidYMid meet" version="1.0"><path fill="#ffffff" d="M 118.71875 45.800781 L 118.71875 40.75 L 110.972656 40.75 L 110.972656 70.8125 L 118.71875 70.8125 L 118.71875 52.785156 C 118.71875 49.519531 120.8125 47.917969 124.078125 47.917969 L 128.316406 47.917969 L 128.316406 40.75 L 124.695312 40.75 C 124.335938 40.730469 123.976562 40.746094 123.621094 40.792969 C 123.265625 40.84375 122.914062 40.925781 122.574219 41.039062 C 122.230469 41.152344 121.902344 41.300781 121.589844 41.476562 C 121.277344 41.652344 120.980469 41.859375 120.707031 42.089844 C 120.429688 42.324219 120.179688 42.578125 119.953125 42.859375 C 119.726562 43.140625 119.527344 43.4375 119.359375 43.757812 C 119.1875 44.074219 119.050781 44.40625 118.941406 44.75 C 118.835938 45.09375 118.761719 45.445312 118.71875 45.800781 Z M 135.574219 28.859375 C 135.265625 28.855469 134.957031 28.882812 134.65625 28.941406 C 134.351562 29 134.054688 29.089844 133.769531 29.203125 C 133.480469 29.320312 133.210938 29.464844 132.949219 29.636719 C 132.691406 29.804688 132.453125 30 132.234375 30.214844 C 132.011719 30.433594 131.816406 30.671875 131.640625 30.925781 C 131.46875 31.183594 131.320312 31.453125 131.199219 31.738281 C 131.082031 32.023438 130.988281 32.316406 130.925781 32.621094 C 130.863281 32.925781 130.832031 33.230469 130.828125 33.539062 C 130.828125 33.847656 130.855469 34.15625 130.914062 34.460938 C 130.972656 34.765625 131.058594 35.058594 131.175781 35.347656 C 131.292969 35.632812 131.4375 35.90625 131.605469 36.164062 C 131.777344 36.421875 131.972656 36.660156 132.1875 36.882812 C 132.40625 37.101562 132.644531 37.300781 132.898438 37.472656 C 133.15625 37.644531 133.425781 37.792969 133.710938 37.914062 C 133.996094 38.035156 134.289062 38.125 134.59375 38.1875 C 134.894531 38.25 135.203125 38.28125 135.511719 38.285156 C 135.820312 38.285156 136.128906 38.257812 136.433594 38.199219 C 136.734375 38.140625 137.03125 38.054688 137.316406 37.9375 C 137.605469 37.820312 137.878906 37.675781 138.136719 37.507812 C 138.394531 37.335938 138.632812 37.144531 138.855469 36.925781 C 139.074219 36.707031 139.269531 36.472656 139.445312 36.214844 C 139.617188 35.960938 139.765625 35.6875 139.886719 35.402344 C 140.007812 35.117188 140.097656 34.824219 140.160156 34.519531 C 140.222656 34.21875 140.253906 33.910156 140.257812 33.601562 C 140.261719 33.292969 140.238281 32.984375 140.179688 32.679688 C 140.125 32.371094 140.039062 32.074219 139.925781 31.789062 C 139.808594 31.5 139.667969 31.226562 139.496094 30.964844 C 139.328125 30.703125 139.132812 30.464844 138.914062 30.242188 C 138.695312 30.023438 138.460938 29.824219 138.203125 29.652344 C 137.945312 29.480469 137.671875 29.332031 137.386719 29.214844 C 137.097656 29.09375 136.800781 29.003906 136.496094 28.945312 C 136.191406 28.886719 135.886719 28.855469 135.574219 28.859375 Z M 131.710938 70.8125 L 139.441406 70.8125 L 139.441406 40.75 L 131.710938 40.75 Z M 176.261719 55.78125 C 176.261719 56.800781 176.164062 57.8125 175.964844 58.8125 C 175.765625 59.8125 175.46875 60.785156 175.078125 61.726562 C 174.6875 62.667969 174.210938 63.566406 173.644531 64.414062 C 173.078125 65.261719 172.433594 66.046875 171.710938 66.769531 C 170.988281 67.488281 170.203125 68.132812 169.355469 68.703125 C 168.507812 69.269531 167.613281 69.746094 166.671875 70.136719 C 165.726562 70.527344 164.753906 70.824219 163.753906 71.023438 C 162.753906 71.21875 161.742188 71.320312 160.722656 71.320312 C 159.078125 71.328125 157.472656 71.070312 155.910156 70.546875 C 154.347656 70.023438 152.914062 69.265625 151.601562 68.269531 L 151.601562 79.636719 L 143.871094 79.636719 L 143.871094 40.75 L 151.601562 40.75 L 151.601562 43.292969 C 152.914062 42.296875 154.347656 41.535156 155.910156 41.015625 C 157.472656 40.492188 159.078125 40.234375 160.722656 40.242188 C 161.742188 40.242188 162.753906 40.339844 163.753906 40.539062 C 164.753906 40.738281 165.726562 41.035156 166.667969 41.425781 C 167.613281 41.816406 168.507812 42.292969 169.355469 42.859375 C 170.203125 43.429688 170.988281 44.070312 171.710938 44.792969 C 172.429688 45.515625 173.074219 46.300781 173.640625 47.148438 C 174.207031 47.996094 174.6875 48.890625 175.078125 49.835938 C 175.46875 50.777344 175.761719 51.75 175.960938 52.75 C 176.160156 53.75 176.261719 54.761719 176.261719 55.78125 Z M 168.484375 55.78125 C 168.484375 55.226562 168.429688 54.675781 168.320312 54.132812 C 168.214844 53.589844 168.054688 53.0625 167.839844 52.550781 C 167.628906 52.039062 167.371094 51.550781 167.0625 51.089844 C 166.753906 50.628906 166.402344 50.203125 166.011719 49.8125 C 165.621094 49.417969 165.191406 49.070312 164.730469 48.761719 C 164.273438 48.453125 163.785156 48.195312 163.273438 47.980469 C 162.761719 47.769531 162.234375 47.609375 161.691406 47.5 C 161.144531 47.394531 160.597656 47.339844 160.042969 47.339844 C 159.488281 47.339844 158.941406 47.394531 158.394531 47.5 C 157.851562 47.609375 157.324219 47.769531 156.8125 47.980469 C 156.300781 48.195312 155.8125 48.453125 155.351562 48.761719 C 154.890625 49.070312 154.464844 49.417969 154.074219 49.8125 C 153.683594 50.203125 153.332031 50.628906 153.023438 51.089844 C 152.714844 51.550781 152.457031 52.039062 152.246094 52.550781 C 152.03125 53.0625 151.871094 53.589844 151.765625 54.132812 C 151.65625 54.675781 151.601562 55.226562 151.601562 55.78125 C 151.601562 56.335938 151.65625 56.882812 151.765625 57.425781 C 151.871094 57.972656 152.03125 58.5 152.246094 59.011719 C 152.457031 59.523438 152.714844 60.007812 153.023438 60.46875 C 153.332031 60.929688 153.683594 61.355469 154.074219 61.75 C 154.464844 62.140625 154.890625 62.492188 155.351562 62.800781 C 155.8125 63.105469 156.300781 63.367188 156.8125 63.578125 C 157.324219 63.792969 157.851562 63.953125 158.394531 64.058594 C 158.941406 64.167969 159.488281 64.222656 160.042969 64.222656 C 160.597656 64.222656 161.144531 64.167969 161.6875 64.058594 C 162.234375 63.949219 162.761719 63.789062 163.273438 63.578125 C 163.785156 63.367188 164.269531 63.105469 164.730469 62.796875 C 165.191406 62.488281 165.617188 62.140625 166.007812 61.746094 C 166.402344 61.355469 166.75 60.929688 167.058594 60.46875 C 167.367188 60.007812 167.625 59.523438 167.839844 59.011719 C 168.050781 58.496094 168.210938 57.96875 168.320312 57.425781 C 168.425781 56.882812 168.480469 56.335938 168.480469 55.78125 Z M 310.609375 53.144531 L 306.101562 51.90625 C 303.128906 51.132812 301.980469 50.222656 301.980469 48.65625 C 301.980469 47.128906 303.605469 46.058594 305.929688 46.058594 C 308.140625 46.058594 309.878906 47.503906 309.878906 49.359375 L 309.878906 49.53125 L 317.003906 49.53125 L 317.003906 49.359375 C 317.003906 43.90625 312.554688 40.238281 305.929688 40.238281 C 299.371094 40.238281 294.601562 43.902344 294.601562 48.949219 C 294.601562 52.875 297.203125 55.835938 301.742188 57.0625 L 306.0625 58.242188 C 309.34375 59.152344 310.5625 60.160156 310.5625 61.964844 C 310.5625 63.871094 308.800781 65.152344 306.179688 65.152344 C 303.445312 65.152344 301.601562 63.417969 301.601562 60.847656 L 301.601562 60.675781 L 294.039062 60.675781 L 294.039062 60.847656 C 294.039062 67.015625 299.003906 71.328125 306.117188 71.328125 C 312.96875 71.328125 317.941406 67.117188 317.941406 61.320312 C 317.941406 58.480469 316.671875 54.761719 310.609375 53.144531 Z M 203.679688 40.75 L 211.410156 40.75 L 211.410156 70.8125 L 203.679688 70.8125 L 203.679688 68.273438 C 202.371094 69.269531 200.933594 70.027344 199.371094 70.550781 C 197.8125 71.074219 196.207031 71.332031 194.558594 71.324219 C 193.546875 71.316406 192.539062 71.210938 191.546875 71.003906 C 190.550781 70.800781 189.585938 70.5 188.652344 70.105469 C 187.714844 69.710938 186.828125 69.230469 185.984375 68.664062 C 185.144531 68.09375 184.367188 67.449219 183.648438 66.730469 C 182.933594 66.007812 182.296875 65.226562 181.734375 64.378906 C 181.171875 63.535156 180.699219 62.640625 180.3125 61.703125 C 179.925781 60.765625 179.632812 59.796875 179.4375 58.800781 C 179.238281 57.804688 179.140625 56.800781 179.140625 55.785156 C 179.140625 54.769531 179.238281 53.765625 179.4375 52.769531 C 179.632812 51.773438 179.925781 50.804688 180.3125 49.867188 C 180.699219 48.925781 181.171875 48.035156 181.734375 47.1875 C 182.296875 46.34375 182.933594 45.558594 183.648438 44.839844 C 184.363281 44.117188 185.144531 43.472656 185.984375 42.90625 C 186.828125 42.335938 187.714844 41.855469 188.652344 41.460938 C 189.585938 41.070312 190.550781 40.769531 191.546875 40.566406 C 192.539062 40.359375 193.546875 40.253906 194.558594 40.246094 C 196.207031 40.238281 197.8125 40.496094 199.371094 41.019531 C 200.933594 41.539062 202.371094 42.300781 203.679688 43.296875 Z M 203.679688 55.78125 C 203.679688 55.226562 203.628906 54.675781 203.519531 54.132812 C 203.410156 53.589844 203.25 53.0625 203.039062 52.550781 C 202.828125 52.039062 202.566406 51.550781 202.257812 51.089844 C 201.949219 50.628906 201.601562 50.203125 201.207031 49.8125 C 200.816406 49.417969 200.390625 49.070312 199.929688 48.761719 C 199.46875 48.453125 198.980469 48.195312 198.46875 47.980469 C 197.957031 47.769531 197.429688 47.609375 196.886719 47.5 C 196.34375 47.394531 195.792969 47.339844 195.238281 47.339844 C 194.6875 47.339844 194.136719 47.394531 193.59375 47.5 C 193.050781 47.609375 192.523438 47.769531 192.007812 47.980469 C 191.496094 48.195312 191.011719 48.453125 190.550781 48.761719 C 190.089844 49.070312 189.664062 49.417969 189.269531 49.8125 C 188.878906 50.203125 188.53125 50.628906 188.222656 51.089844 C 187.914062 51.550781 187.652344 52.039062 187.441406 52.550781 C 187.230469 53.0625 187.070312 53.589844 186.960938 54.132812 C 186.851562 54.675781 186.800781 55.226562 186.800781 55.78125 C 186.800781 56.335938 186.851562 56.882812 186.960938 57.425781 C 187.070312 57.972656 187.230469 58.5 187.441406 59.011719 C 187.652344 59.523438 187.914062 60.007812 188.222656 60.46875 C 188.53125 60.929688 188.878906 61.355469 189.269531 61.75 C 189.664062 62.140625 190.089844 62.492188 190.550781 62.800781 C 191.011719 63.105469 191.496094 63.367188 192.007812 63.578125 C 192.523438 63.792969 193.050781 63.953125 193.59375 64.058594 C 194.136719 64.167969 194.6875 64.222656 195.238281 64.222656 C 195.792969 64.222656 196.34375 64.167969 196.886719 64.058594 C 197.429688 63.953125 197.957031 63.792969 198.46875 63.578125 C 198.984375 63.367188 199.46875 63.105469 199.929688 62.800781 C 200.390625 62.492188 200.816406 62.140625 201.210938 61.75 C 201.601562 61.359375 201.949219 60.929688 202.257812 60.46875 C 202.566406 60.007812 202.828125 59.523438 203.039062 59.011719 C 203.25 58.5 203.410156 57.972656 203.519531 57.425781 C 203.628906 56.882812 203.679688 56.335938 203.679688 55.78125 Z M 239.320312 30.050781 L 247.050781 30.050781 L 247.050781 70.8125 L 239.328125 70.8125 L 239.328125 68.273438 C 238.015625 69.269531 236.582031 70.027344 235.019531 70.550781 C 233.457031 71.074219 231.851562 71.332031 230.207031 71.324219 C 229.695312 71.328125 229.183594 71.304688 228.675781 71.261719 C 228.164062 71.214844 227.660156 71.140625 227.15625 71.046875 C 226.65625 70.949219 226.160156 70.828125 225.667969 70.683594 C 225.179688 70.539062 224.695312 70.367188 224.222656 70.175781 C 223.75 69.984375 223.285156 69.765625 222.832031 69.527344 C 222.382812 69.289062 221.941406 69.027344 221.515625 68.746094 C 221.089844 68.464844 220.675781 68.164062 220.28125 67.839844 C 219.882812 67.515625 219.503906 67.175781 219.140625 66.816406 C 218.777344 66.457031 218.433594 66.078125 218.105469 65.683594 C 217.78125 65.289062 217.476562 64.878906 217.191406 64.457031 C 216.90625 64.03125 216.640625 63.59375 216.398438 63.144531 C 216.15625 62.691406 215.9375 62.230469 215.742188 61.757812 C 215.542969 61.289062 215.371094 60.804688 215.222656 60.316406 C 215.074219 59.828125 214.949219 59.332031 214.847656 58.832031 C 214.746094 58.328125 214.671875 57.824219 214.621094 57.316406 C 214.570312 56.804688 214.546875 56.296875 214.546875 55.785156 C 214.546875 55.273438 214.570312 54.761719 214.621094 54.253906 C 214.671875 53.746094 214.746094 53.238281 214.847656 52.738281 C 214.949219 52.238281 215.074219 51.742188 215.222656 51.253906 C 215.371094 50.761719 215.542969 50.28125 215.742188 49.808594 C 215.9375 49.339844 216.15625 48.875 216.398438 48.425781 C 216.640625 47.976562 216.90625 47.539062 217.191406 47.113281 C 217.476562 46.6875 217.78125 46.28125 218.105469 45.886719 C 218.433594 45.492188 218.777344 45.113281 219.140625 44.753906 C 219.503906 44.394531 219.882812 44.050781 220.28125 43.730469 C 220.675781 43.40625 221.089844 43.105469 221.515625 42.824219 C 221.941406 42.539062 222.382812 42.28125 222.832031 42.042969 C 223.285156 41.800781 223.75 41.585938 224.222656 41.394531 C 224.695312 41.199219 225.179688 41.03125 225.667969 40.886719 C 226.160156 40.742188 226.65625 40.621094 227.15625 40.523438 C 227.660156 40.425781 228.164062 40.355469 228.675781 40.308594 C 229.183594 40.261719 229.695312 40.242188 230.207031 40.246094 C 231.851562 40.238281 233.457031 40.496094 235.019531 41.015625 C 236.578125 41.539062 238.015625 42.296875 239.328125 43.292969 Z M 239.320312 55.78125 C 239.320312 55.226562 239.269531 54.675781 239.160156 54.132812 C 239.050781 53.589844 238.890625 53.0625 238.679688 52.550781 C 238.46875 52.039062 238.207031 51.550781 237.898438 51.089844 C 237.589844 50.628906 237.242188 50.203125 236.851562 49.8125 C 236.457031 49.417969 236.03125 49.070312 235.570312 48.761719 C 235.109375 48.453125 234.625 48.195312 234.113281 47.980469 C 233.597656 47.769531 233.070312 47.609375 232.527344 47.5 C 231.984375 47.394531 231.433594 47.339844 230.882812 47.339844 C 230.328125 47.339844 229.777344 47.394531 229.234375 47.5 C 228.691406 47.609375 228.164062 47.769531 227.652344 47.980469 C 227.140625 48.195312 226.652344 48.453125 226.191406 48.761719 C 225.730469 49.070312 225.304688 49.417969 224.914062 49.8125 C 224.519531 50.203125 224.171875 50.628906 223.863281 51.089844 C 223.554688 51.550781 223.292969 52.039062 223.082031 52.550781 C 222.871094 53.0625 222.710938 53.589844 222.601562 54.132812 C 222.492188 54.675781 222.441406 55.226562 222.441406 55.78125 C 222.441406 56.335938 222.492188 56.882812 222.601562 57.425781 C 222.710938 57.972656 222.871094 58.5 223.082031 59.011719 C 223.292969 59.523438 223.554688 60.007812 223.863281 60.46875 C 224.171875 60.929688 224.519531 61.355469 224.914062 61.75 C 225.304688 62.140625 225.730469 62.492188 226.191406 62.800781 C 226.652344 63.105469 227.140625 63.367188 227.652344 63.578125 C 228.164062 63.792969 228.691406 63.953125 229.234375 64.058594 C 229.777344 64.167969 230.328125 64.222656 230.882812 64.222656 C 231.433594 64.222656 231.984375 64.167969 232.527344 64.058594 C 233.070312 63.953125 233.601562 63.792969 234.113281 63.578125 C 234.625 63.367188 235.113281 63.109375 235.574219 62.800781 C 236.035156 62.492188 236.460938 62.140625 236.851562 61.75 C 237.246094 61.359375 237.59375 60.933594 237.902344 60.472656 C 238.210938 60.011719 238.472656 59.523438 238.683594 59.011719 C 238.894531 58.5 239.054688 57.972656 239.164062 57.425781 C 239.273438 56.882812 239.328125 56.335938 239.328125 55.78125 Z M 282.941406 70.8125 L 290.671875 70.8125 L 290.671875 40.75 L 282.945312 40.75 Z M 286.804688 28.859375 C 286.496094 28.855469 286.1875 28.886719 285.882812 28.945312 C 285.582031 29.003906 285.285156 29.089844 285 29.207031 C 284.710938 29.324219 284.441406 29.464844 284.179688 29.636719 C 283.921875 29.808594 283.683594 30 283.464844 30.21875 C 283.242188 30.433594 283.046875 30.671875 282.871094 30.929688 C 282.699219 31.183594 282.550781 31.457031 282.429688 31.742188 C 282.3125 32.027344 282.21875 32.320312 282.15625 32.621094 C 282.09375 32.925781 282.0625 33.230469 282.0625 33.542969 C 282.058594 33.851562 282.085938 34.15625 282.144531 34.460938 C 282.203125 34.765625 282.292969 35.0625 282.40625 35.347656 C 282.523438 35.632812 282.667969 35.90625 282.839844 36.164062 C 283.007812 36.421875 283.203125 36.664062 283.421875 36.882812 C 283.636719 37.101562 283.875 37.300781 284.128906 37.472656 C 284.386719 37.648438 284.65625 37.792969 284.941406 37.914062 C 285.226562 38.035156 285.519531 38.125 285.824219 38.1875 C 286.128906 38.25 286.433594 38.285156 286.742188 38.285156 C 287.054688 38.289062 287.359375 38.257812 287.664062 38.199219 C 287.96875 38.140625 288.261719 38.054688 288.550781 37.9375 C 288.835938 37.820312 289.109375 37.679688 289.367188 37.507812 C 289.625 37.335938 289.863281 37.144531 290.085938 36.925781 C 290.304688 36.710938 290.503906 36.472656 290.675781 36.214844 C 290.847656 35.960938 290.996094 35.6875 291.117188 35.402344 C 291.238281 35.117188 291.328125 34.824219 291.390625 34.523438 C 291.453125 34.21875 291.484375 33.914062 291.488281 33.601562 C 291.492188 33.292969 291.46875 32.984375 291.414062 32.679688 C 291.355469 32.375 291.273438 32.078125 291.15625 31.789062 C 291.042969 31.5 290.898438 31.226562 290.730469 30.964844 C 290.558594 30.707031 290.363281 30.464844 290.148438 30.242188 C 289.929688 30.023438 289.691406 29.824219 289.433594 29.652344 C 289.175781 29.480469 288.902344 29.332031 288.617188 29.214844 C 288.328125 29.09375 288.035156 29.003906 287.730469 28.945312 C 287.421875 28.886719 287.117188 28.855469 286.804688 28.859375 Z M 351.351562 55.78125 C 351.351562 56.800781 351.25 57.8125 351.054688 58.8125 C 350.855469 59.8125 350.558594 60.785156 350.167969 61.726562 C 349.777344 62.671875 349.300781 63.566406 348.734375 64.414062 C 348.164062 65.261719 347.523438 66.046875 346.800781 66.769531 C 346.078125 67.492188 345.292969 68.136719 344.445312 68.703125 C 343.597656 69.269531 342.703125 69.746094 341.757812 70.136719 C 340.816406 70.527344 339.84375 70.824219 338.84375 71.023438 C 337.84375 71.222656 336.832031 71.320312 335.8125 71.320312 C 334.792969 71.320312 333.78125 71.222656 332.78125 71.023438 C 331.78125 70.824219 330.808594 70.527344 329.867188 70.136719 C 328.921875 69.746094 328.027344 69.269531 327.179688 68.703125 C 326.332031 68.136719 325.546875 67.492188 324.824219 66.769531 C 324.101562 66.046875 323.457031 65.261719 322.890625 64.414062 C 322.324219 63.566406 321.84375 62.671875 321.453125 61.730469 C 321.066406 60.785156 320.769531 59.8125 320.570312 58.8125 C 320.371094 57.8125 320.273438 56.800781 320.273438 55.78125 C 320.273438 54.761719 320.371094 53.75 320.570312 52.75 C 320.769531 51.75 321.0625 50.777344 321.453125 49.835938 C 321.84375 48.890625 322.324219 47.996094 322.890625 47.148438 C 323.457031 46.300781 324.101562 45.515625 324.824219 44.792969 C 325.542969 44.070312 326.328125 43.425781 327.179688 42.859375 C 328.027344 42.292969 328.921875 41.816406 329.863281 41.425781 C 330.808594 41.035156 331.777344 40.738281 332.78125 40.539062 C 333.78125 40.339844 334.792969 40.242188 335.8125 40.242188 C 336.832031 40.242188 337.84375 40.339844 338.84375 40.539062 C 339.84375 40.738281 340.816406 41.035156 341.757812 41.425781 C 342.699219 41.816406 343.597656 42.292969 344.445312 42.859375 C 345.292969 43.425781 346.078125 44.070312 346.800781 44.792969 C 347.519531 45.515625 348.164062 46.300781 348.734375 47.148438 C 349.300781 47.996094 349.777344 48.890625 350.167969 49.832031 C 350.558594 50.777344 350.855469 51.75 351.050781 52.75 C 351.25 53.75 351.351562 54.761719 351.351562 55.78125 Z M 344.253906 55.78125 C 344.253906 55.226562 344.199219 54.675781 344.089844 54.132812 C 343.980469 53.589844 343.820312 53.0625 343.609375 52.550781 C 343.398438 52.039062 343.136719 51.550781 342.828125 51.089844 C 342.523438 50.628906 342.171875 50.203125 341.78125 49.8125 C 341.386719 49.417969 340.960938 49.070312 340.5 48.761719 C 340.039062 48.453125 339.554688 48.195312 339.042969 47.980469 C 338.53125 47.769531 338 47.609375 337.457031 47.5 C 336.914062 47.394531 336.367188 47.339844 335.8125 47.339844 C 335.257812 47.339844 334.707031 47.394531 334.164062 47.5 C 333.621094 47.609375 333.09375 47.769531 332.582031 47.980469 C 332.070312 48.195312 331.582031 48.453125 331.121094 48.761719 C 330.660156 49.070312 330.234375 49.417969 329.84375 49.8125 C 329.449219 50.203125 329.101562 50.628906 328.792969 51.089844 C 328.484375 51.550781 328.226562 52.039062 328.011719 52.550781 C 327.800781 53.0625 327.640625 53.589844 327.53125 54.132812 C 327.425781 54.675781 327.371094 55.226562 327.371094 55.78125 C 327.371094 56.335938 327.425781 56.882812 327.53125 57.425781 C 327.640625 57.972656 327.800781 58.5 328.011719 59.011719 C 328.226562 59.523438 328.484375 60.007812 328.792969 60.46875 C 329.101562 60.929688 329.449219 61.355469 329.84375 61.75 C 330.234375 62.140625 330.660156 62.492188 331.121094 62.800781 C 331.582031 63.105469 332.070312 63.367188 332.582031 63.578125 C 333.09375 63.792969 333.621094 63.953125 334.164062 64.058594 C 334.707031 64.167969 335.257812 64.222656 335.8125 64.222656 C 336.367188 64.222656 336.914062 64.167969 337.457031 64.058594 C 338 63.949219 338.527344 63.789062 339.039062 63.578125 C 339.550781 63.363281 340.039062 63.105469 340.5 62.796875 C 340.960938 62.488281 341.386719 62.140625 341.777344 61.746094 C 342.167969 61.355469 342.519531 60.929688 342.828125 60.46875 C 343.132812 60.007812 343.394531 59.519531 343.605469 59.007812 C 343.816406 58.496094 343.976562 57.96875 344.085938 57.425781 C 344.195312 56.882812 344.25 56.335938 344.25 55.78125 Z M 114.761719 30.050781 L 85.109375 30.050781 L 85.109375 36.945312 L 96.085938 36.945312 L 96.085938 70.8125 L 103.792969 70.8125 L 103.792969 36.945312 L 114.769531 36.945312 L 114.769531 30.050781 Z M 264.714844 62.578125 L 257.835938 40.75 L 249.71875 40.75 L 260.03125 70.8125 L 269.335938 70.8125 L 279.710938 40.75 L 271.589844 40.75 Z M 362.671875 45.800781 L 362.671875 40.75 L 354.925781 40.75 L 354.925781 70.8125 L 362.675781 70.8125 L 362.675781 52.785156 C 362.675781 49.519531 364.769531 47.917969 368.03125 47.917969 L 372.273438 47.917969 L 372.273438 40.75 L 368.652344 40.75 C 368.292969 40.730469 367.933594 40.746094 367.578125 40.792969 C 367.21875 40.84375 366.871094 40.925781 366.527344 41.039062 C 366.1875 41.15625 365.859375 41.300781 365.546875 41.476562 C 365.230469 41.65625 364.9375 41.859375 364.664062 42.09375 C 364.386719 42.324219 364.136719 42.582031 363.910156 42.863281 C 363.683594 43.140625 363.484375 43.441406 363.316406 43.757812 C 363.144531 44.074219 363.007812 44.40625 362.898438 44.75 C 362.789062 45.09375 362.714844 45.445312 362.675781 45.800781 Z M 362.671875 45.800781 " fill-opacity="1" fill-rule="nonzero"/><path fill="#34e0a1" d="M 81.789062 53.65625 C 81.789062 54.945312 81.726562 56.230469 81.601562 57.511719 C 81.472656 58.792969 81.285156 60.066406 81.03125 61.328125 C 80.777344 62.59375 80.464844 63.839844 80.089844 65.074219 C 79.710938 66.308594 79.277344 67.519531 78.78125 68.707031 C 78.285156 69.898438 77.734375 71.0625 77.121094 72.199219 C 76.511719 73.335938 75.847656 74.4375 75.128906 75.507812 C 74.410156 76.582031 73.636719 77.613281 72.816406 78.609375 C 71.996094 79.605469 71.128906 80.558594 70.210938 81.46875 C 69.296875 82.378906 68.339844 83.246094 67.335938 84.0625 C 66.335938 84.878906 65.296875 85.644531 64.222656 86.363281 C 63.144531 87.078125 62.035156 87.738281 60.894531 88.347656 C 59.75 88.953125 58.582031 89.503906 57.386719 89.996094 C 56.191406 90.488281 54.972656 90.921875 53.734375 91.296875 C 52.496094 91.671875 51.242188 91.984375 49.96875 92.234375 C 48.699219 92.484375 47.421875 92.675781 46.132812 92.800781 C 44.84375 92.925781 43.550781 92.992188 42.257812 92.992188 C 40.964844 92.992188 39.671875 92.925781 38.382812 92.800781 C 37.09375 92.675781 35.816406 92.484375 34.546875 92.234375 C 33.277344 91.984375 32.019531 91.671875 30.78125 91.296875 C 29.542969 90.921875 28.324219 90.488281 27.128906 89.996094 C 25.933594 89.503906 24.765625 88.953125 23.621094 88.347656 C 22.480469 87.738281 21.371094 87.078125 20.296875 86.363281 C 19.21875 85.644531 18.179688 84.878906 17.179688 84.0625 C 16.179688 83.246094 15.21875 82.378906 14.304688 81.46875 C 13.390625 80.558594 12.519531 79.605469 11.699219 78.609375 C 10.878906 77.613281 10.105469 76.582031 9.386719 75.507812 C 8.667969 74.4375 8.003906 73.335938 7.394531 72.199219 C 6.78125 71.0625 6.230469 69.898438 5.734375 68.707031 C 5.238281 67.519531 4.804688 66.308594 4.429688 65.074219 C 4.050781 63.839844 3.738281 62.59375 3.484375 61.328125 C 3.234375 60.066406 3.042969 58.792969 2.914062 57.511719 C 2.789062 56.230469 2.726562 54.945312 2.726562 53.65625 C 2.726562 52.367188 2.789062 51.082031 2.914062 49.800781 C 3.042969 48.519531 3.234375 47.246094 3.484375 45.980469 C 3.738281 44.71875 4.050781 43.46875 4.429688 42.238281 C 4.804688 41.003906 5.238281 39.792969 5.734375 38.601562 C 6.230469 37.414062 6.78125 36.25 7.394531 35.113281 C 8.003906 33.976562 8.667969 32.875 9.386719 31.804688 C 10.105469 30.730469 10.878906 29.699219 11.699219 28.703125 C 12.519531 27.707031 13.390625 26.753906 14.304688 25.84375 C 15.21875 24.929688 16.179688 24.066406 17.179688 23.25 C 18.179688 22.433594 19.21875 21.667969 20.296875 20.949219 C 21.371094 20.234375 22.480469 19.574219 23.621094 18.964844 C 24.765625 18.359375 25.933594 17.808594 27.128906 17.316406 C 28.324219 16.824219 29.542969 16.390625 30.78125 16.015625 C 32.019531 15.640625 33.277344 15.328125 34.546875 15.078125 C 35.816406 14.824219 37.09375 14.636719 38.382812 14.511719 C 39.671875 14.382812 40.964844 14.320312 42.257812 14.320312 C 43.550781 14.320312 44.84375 14.382812 46.132812 14.511719 C 47.421875 14.636719 48.699219 14.824219 49.96875 15.078125 C 51.242188 15.328125 52.496094 15.640625 53.734375 16.015625 C 54.972656 16.390625 56.191406 16.824219 57.386719 17.316406 C 58.582031 17.808594 59.75 18.359375 60.894531 18.964844 C 62.035156 19.574219 63.144531 20.234375 64.222656 20.949219 C 65.296875 21.667969 66.335938 22.433594 67.335938 23.25 C 68.339844 24.066406 69.296875 24.929688 70.210938 25.84375 C 71.128906 26.753906 71.996094 27.707031 72.816406 28.703125 C 73.636719 29.699219 74.410156 30.730469 75.128906 31.804688 C 75.847656 32.875 76.511719 33.976562 77.121094 35.113281 C 77.734375 36.25 78.285156 37.414062 78.78125 38.601562 C 79.277344 39.792969 79.710938 41.003906 80.089844 42.238281 C 80.464844 43.46875 80.777344 44.71875 81.03125 45.980469 C 81.285156 47.246094 81.472656 48.519531 81.601562 49.800781 C 81.726562 51.082031 81.789062 52.367188 81.789062 53.65625 Z M 81.789062 53.65625 " fill-opacity="1" fill-rule="nonzero"/><path fill="#ffffff" d="M 66.675781 45.941406 L 71.445312 40.753906 L 60.867188 40.753906 C 59.503906 39.824219 58.082031 39.003906 56.59375 38.289062 C 55.109375 37.578125 53.578125 36.976562 52.003906 36.492188 C 50.425781 36.007812 48.824219 35.640625 47.195312 35.398438 C 45.566406 35.152344 43.925781 35.027344 42.277344 35.027344 C 40.628906 35.027344 38.988281 35.152344 37.359375 35.398438 C 35.730469 35.640625 34.125 36.007812 32.550781 36.492188 C 30.976562 36.976562 29.445312 37.578125 27.960938 38.289062 C 26.472656 39.003906 25.050781 39.824219 23.6875 40.753906 L 13.078125 40.753906 L 17.851562 45.941406 C 17.144531 46.589844 16.511719 47.300781 15.945312 48.074219 C 15.378906 48.847656 14.894531 49.667969 14.492188 50.535156 C 14.089844 51.40625 13.773438 52.304688 13.546875 53.234375 C 13.324219 54.164062 13.191406 55.109375 13.148438 56.066406 C 13.109375 57.019531 13.164062 57.972656 13.308594 58.917969 C 13.457031 59.863281 13.695312 60.789062 14.023438 61.6875 C 14.351562 62.585938 14.765625 63.445312 15.261719 64.261719 C 15.761719 65.078125 16.335938 65.839844 16.980469 66.546875 C 17.628906 67.25 18.339844 67.886719 19.113281 68.449219 C 19.886719 69.015625 20.707031 69.5 21.574219 69.902344 C 22.445312 70.304688 23.34375 70.621094 24.273438 70.847656 C 25.203125 71.074219 26.148438 71.207031 27.105469 71.246094 C 28.0625 71.289062 29.011719 71.234375 29.957031 71.085938 C 30.90625 70.941406 31.828125 70.703125 32.726562 70.371094 C 33.625 70.042969 34.484375 69.628906 35.300781 69.132812 C 36.121094 68.632812 36.878906 68.0625 37.585938 67.414062 L 42.257812 72.503906 L 46.933594 67.417969 C 47.636719 68.066406 48.398438 68.640625 49.214844 69.136719 C 50.035156 69.636719 50.894531 70.050781 51.792969 70.378906 C 52.691406 70.707031 53.613281 70.945312 54.5625 71.09375 C 55.507812 71.242188 56.460938 71.292969 57.417969 71.253906 C 58.375 71.214844 59.316406 71.082031 60.246094 70.855469 C 61.179688 70.628906 62.078125 70.3125 62.945312 69.910156 C 63.816406 69.507812 64.636719 69.023438 65.410156 68.457031 C 66.183594 67.894531 66.894531 67.257812 67.542969 66.550781 C 68.191406 65.847656 68.761719 65.085938 69.261719 64.269531 C 69.757812 63.449219 70.171875 62.589844 70.503906 61.691406 C 70.832031 60.792969 71.070312 59.871094 71.21875 58.921875 C 71.363281 57.976562 71.417969 57.023438 71.378906 56.070312 C 71.335938 55.113281 71.203125 54.167969 70.976562 53.238281 C 70.75 52.304688 70.4375 51.40625 70.035156 50.539062 C 69.628906 49.667969 69.144531 48.847656 68.582031 48.074219 C 68.015625 47.300781 67.382812 46.589844 66.675781 45.941406 Z M 27.679688 66.589844 C 27.03125 66.589844 26.390625 66.523438 25.753906 66.398438 C 25.117188 66.273438 24.5 66.085938 23.902344 65.835938 C 23.304688 65.589844 22.734375 65.285156 22.195312 64.925781 C 21.65625 64.566406 21.160156 64.15625 20.703125 63.699219 C 20.242188 63.238281 19.835938 62.742188 19.472656 62.203125 C 19.113281 61.664062 18.808594 61.097656 18.5625 60.496094 C 18.3125 59.898438 18.128906 59.28125 18 58.644531 C 17.875 58.011719 17.8125 57.367188 17.8125 56.722656 C 17.8125 56.074219 17.875 55.429688 18 54.796875 C 18.128906 54.160156 18.3125 53.542969 18.5625 52.945312 C 18.808594 52.347656 19.113281 51.777344 19.472656 51.238281 C 19.835938 50.699219 20.242188 50.203125 20.703125 49.742188 C 21.160156 49.285156 21.65625 48.875 22.195312 48.515625 C 22.734375 48.15625 23.304688 47.851562 23.902344 47.605469 C 24.5 47.355469 25.117188 47.167969 25.753906 47.042969 C 26.390625 46.917969 27.03125 46.855469 27.679688 46.855469 C 28.328125 46.855469 28.96875 46.917969 29.601562 47.042969 C 30.238281 47.167969 30.855469 47.355469 31.453125 47.605469 C 32.054688 47.851562 32.621094 48.15625 33.160156 48.515625 C 33.699219 48.875 34.199219 49.285156 34.65625 49.742188 C 35.113281 50.203125 35.523438 50.699219 35.882812 51.238281 C 36.242188 51.777344 36.546875 52.347656 36.792969 52.945312 C 37.042969 53.542969 37.230469 54.160156 37.355469 54.796875 C 37.484375 55.429688 37.546875 56.074219 37.546875 56.722656 C 37.546875 57.367188 37.484375 58.011719 37.355469 58.644531 C 37.230469 59.28125 37.042969 59.898438 36.792969 60.496094 C 36.546875 61.097656 36.242188 61.664062 35.882812 62.203125 C 35.523438 62.742188 35.113281 63.242188 34.65625 63.699219 C 34.199219 64.15625 33.699219 64.566406 33.160156 64.925781 C 32.621094 65.285156 32.050781 65.589844 31.453125 65.835938 C 30.855469 66.085938 30.238281 66.273438 29.601562 66.398438 C 28.96875 66.527344 28.324219 66.589844 27.675781 66.589844 Z M 42.261719 56.433594 C 42.261719 49.941406 37.542969 44.363281 31.308594 41.984375 C 33.042969 41.261719 34.832031 40.714844 36.675781 40.347656 C 38.519531 39.976562 40.378906 39.792969 42.257812 39.792969 C 44.136719 39.792969 46 39.976562 47.84375 40.347656 C 49.6875 40.714844 51.476562 41.261719 53.210938 41.984375 C 46.984375 44.371094 42.261719 49.941406 42.261719 56.433594 Z M 56.839844 66.589844 C 56.191406 66.589844 55.550781 66.523438 54.917969 66.398438 C 54.28125 66.273438 53.664062 66.085938 53.066406 65.835938 C 52.464844 65.589844 51.898438 65.285156 51.359375 64.925781 C 50.820312 64.566406 50.320312 64.15625 49.863281 63.699219 C 49.40625 63.238281 48.996094 62.742188 48.636719 62.203125 C 48.277344 61.664062 47.972656 61.097656 47.726562 60.496094 C 47.476562 59.898438 47.289062 59.28125 47.164062 58.644531 C 47.039062 58.011719 46.972656 57.367188 46.972656 56.722656 C 46.972656 56.074219 47.039062 55.429688 47.164062 54.796875 C 47.289062 54.160156 47.476562 53.542969 47.726562 52.945312 C 47.972656 52.347656 48.277344 51.777344 48.636719 51.238281 C 48.996094 50.699219 49.40625 50.203125 49.863281 49.742188 C 50.320312 49.285156 50.820312 48.875 51.359375 48.515625 C 51.898438 48.15625 52.464844 47.851562 53.066406 47.605469 C 53.664062 47.355469 54.28125 47.167969 54.917969 47.042969 C 55.550781 46.917969 56.191406 46.855469 56.839844 46.855469 C 57.488281 46.855469 58.128906 46.917969 58.765625 47.042969 C 59.402344 47.167969 60.019531 47.355469 60.617188 47.605469 C 61.214844 47.851562 61.785156 48.15625 62.324219 48.515625 C 62.863281 48.875 63.359375 49.285156 63.820312 49.742188 C 64.277344 50.203125 64.6875 50.699219 65.046875 51.238281 C 65.40625 51.777344 65.710938 52.347656 65.957031 52.945312 C 66.207031 53.542969 66.390625 54.160156 66.519531 54.796875 C 66.644531 55.429688 66.707031 56.074219 66.707031 56.722656 C 66.707031 57.367188 66.644531 58.011719 66.519531 58.644531 C 66.394531 59.28125 66.207031 59.898438 65.957031 60.496094 C 65.710938 61.09375 65.40625 61.664062 65.046875 62.203125 C 64.6875 62.742188 64.277344 63.238281 63.820312 63.699219 C 63.363281 64.15625 62.863281 64.566406 62.324219 64.925781 C 61.785156 65.285156 61.21875 65.589844 60.617188 65.835938 C 60.019531 66.085938 59.402344 66.273438 58.769531 66.398438 C 58.132812 66.523438 57.492188 66.589844 56.84375 66.589844 Z M 56.839844 51.546875 C 56.5 51.546875 56.164062 51.578125 55.832031 51.644531 C 55.5 51.710938 55.175781 51.808594 54.863281 51.941406 C 54.546875 52.070312 54.25 52.230469 53.96875 52.417969 C 53.683594 52.605469 53.421875 52.820312 53.183594 53.0625 C 52.945312 53.300781 52.730469 53.5625 52.539062 53.84375 C 52.351562 54.128906 52.191406 54.425781 52.0625 54.738281 C 51.933594 55.054688 51.835938 55.378906 51.769531 55.710938 C 51.703125 56.042969 51.667969 56.378906 51.667969 56.71875 C 51.667969 57.058594 51.703125 57.394531 51.769531 57.726562 C 51.835938 58.0625 51.933594 58.386719 52.0625 58.699219 C 52.191406 59.011719 52.351562 59.3125 52.539062 59.59375 C 52.730469 59.875 52.945312 60.136719 53.183594 60.375 C 53.421875 60.617188 53.683594 60.832031 53.96875 61.019531 C 54.25 61.207031 54.546875 61.367188 54.863281 61.5 C 55.175781 61.628906 55.5 61.726562 55.832031 61.792969 C 56.164062 61.859375 56.5 61.890625 56.839844 61.890625 C 57.179688 61.890625 57.515625 61.859375 57.851562 61.792969 C 58.183594 61.726562 58.507812 61.628906 58.820312 61.5 C 59.132812 61.367188 59.433594 61.207031 59.714844 61.019531 C 59.996094 60.832031 60.257812 60.617188 60.5 60.375 C 60.738281 60.136719 60.953125 59.875 61.140625 59.59375 C 61.332031 59.3125 61.492188 59.011719 61.621094 58.699219 C 61.75 58.386719 61.847656 58.0625 61.914062 57.726562 C 61.980469 57.394531 62.015625 57.058594 62.015625 56.71875 C 62.015625 56.378906 61.980469 56.042969 61.914062 55.710938 C 61.847656 55.375 61.75 55.054688 61.621094 54.738281 C 61.492188 54.425781 61.332031 54.125 61.144531 53.84375 C 60.957031 53.5625 60.742188 53.300781 60.5 53.058594 C 60.261719 52.820312 60 52.605469 59.71875 52.417969 C 59.433594 52.226562 59.136719 52.066406 58.824219 51.9375 C 58.507812 51.808594 58.1875 51.710938 57.851562 51.644531 C 57.519531 51.578125 57.183594 51.542969 56.84375 51.542969 Z M 32.847656 56.722656 C 32.847656 57.0625 32.8125 57.398438 32.75 57.730469 C 32.683594 58.066406 32.582031 58.390625 32.453125 58.703125 C 32.324219 59.015625 32.164062 59.3125 31.976562 59.597656 C 31.785156 59.878906 31.574219 60.140625 31.332031 60.378906 C 31.09375 60.621094 30.832031 60.835938 30.546875 61.023438 C 30.265625 61.210938 29.96875 61.371094 29.652344 61.5 C 29.339844 61.632812 29.015625 61.730469 28.683594 61.796875 C 28.351562 61.863281 28.015625 61.894531 27.675781 61.894531 C 27.335938 61.894531 27 61.863281 26.664062 61.796875 C 26.332031 61.730469 26.007812 61.632812 25.695312 61.5 C 25.382812 61.371094 25.082031 61.210938 24.800781 61.023438 C 24.519531 60.835938 24.257812 60.621094 24.015625 60.378906 C 23.777344 60.140625 23.5625 59.878906 23.375 59.597656 C 23.183594 59.3125 23.027344 59.015625 22.894531 58.703125 C 22.765625 58.390625 22.667969 58.066406 22.601562 57.730469 C 22.535156 57.398438 22.503906 57.0625 22.503906 56.722656 C 22.503906 56.382812 22.535156 56.046875 22.601562 55.714844 C 22.667969 55.378906 22.765625 55.058594 22.894531 54.742188 C 23.027344 54.429688 23.183594 54.132812 23.375 53.847656 C 23.5625 53.566406 23.777344 53.304688 24.015625 53.066406 C 24.257812 52.824219 24.519531 52.609375 24.800781 52.421875 C 25.082031 52.234375 25.382812 52.074219 25.695312 51.945312 C 26.007812 51.8125 26.332031 51.714844 26.664062 51.648438 C 27 51.582031 27.335938 51.550781 27.675781 51.550781 C 28.015625 51.550781 28.351562 51.582031 28.683594 51.648438 C 29.015625 51.714844 29.339844 51.8125 29.65625 51.941406 C 29.96875 52.070312 30.265625 52.230469 30.550781 52.417969 C 30.832031 52.609375 31.09375 52.824219 31.332031 53.0625 C 31.574219 53.304688 31.789062 53.5625 31.976562 53.847656 C 32.167969 54.128906 32.324219 54.425781 32.457031 54.742188 C 32.585938 55.054688 32.683594 55.378906 32.75 55.710938 C 32.816406 56.042969 32.851562 56.378906 32.851562 56.71875 Z M 32.847656 56.722656 " fill-opacity="1" fill-rule="nonzero"/></svg>