<svg xmlns="http://www.w3.org/2000/svg" xmlns:xlink="http://www.w3.org/1999/xlink" width="500" zoomAndPan="magnify" viewBox="0 0 375 106.499997" height="142" preserveAspectRatio="xMidYMid meet" version="1.0"><path fill="#000000" d="M 118.710938 45.867188 L 118.710938 40.808594 L 110.964844 40.808594 L 110.964844 70.914062 L 118.710938 70.914062 L 118.710938 52.863281 C 118.710938 49.59375 120.804688 47.988281 124.070312 47.988281 L 128.3125 47.988281 L 128.3125 40.808594 L 124.6875 40.808594 C 124.328125 40.789062 123.972656 40.804688 123.613281 40.851562 C 123.257812 40.902344 122.90625 40.984375 122.566406 41.097656 C 122.222656 41.214844 121.898438 41.359375 121.582031 41.535156 C 121.269531 41.714844 120.972656 41.917969 120.699219 42.152344 C 120.421875 42.382812 120.171875 42.640625 119.945312 42.921875 C 119.71875 43.203125 119.519531 43.5 119.351562 43.820312 C 119.179688 44.136719 119.042969 44.46875 118.933594 44.8125 C 118.828125 45.15625 118.753906 45.507812 118.710938 45.867188 Z M 135.570312 28.898438 C 135.257812 28.898438 134.953125 28.925781 134.648438 28.984375 C 134.34375 29.042969 134.050781 29.128906 133.761719 29.246094 C 133.476562 29.363281 133.203125 29.507812 132.945312 29.675781 C 132.6875 29.847656 132.445312 30.042969 132.226562 30.257812 C 132.007812 30.476562 131.808594 30.714844 131.636719 30.972656 C 131.460938 31.226562 131.316406 31.5 131.195312 31.785156 C 131.074219 32.070312 130.984375 32.363281 130.921875 32.667969 C 130.859375 32.972656 130.824219 33.277344 130.824219 33.589844 C 130.820312 33.898438 130.851562 34.207031 130.910156 34.507812 C 130.964844 34.8125 131.054688 35.109375 131.171875 35.398438 C 131.289062 35.683594 131.429688 35.957031 131.601562 36.214844 C 131.769531 36.472656 131.964844 36.714844 132.183594 36.933594 C 132.398438 37.15625 132.636719 37.351562 132.894531 37.527344 C 133.148438 37.699219 133.417969 37.847656 133.703125 37.96875 C 133.988281 38.089844 134.285156 38.179688 134.585938 38.242188 C 134.890625 38.304688 135.195312 38.335938 135.507812 38.339844 C 135.816406 38.339844 136.121094 38.3125 136.425781 38.253906 C 136.730469 38.195312 137.027344 38.109375 137.3125 37.992188 C 137.597656 37.875 137.871094 37.730469 138.128906 37.5625 C 138.390625 37.390625 138.628906 37.195312 138.847656 36.980469 C 139.070312 36.761719 139.265625 36.523438 139.441406 36.265625 C 139.613281 36.011719 139.761719 35.738281 139.878906 35.453125 C 140 35.167969 140.09375 34.875 140.15625 34.570312 C 140.21875 34.265625 140.25 33.960938 140.25 33.648438 C 140.257812 33.339844 140.230469 33.03125 140.175781 32.726562 C 140.121094 32.417969 140.035156 32.121094 139.921875 31.832031 C 139.804688 31.542969 139.664062 31.269531 139.492188 31.007812 C 139.324219 30.75 139.128906 30.507812 138.910156 30.285156 C 138.691406 30.066406 138.453125 29.867188 138.195312 29.695312 C 137.9375 29.519531 137.667969 29.375 137.378906 29.253906 C 137.09375 29.136719 136.796875 29.046875 136.492188 28.988281 C 136.1875 28.925781 135.878906 28.898438 135.570312 28.902344 Z M 131.707031 70.914062 L 139.4375 70.914062 L 139.4375 40.808594 L 131.707031 40.808594 Z M 176.261719 55.859375 C 176.261719 56.882812 176.160156 57.894531 175.960938 58.894531 C 175.761719 59.898438 175.46875 60.871094 175.078125 61.816406 C 174.6875 62.757812 174.210938 63.65625 173.640625 64.507812 C 173.074219 65.355469 172.429688 66.140625 171.710938 66.863281 C 170.988281 67.585938 170.203125 68.230469 169.355469 68.800781 C 168.507812 69.367188 167.609375 69.847656 166.667969 70.238281 C 165.726562 70.628906 164.753906 70.925781 163.753906 71.125 C 162.75 71.324219 161.742188 71.421875 160.71875 71.421875 C 159.074219 71.429688 157.46875 71.171875 155.90625 70.648438 C 154.347656 70.125 152.910156 69.363281 151.597656 68.367188 L 151.597656 79.75 L 143.867188 79.75 L 143.867188 40.808594 L 151.597656 40.808594 L 151.597656 43.355469 C 152.910156 42.355469 154.347656 41.597656 155.90625 41.074219 C 157.46875 40.550781 159.074219 40.292969 160.71875 40.300781 C 161.742188 40.300781 162.75 40.398438 163.753906 40.597656 C 164.753906 40.796875 165.722656 41.09375 166.667969 41.484375 C 167.609375 41.875 168.503906 42.355469 169.351562 42.921875 C 170.203125 43.492188 170.988281 44.136719 171.707031 44.859375 C 172.429688 45.582031 173.074219 46.367188 173.640625 47.214844 C 174.207031 48.066406 174.6875 48.960938 175.078125 49.90625 C 175.464844 50.851562 175.761719 51.824219 175.960938 52.824219 C 176.160156 53.828125 176.257812 54.839844 176.257812 55.859375 Z M 168.480469 55.859375 C 168.480469 55.304688 168.429688 54.753906 168.320312 54.210938 C 168.210938 53.667969 168.050781 53.136719 167.839844 52.625 C 167.628906 52.113281 167.367188 51.625 167.058594 51.164062 C 166.75 50.703125 166.402344 50.277344 166.007812 49.882812 C 165.617188 49.492188 165.191406 49.140625 164.730469 48.832031 C 164.269531 48.523438 163.78125 48.261719 163.269531 48.050781 C 162.757812 47.839844 162.230469 47.679688 161.6875 47.570312 C 161.144531 47.460938 160.59375 47.40625 160.039062 47.40625 C 159.484375 47.40625 158.9375 47.460938 158.394531 47.570312 C 157.847656 47.679688 157.320312 47.839844 156.808594 48.050781 C 156.296875 48.261719 155.8125 48.523438 155.351562 48.832031 C 154.890625 49.140625 154.460938 49.492188 154.070312 49.882812 C 153.679688 50.277344 153.328125 50.703125 153.019531 51.164062 C 152.710938 51.625 152.453125 52.113281 152.242188 52.625 C 152.027344 53.136719 151.867188 53.667969 151.761719 54.210938 C 151.652344 54.753906 151.597656 55.304688 151.597656 55.859375 C 151.597656 56.414062 151.652344 56.964844 151.761719 57.507812 C 151.867188 58.054688 152.027344 58.582031 152.242188 59.09375 C 152.453125 59.609375 152.710938 60.09375 153.019531 60.558594 C 153.328125 61.019531 153.679688 61.445312 154.070312 61.835938 C 154.460938 62.230469 154.890625 62.582031 155.351562 62.890625 C 155.8125 63.199219 156.296875 63.457031 156.808594 63.671875 C 157.320312 63.882812 157.847656 64.042969 158.394531 64.152344 C 158.9375 64.257812 159.484375 64.3125 160.039062 64.3125 C 160.59375 64.3125 161.144531 64.257812 161.6875 64.152344 C 162.230469 64.042969 162.757812 63.882812 163.269531 63.667969 C 163.78125 63.457031 164.269531 63.195312 164.726562 62.886719 C 165.1875 62.578125 165.617188 62.230469 166.007812 61.835938 C 166.398438 61.445312 166.75 61.015625 167.054688 60.554688 C 167.363281 60.09375 167.625 59.605469 167.835938 59.09375 C 168.046875 58.582031 168.207031 58.054688 168.316406 57.507812 C 168.425781 56.964844 168.480469 56.414062 168.480469 55.859375 Z M 310.625 53.21875 L 306.113281 51.980469 C 303.144531 51.207031 301.992188 50.296875 301.992188 48.726562 C 301.992188 47.195312 303.617188 46.125 305.941406 46.125 C 308.15625 46.125 309.890625 47.574219 309.890625 49.429688 L 309.890625 49.601562 L 317.015625 49.601562 L 317.015625 49.429688 C 317.015625 43.96875 312.570312 40.296875 305.941406 40.296875 C 299.382812 40.296875 294.613281 43.964844 294.613281 49.019531 C 294.613281 52.953125 297.214844 55.914062 301.757812 57.144531 L 306.078125 58.328125 C 309.359375 59.238281 310.578125 60.246094 310.578125 62.054688 C 310.578125 63.960938 308.8125 65.246094 306.191406 65.246094 C 303.457031 65.246094 301.613281 63.511719 301.613281 60.9375 L 301.613281 60.761719 L 294.050781 60.761719 L 294.050781 60.9375 C 294.050781 67.113281 299.019531 71.429688 306.128906 71.429688 C 312.980469 71.429688 317.957031 67.214844 317.957031 61.410156 C 317.957031 58.5625 316.6875 54.839844 310.621094 53.21875 Z M 203.683594 40.808594 L 211.414062 40.808594 L 211.414062 70.914062 L 203.683594 70.914062 L 203.683594 68.371094 C 202.371094 69.367188 200.9375 70.128906 199.375 70.652344 C 197.8125 71.175781 196.207031 71.433594 194.5625 71.425781 C 193.546875 71.417969 192.539062 71.3125 191.546875 71.105469 C 190.550781 70.902344 189.585938 70.601562 188.652344 70.207031 C 187.714844 69.8125 186.828125 69.332031 185.984375 68.761719 C 185.144531 68.191406 184.363281 67.546875 183.648438 66.824219 C 182.933594 66.105469 182.296875 65.320312 181.734375 64.472656 C 181.171875 63.625 180.699219 62.730469 180.3125 61.792969 C 179.925781 60.851562 179.632812 59.882812 179.4375 58.886719 C 179.238281 57.886719 179.140625 56.882812 179.140625 55.863281 C 179.140625 54.847656 179.238281 53.839844 179.4375 52.84375 C 179.632812 51.847656 179.925781 50.878906 180.3125 49.9375 C 180.699219 48.996094 181.171875 48.105469 181.734375 47.257812 C 182.296875 46.410156 182.933594 45.625 183.648438 44.902344 C 184.363281 44.183594 185.144531 43.535156 185.984375 42.96875 C 186.828125 42.398438 187.714844 41.917969 188.652344 41.523438 C 189.585938 41.128906 190.550781 40.828125 191.546875 40.621094 C 192.539062 40.417969 193.546875 40.3125 194.5625 40.304688 C 196.207031 40.296875 197.8125 40.554688 199.375 41.078125 C 200.9375 41.601562 202.371094 42.359375 203.683594 43.359375 Z M 203.683594 55.859375 C 203.683594 55.304688 203.628906 54.753906 203.519531 54.210938 C 203.414062 53.667969 203.253906 53.136719 203.039062 52.625 C 202.828125 52.113281 202.566406 51.625 202.261719 51.164062 C 201.953125 50.703125 201.601562 50.277344 201.210938 49.882812 C 200.820312 49.492188 200.390625 49.140625 199.929688 48.832031 C 199.46875 48.523438 198.984375 48.261719 198.472656 48.050781 C 197.960938 47.839844 197.429688 47.679688 196.886719 47.570312 C 196.34375 47.460938 195.796875 47.40625 195.242188 47.40625 C 194.6875 47.40625 194.136719 47.460938 193.59375 47.570312 C 193.050781 47.679688 192.523438 47.839844 192.011719 48.050781 C 191.5 48.261719 191.011719 48.523438 190.550781 48.832031 C 190.089844 49.140625 189.664062 49.492188 189.273438 49.882812 C 188.878906 50.277344 188.53125 50.703125 188.222656 51.164062 C 187.914062 51.625 187.652344 52.113281 187.441406 52.625 C 187.230469 53.136719 187.070312 53.667969 186.960938 54.210938 C 186.851562 54.753906 186.800781 55.304688 186.800781 55.859375 C 186.800781 56.414062 186.851562 56.964844 186.960938 57.507812 C 187.070312 58.054688 187.230469 58.582031 187.441406 59.09375 C 187.652344 59.609375 187.914062 60.09375 188.222656 60.558594 C 188.53125 61.019531 188.878906 61.445312 189.273438 61.835938 C 189.664062 62.230469 190.089844 62.582031 190.550781 62.890625 C 191.011719 63.199219 191.5 63.457031 192.011719 63.671875 C 192.523438 63.882812 193.050781 64.042969 193.59375 64.152344 C 194.136719 64.257812 194.6875 64.3125 195.242188 64.3125 C 195.796875 64.3125 196.34375 64.257812 196.886719 64.152344 C 197.433594 64.042969 197.960938 63.882812 198.472656 63.671875 C 198.984375 63.457031 199.46875 63.199219 199.929688 62.890625 C 200.390625 62.582031 200.820312 62.230469 201.210938 61.839844 C 201.601562 61.445312 201.953125 61.019531 202.261719 60.558594 C 202.570312 60.09375 202.828125 59.609375 203.039062 59.09375 C 203.253906 58.582031 203.414062 58.054688 203.519531 57.507812 C 203.628906 56.964844 203.683594 56.414062 203.683594 55.859375 Z M 239.328125 30.09375 L 247.058594 30.09375 L 247.058594 70.914062 L 239.332031 70.914062 L 239.332031 68.371094 C 238.023438 69.367188 236.585938 70.128906 235.023438 70.652344 C 233.460938 71.175781 231.859375 71.433594 230.210938 71.425781 C 229.699219 71.429688 229.1875 71.410156 228.679688 71.363281 C 228.171875 71.316406 227.664062 71.246094 227.160156 71.148438 C 226.660156 71.050781 226.164062 70.929688 225.671875 70.785156 C 225.183594 70.640625 224.699219 70.46875 224.226562 70.277344 C 223.753906 70.082031 223.289062 69.867188 222.835938 69.628906 C 222.386719 69.390625 221.945312 69.128906 221.519531 68.84375 C 221.09375 68.5625 220.679688 68.261719 220.285156 67.9375 C 219.886719 67.613281 219.507812 67.273438 219.144531 66.910156 C 218.78125 66.550781 218.4375 66.171875 218.109375 65.777344 C 217.785156 65.382812 217.480469 64.972656 217.195312 64.546875 C 216.90625 64.121094 216.644531 63.683594 216.402344 63.234375 C 216.160156 62.78125 215.941406 62.320312 215.742188 61.847656 C 215.546875 61.375 215.375 60.894531 215.226562 60.402344 C 215.074219 59.914062 214.949219 59.417969 214.851562 58.914062 C 214.75 58.414062 214.675781 57.90625 214.625 57.398438 C 214.574219 56.886719 214.550781 56.375 214.550781 55.863281 C 214.550781 55.351562 214.574219 54.839844 214.625 54.332031 C 214.675781 53.820312 214.75 53.316406 214.851562 52.8125 C 214.949219 52.3125 215.074219 51.816406 215.226562 51.324219 C 215.375 50.835938 215.546875 50.355469 215.742188 49.882812 C 215.941406 49.410156 216.160156 48.945312 216.402344 48.496094 C 216.644531 48.042969 216.90625 47.605469 217.195312 47.179688 C 217.480469 46.757812 217.785156 46.347656 218.109375 45.953125 C 218.4375 45.558594 218.78125 45.179688 219.144531 44.816406 C 219.507812 44.457031 219.886719 44.117188 220.285156 43.792969 C 220.679688 43.46875 221.09375 43.167969 221.519531 42.882812 C 221.945312 42.601562 222.386719 42.339844 222.835938 42.101562 C 223.289062 41.863281 223.753906 41.644531 224.226562 41.453125 C 224.699219 41.257812 225.183594 41.089844 225.671875 40.945312 C 226.164062 40.800781 226.660156 40.679688 227.160156 40.582031 C 227.664062 40.484375 228.171875 40.414062 228.679688 40.367188 C 229.1875 40.320312 229.699219 40.300781 230.210938 40.304688 C 231.859375 40.296875 233.460938 40.550781 235.023438 41.074219 C 236.585938 41.597656 238.023438 42.359375 239.332031 43.355469 Z M 239.328125 55.859375 C 239.328125 55.304688 239.273438 54.753906 239.164062 54.210938 C 239.058594 53.667969 238.898438 53.136719 238.683594 52.625 C 238.472656 52.113281 238.214844 51.625 237.90625 51.164062 C 237.597656 50.703125 237.246094 50.277344 236.855469 49.882812 C 236.464844 49.492188 236.035156 49.140625 235.574219 48.832031 C 235.113281 48.523438 234.628906 48.261719 234.117188 48.050781 C 233.605469 47.839844 233.078125 47.679688 232.53125 47.570312 C 231.988281 47.460938 231.441406 47.40625 230.886719 47.40625 C 230.332031 47.40625 229.78125 47.460938 229.238281 47.570312 C 228.695312 47.679688 228.167969 47.839844 227.65625 48.050781 C 227.144531 48.261719 226.65625 48.523438 226.195312 48.832031 C 225.734375 49.140625 225.308594 49.492188 224.917969 49.882812 C 224.523438 50.277344 224.175781 50.703125 223.867188 51.164062 C 223.558594 51.625 223.296875 52.113281 223.085938 52.625 C 222.875 53.136719 222.714844 53.667969 222.605469 54.210938 C 222.496094 54.753906 222.445312 55.304688 222.445312 55.859375 C 222.445312 56.414062 222.496094 56.964844 222.605469 57.507812 C 222.714844 58.054688 222.875 58.582031 223.085938 59.09375 C 223.296875 59.609375 223.558594 60.09375 223.867188 60.558594 C 224.175781 61.019531 224.523438 61.445312 224.917969 61.835938 C 225.308594 62.230469 225.734375 62.582031 226.195312 62.890625 C 226.65625 63.199219 227.144531 63.457031 227.65625 63.671875 C 228.167969 63.882812 228.695312 64.042969 229.238281 64.152344 C 229.78125 64.257812 230.332031 64.3125 230.886719 64.3125 C 231.441406 64.3125 231.988281 64.261719 232.535156 64.152344 C 233.078125 64.042969 233.605469 63.882812 234.117188 63.671875 C 234.628906 63.457031 235.117188 63.199219 235.578125 62.890625 C 236.039062 62.582031 236.464844 62.230469 236.859375 61.839844 C 237.25 61.445312 237.601562 61.019531 237.910156 60.558594 C 238.214844 60.097656 238.476562 59.609375 238.6875 59.097656 C 238.902344 58.582031 239.0625 58.054688 239.171875 57.511719 C 239.277344 56.964844 239.332031 56.414062 239.332031 55.859375 Z M 282.949219 70.914062 L 290.683594 70.914062 L 290.683594 40.808594 L 282.953125 40.808594 Z M 286.816406 28.902344 C 286.507812 28.898438 286.199219 28.925781 285.894531 28.984375 C 285.589844 29.042969 285.296875 29.132812 285.007812 29.25 C 284.722656 29.363281 284.449219 29.507812 284.191406 29.679688 C 283.933594 29.847656 283.695312 30.042969 283.472656 30.261719 C 283.253906 30.480469 283.054688 30.714844 282.882812 30.972656 C 282.710938 31.230469 282.5625 31.5 282.441406 31.785156 C 282.320312 32.070312 282.230469 32.367188 282.167969 32.667969 C 282.105469 32.972656 282.074219 33.28125 282.070312 33.589844 C 282.070312 33.898438 282.097656 34.207031 282.15625 34.511719 C 282.214844 34.816406 282.300781 35.109375 282.417969 35.398438 C 282.535156 35.683594 282.679688 35.957031 282.847656 36.21875 C 283.019531 36.476562 283.214844 36.714844 283.429688 36.9375 C 283.648438 37.15625 283.886719 37.355469 284.140625 37.527344 C 284.398438 37.703125 284.667969 37.847656 284.953125 37.96875 C 285.238281 38.089844 285.53125 38.179688 285.835938 38.242188 C 286.140625 38.304688 286.445312 38.339844 286.753906 38.339844 C 287.0625 38.34375 287.371094 38.3125 287.675781 38.253906 C 287.980469 38.195312 288.273438 38.109375 288.5625 37.992188 C 288.847656 37.875 289.121094 37.730469 289.378906 37.5625 C 289.636719 37.390625 289.875 37.195312 290.097656 36.980469 C 290.316406 36.761719 290.515625 36.523438 290.6875 36.269531 C 290.859375 36.011719 291.007812 35.742188 291.128906 35.453125 C 291.25 35.167969 291.339844 34.875 291.402344 34.570312 C 291.464844 34.269531 291.496094 33.960938 291.5 33.652344 C 291.503906 33.339844 291.480469 33.03125 291.425781 32.726562 C 291.367188 32.417969 291.28125 32.121094 291.167969 31.832031 C 291.054688 31.542969 290.910156 31.269531 290.742188 31.007812 C 290.570312 30.75 290.375 30.507812 290.15625 30.289062 C 289.941406 30.066406 289.703125 29.867188 289.445312 29.695312 C 289.1875 29.519531 288.914062 29.375 288.628906 29.253906 C 288.339844 29.136719 288.042969 29.046875 287.738281 28.988281 C 287.433594 28.925781 287.128906 28.898438 286.816406 28.902344 Z M 351.371094 55.859375 C 351.371094 56.882812 351.269531 57.894531 351.070312 58.894531 C 350.871094 59.898438 350.578125 60.871094 350.1875 61.816406 C 349.796875 62.761719 349.316406 63.65625 348.75 64.507812 C 348.183594 65.355469 347.539062 66.140625 346.816406 66.863281 C 346.097656 67.585938 345.3125 68.234375 344.464844 68.800781 C 343.613281 69.367188 342.71875 69.847656 341.777344 70.238281 C 340.832031 70.628906 339.863281 70.925781 338.859375 71.125 C 337.859375 71.324219 336.847656 71.421875 335.828125 71.421875 C 334.808594 71.421875 333.796875 71.324219 332.796875 71.125 C 331.796875 70.925781 330.824219 70.628906 329.882812 70.238281 C 328.9375 69.847656 328.042969 69.367188 327.195312 68.800781 C 326.34375 68.234375 325.5625 67.589844 324.839844 66.867188 C 324.117188 66.144531 323.472656 65.355469 322.90625 64.507812 C 322.339844 63.65625 321.859375 62.761719 321.46875 61.816406 C 321.078125 60.871094 320.785156 59.898438 320.585938 58.898438 C 320.386719 57.894531 320.285156 56.882812 320.285156 55.863281 C 320.285156 54.839844 320.386719 53.828125 320.585938 52.824219 C 320.785156 51.824219 321.078125 50.851562 321.46875 49.90625 C 321.859375 48.960938 322.339844 48.066406 322.90625 47.214844 C 323.472656 46.367188 324.117188 45.582031 324.839844 44.859375 C 325.558594 44.136719 326.34375 43.488281 327.195312 42.921875 C 328.042969 42.355469 328.9375 41.875 329.878906 41.484375 C 330.824219 41.09375 331.796875 40.796875 332.796875 40.597656 C 333.796875 40.398438 334.808594 40.300781 335.828125 40.300781 C 336.847656 40.300781 337.859375 40.398438 338.859375 40.597656 C 339.859375 40.796875 340.832031 41.09375 341.773438 41.484375 C 342.71875 41.875 343.613281 42.355469 344.460938 42.921875 C 345.3125 43.488281 346.097656 44.132812 346.816406 44.855469 C 347.539062 45.578125 348.183594 46.367188 348.75 47.214844 C 349.316406 48.066406 349.796875 48.960938 350.1875 49.90625 C 350.578125 50.847656 350.871094 51.824219 351.070312 52.824219 C 351.269531 53.828125 351.371094 54.839844 351.371094 55.859375 Z M 344.269531 55.859375 C 344.269531 55.304688 344.214844 54.753906 344.109375 54.210938 C 344 53.667969 343.839844 53.136719 343.628906 52.625 C 343.414062 52.113281 343.15625 51.625 342.847656 51.164062 C 342.539062 50.703125 342.1875 50.277344 341.796875 49.882812 C 341.40625 49.492188 340.980469 49.140625 340.519531 48.832031 C 340.058594 48.523438 339.570312 48.261719 339.058594 48.050781 C 338.546875 47.839844 338.019531 47.679688 337.476562 47.570312 C 336.929688 47.460938 336.382812 47.40625 335.828125 47.40625 C 335.273438 47.40625 334.726562 47.460938 334.179688 47.570312 C 333.636719 47.679688 333.109375 47.839844 332.597656 48.050781 C 332.085938 48.261719 331.597656 48.523438 331.136719 48.832031 C 330.675781 49.140625 330.25 49.492188 329.859375 49.882812 C 329.464844 50.277344 329.117188 50.703125 328.808594 51.164062 C 328.5 51.625 328.242188 52.113281 328.027344 52.625 C 327.816406 53.136719 327.65625 53.667969 327.546875 54.210938 C 327.441406 54.753906 327.386719 55.304688 327.386719 55.859375 C 327.386719 56.414062 327.441406 56.964844 327.546875 57.507812 C 327.65625 58.054688 327.816406 58.582031 328.027344 59.09375 C 328.242188 59.609375 328.5 60.09375 328.808594 60.558594 C 329.117188 61.019531 329.464844 61.445312 329.859375 61.835938 C 330.25 62.230469 330.675781 62.582031 331.136719 62.890625 C 331.597656 63.199219 332.085938 63.457031 332.597656 63.671875 C 333.109375 63.882812 333.636719 64.042969 334.179688 64.152344 C 334.726562 64.257812 335.273438 64.3125 335.828125 64.3125 C 336.382812 64.3125 336.929688 64.257812 337.472656 64.148438 C 338.019531 64.042969 338.546875 63.882812 339.058594 63.667969 C 339.570312 63.457031 340.054688 63.195312 340.515625 62.886719 C 340.976562 62.578125 341.402344 62.226562 341.792969 61.835938 C 342.1875 61.441406 342.535156 61.015625 342.84375 60.554688 C 343.152344 60.09375 343.410156 59.605469 343.625 59.09375 C 343.835938 58.582031 343.996094 58.054688 344.105469 57.507812 C 344.210938 56.964844 344.265625 56.414062 344.265625 55.859375 Z M 114.753906 30.09375 L 85.097656 30.09375 L 85.097656 37 L 96.074219 37 L 96.074219 70.914062 L 103.785156 70.914062 L 103.785156 37 L 114.761719 37 L 114.761719 30.09375 Z M 264.722656 62.667969 L 257.84375 40.808594 L 249.726562 40.808594 L 260.039062 70.914062 L 269.34375 70.914062 L 279.71875 40.808594 L 271.601562 40.808594 Z M 362.691406 45.867188 L 362.691406 40.808594 L 354.945312 40.808594 L 354.945312 70.914062 L 362.695312 70.914062 L 362.695312 52.863281 C 362.695312 49.59375 364.789062 47.988281 368.050781 47.988281 L 372.292969 47.988281 L 372.292969 40.808594 L 368.671875 40.808594 C 368.3125 40.789062 367.953125 40.804688 367.597656 40.851562 C 367.238281 40.902344 366.890625 40.984375 366.546875 41.097656 C 366.207031 41.214844 365.878906 41.359375 365.566406 41.539062 C 365.25 41.714844 364.957031 41.917969 364.683594 42.152344 C 364.40625 42.386719 364.15625 42.640625 363.929688 42.921875 C 363.703125 43.203125 363.503906 43.503906 363.335938 43.820312 C 363.164062 44.136719 363.027344 44.46875 362.917969 44.8125 C 362.808594 45.160156 362.734375 45.511719 362.695312 45.867188 Z M 362.691406 45.867188 " fill-opacity="1" fill-rule="nonzero"/><path fill="#34e0a1" d="M 81.777344 53.734375 C 81.777344 55.023438 81.714844 56.308594 81.589844 57.59375 C 81.460938 58.878906 81.273438 60.152344 81.019531 61.417969 C 80.765625 62.683594 80.453125 63.933594 80.078125 65.167969 C 79.699219 66.402344 79.265625 67.617188 78.769531 68.808594 C 78.273438 70 77.722656 71.164062 77.109375 72.300781 C 76.5 73.441406 75.835938 74.542969 75.117188 75.617188 C 74.394531 76.691406 73.625 77.726562 72.804688 78.722656 C 71.984375 79.71875 71.113281 80.675781 70.199219 81.585938 C 69.28125 82.5 68.324219 83.363281 67.324219 84.183594 C 66.324219 85 65.285156 85.769531 64.207031 86.484375 C 63.128906 87.203125 62.019531 87.863281 60.878906 88.472656 C 59.738281 89.082031 58.570312 89.632812 57.371094 90.125 C 56.175781 90.621094 54.957031 91.054688 53.71875 91.429688 C 52.480469 91.800781 51.226562 92.117188 49.957031 92.367188 C 48.683594 92.617188 47.40625 92.808594 46.117188 92.933594 C 44.828125 93.0625 43.535156 93.125 42.242188 93.125 C 40.945312 93.125 39.65625 93.0625 38.367188 92.933594 C 37.078125 92.808594 35.796875 92.617188 34.527344 92.367188 C 33.257812 92.117188 32.003906 91.800781 30.765625 91.429688 C 29.527344 91.054688 28.308594 90.621094 27.113281 90.125 C 25.914062 89.632812 24.746094 89.082031 23.605469 88.472656 C 22.460938 87.863281 21.351562 87.203125 20.277344 86.484375 C 19.199219 85.769531 18.160156 85 17.160156 84.183594 C 16.160156 83.363281 15.199219 82.5 14.285156 81.585938 C 13.371094 80.675781 12.5 79.71875 11.679688 78.722656 C 10.859375 77.726562 10.085938 76.691406 9.367188 75.617188 C 8.648438 74.542969 7.984375 73.441406 7.375 72.300781 C 6.761719 71.164062 6.210938 70 5.714844 68.808594 C 5.21875 67.617188 4.785156 66.402344 4.40625 65.167969 C 4.03125 63.933594 3.71875 62.683594 3.464844 61.417969 C 3.210938 60.152344 3.023438 58.878906 2.894531 57.59375 C 2.769531 56.308594 2.707031 55.023438 2.707031 53.734375 C 2.707031 52.441406 2.769531 51.15625 2.894531 49.871094 C 3.023438 48.589844 3.210938 47.3125 3.464844 46.046875 C 3.71875 44.78125 4.03125 43.53125 4.40625 42.296875 C 4.785156 41.0625 5.21875 39.851562 5.714844 38.660156 C 6.210938 37.464844 6.761719 36.300781 7.375 35.164062 C 7.984375 34.027344 8.648438 32.921875 9.367188 31.847656 C 10.085938 30.777344 10.859375 29.742188 11.679688 28.742188 C 12.5 27.746094 13.371094 26.792969 14.285156 25.878906 C 15.199219 24.96875 16.160156 24.101562 17.160156 23.285156 C 18.160156 22.464844 19.199219 21.695312 20.277344 20.980469 C 21.351562 20.265625 22.460938 19.601562 23.605469 18.992188 C 24.746094 18.386719 25.914062 17.835938 27.113281 17.339844 C 28.308594 16.847656 29.527344 16.414062 30.765625 16.039062 C 32.003906 15.664062 33.257812 15.351562 34.527344 15.097656 C 35.796875 14.847656 37.078125 14.65625 38.367188 14.53125 C 39.65625 14.40625 40.945312 14.34375 42.242188 14.34375 C 43.535156 14.34375 44.828125 14.40625 46.117188 14.53125 C 47.40625 14.65625 48.683594 14.847656 49.957031 15.097656 C 51.226562 15.351562 52.480469 15.664062 53.71875 16.039062 C 54.957031 16.414062 56.175781 16.847656 57.371094 17.339844 C 58.570312 17.835938 59.738281 18.386719 60.878906 18.992188 C 62.019531 19.601562 63.128906 20.265625 64.207031 20.980469 C 65.285156 21.695312 66.324219 22.464844 67.324219 23.285156 C 68.324219 24.101562 69.28125 24.96875 70.199219 25.878906 C 71.113281 26.792969 71.984375 27.746094 72.804688 28.742188 C 73.625 29.742188 74.394531 30.777344 75.117188 31.847656 C 75.835938 32.921875 76.5 34.027344 77.109375 35.164062 C 77.722656 36.300781 78.273438 37.464844 78.769531 38.660156 C 79.265625 39.851562 79.699219 41.0625 80.078125 42.296875 C 80.453125 43.53125 80.765625 44.78125 81.019531 46.046875 C 81.273438 47.3125 81.460938 48.589844 81.589844 49.871094 C 81.714844 51.15625 81.777344 52.441406 81.777344 53.734375 Z M 81.777344 53.734375 " fill-opacity="1" fill-rule="nonzero"/><path fill="#000000" d="M 66.664062 46.007812 L 71.433594 40.8125 L 60.855469 40.8125 C 59.492188 39.882812 58.066406 39.0625 56.582031 38.34375 C 55.09375 37.628906 53.5625 37.03125 51.988281 36.542969 C 50.414062 36.058594 48.808594 35.691406 47.179688 35.449219 C 45.550781 35.203125 43.910156 35.078125 42.261719 35.078125 C 40.613281 35.078125 38.972656 35.203125 37.34375 35.449219 C 35.710938 35.691406 34.109375 36.058594 32.535156 36.542969 C 30.957031 37.03125 29.425781 37.628906 27.941406 38.34375 C 26.457031 39.0625 25.03125 39.882812 23.667969 40.8125 L 13.058594 40.8125 L 17.832031 46.007812 C 17.125 46.65625 16.492188 47.367188 15.925781 48.144531 C 15.363281 48.917969 14.878906 49.738281 14.472656 50.609375 C 14.070312 51.476562 13.753906 52.378906 13.53125 53.3125 C 13.304688 54.242188 13.171875 55.1875 13.128906 56.144531 C 13.089844 57.101562 13.144531 58.054688 13.289062 59.003906 C 13.4375 59.949219 13.675781 60.875 14.003906 61.773438 C 14.332031 62.675781 14.746094 63.535156 15.246094 64.355469 C 15.742188 65.171875 16.316406 65.9375 16.964844 66.640625 C 17.613281 67.347656 18.320312 67.984375 19.09375 68.550781 C 19.867188 69.113281 20.6875 69.597656 21.558594 70.003906 C 22.425781 70.40625 23.324219 70.722656 24.257812 70.949219 C 25.1875 71.175781 26.128906 71.308594 27.085938 71.347656 C 28.042969 71.390625 28.996094 71.335938 29.941406 71.1875 C 30.886719 71.042969 31.808594 70.804688 32.710938 70.472656 C 33.609375 70.144531 34.46875 69.730469 35.285156 69.230469 C 36.101562 68.734375 36.863281 68.160156 37.570312 67.511719 L 42.242188 72.605469 L 46.917969 67.515625 C 47.621094 68.164062 48.382812 68.738281 49.203125 69.238281 C 50.019531 69.734375 50.878906 70.148438 51.777344 70.480469 C 52.675781 70.808594 53.601562 71.046875 54.546875 71.195312 C 55.492188 71.34375 56.445312 71.394531 57.402344 71.355469 C 58.359375 71.316406 59.304688 71.183594 60.234375 70.957031 C 61.164062 70.730469 62.0625 70.414062 62.933594 70.011719 C 63.800781 69.605469 64.621094 69.121094 65.394531 68.554688 C 66.167969 67.988281 66.878906 67.355469 67.527344 66.648438 C 68.175781 65.941406 68.75 65.179688 69.25 64.359375 C 69.746094 63.542969 70.160156 62.679688 70.488281 61.78125 C 70.820312 60.878906 71.058594 59.957031 71.203125 59.007812 C 71.351562 58.058594 71.40625 57.105469 71.363281 56.148438 C 71.324219 55.191406 71.191406 54.246094 70.964844 53.3125 C 70.738281 52.382812 70.425781 51.480469 70.019531 50.609375 C 69.617188 49.742188 69.132812 48.917969 68.566406 48.144531 C 68.003906 47.371094 67.367188 46.65625 66.664062 46.007812 Z M 27.660156 66.683594 C 27.011719 66.683594 26.371094 66.621094 25.734375 66.492188 C 25.101562 66.367188 24.484375 66.179688 23.882812 65.929688 C 23.285156 65.683594 22.71875 65.378906 22.179688 65.019531 C 21.640625 64.65625 21.140625 64.25 20.683594 63.789062 C 20.226562 63.332031 19.816406 62.832031 19.457031 62.292969 C 19.09375 61.753906 18.792969 61.183594 18.542969 60.582031 C 18.296875 59.984375 18.109375 59.367188 17.980469 58.730469 C 17.855469 58.09375 17.792969 57.453125 17.792969 56.800781 C 17.792969 56.152344 17.855469 55.511719 17.980469 54.875 C 18.109375 54.238281 18.296875 53.621094 18.542969 53.019531 C 18.792969 52.421875 19.09375 51.851562 19.457031 51.3125 C 19.816406 50.773438 20.226562 50.273438 20.683594 49.816406 C 21.140625 49.355469 21.640625 48.945312 22.179688 48.585938 C 22.71875 48.226562 23.285156 47.921875 23.882812 47.671875 C 24.484375 47.425781 25.101562 47.238281 25.734375 47.109375 C 26.371094 46.984375 27.011719 46.921875 27.660156 46.921875 C 28.308594 46.921875 28.949219 46.984375 29.585938 47.109375 C 30.222656 47.238281 30.839844 47.425781 31.4375 47.671875 C 32.035156 47.921875 32.605469 48.226562 33.144531 48.585938 C 33.683594 48.945312 34.179688 49.355469 34.640625 49.816406 C 35.097656 50.273438 35.507812 50.773438 35.867188 51.3125 C 36.226562 51.851562 36.53125 52.421875 36.777344 53.019531 C 37.027344 53.621094 37.214844 54.238281 37.339844 54.875 C 37.464844 55.511719 37.527344 56.152344 37.527344 56.800781 C 37.53125 57.453125 37.464844 58.09375 37.339844 58.730469 C 37.214844 59.367188 37.027344 59.984375 36.777344 60.585938 C 36.53125 61.183594 36.226562 61.753906 35.867188 62.292969 C 35.507812 62.832031 35.097656 63.332031 34.640625 63.789062 C 34.179688 64.25 33.683594 64.660156 33.144531 65.019531 C 32.605469 65.378906 32.035156 65.683594 31.4375 65.933594 C 30.839844 66.179688 30.222656 66.367188 29.585938 66.496094 C 28.949219 66.621094 28.308594 66.683594 27.660156 66.683594 Z M 42.246094 56.515625 C 42.246094 50.011719 37.527344 44.425781 31.289062 42.042969 C 33.023438 41.320312 34.816406 40.773438 36.65625 40.40625 C 38.5 40.035156 40.363281 39.851562 42.242188 39.851562 C 44.121094 39.851562 45.984375 40.035156 47.828125 40.40625 C 49.671875 40.773438 51.460938 41.320312 53.195312 42.042969 C 46.96875 44.433594 42.246094 50.011719 42.246094 56.515625 Z M 56.828125 66.683594 C 56.179688 66.683594 55.539062 66.621094 54.902344 66.492188 C 54.265625 66.367188 53.648438 66.179688 53.050781 65.929688 C 52.453125 65.683594 51.882812 65.378906 51.34375 65.019531 C 50.804688 64.65625 50.308594 64.25 49.847656 63.789062 C 49.390625 63.332031 48.980469 62.832031 48.621094 62.292969 C 48.261719 61.753906 47.957031 61.183594 47.710938 60.582031 C 47.460938 59.984375 47.273438 59.367188 47.148438 58.730469 C 47.023438 58.09375 46.957031 57.453125 46.957031 56.800781 C 46.957031 56.152344 47.023438 55.511719 47.148438 54.875 C 47.273438 54.238281 47.460938 53.621094 47.710938 53.019531 C 47.957031 52.421875 48.261719 51.851562 48.621094 51.3125 C 48.980469 50.773438 49.390625 50.273438 49.847656 49.816406 C 50.308594 49.355469 50.804688 48.945312 51.34375 48.585938 C 51.882812 48.226562 52.453125 47.921875 53.050781 47.671875 C 53.648438 47.425781 54.265625 47.238281 54.902344 47.109375 C 55.539062 46.984375 56.179688 46.921875 56.828125 46.921875 C 57.476562 46.921875 58.117188 46.984375 58.753906 47.109375 C 59.386719 47.238281 60.003906 47.425781 60.601562 47.671875 C 61.203125 47.921875 61.769531 48.226562 62.308594 48.585938 C 62.847656 48.945312 63.347656 49.355469 63.804688 49.816406 C 64.261719 50.273438 64.671875 50.773438 65.03125 51.3125 C 65.390625 51.851562 65.695312 52.421875 65.945312 53.019531 C 66.191406 53.621094 66.378906 54.238281 66.503906 54.875 C 66.632812 55.511719 66.695312 56.152344 66.695312 56.800781 C 66.695312 57.449219 66.632812 58.09375 66.503906 58.730469 C 66.378906 59.367188 66.191406 59.984375 65.945312 60.582031 C 65.695312 61.183594 65.394531 61.753906 65.03125 62.292969 C 64.671875 62.832031 64.265625 63.332031 63.804688 63.789062 C 63.347656 64.246094 62.847656 64.65625 62.3125 65.019531 C 61.773438 65.378906 61.203125 65.683594 60.605469 65.929688 C 60.007812 66.179688 59.390625 66.367188 58.753906 66.492188 C 58.117188 66.621094 57.476562 66.683594 56.828125 66.683594 Z M 56.828125 51.621094 C 56.488281 51.621094 56.152344 51.652344 55.816406 51.71875 C 55.484375 51.785156 55.160156 51.882812 54.847656 52.015625 C 54.535156 52.144531 54.234375 52.304688 53.953125 52.492188 C 53.671875 52.683594 53.410156 52.898438 53.167969 53.136719 C 52.929688 53.378906 52.714844 53.640625 52.523438 53.921875 C 52.335938 54.207031 52.175781 54.503906 52.046875 54.816406 C 51.917969 55.132812 51.820312 55.457031 51.753906 55.789062 C 51.6875 56.125 51.652344 56.460938 51.652344 56.800781 C 51.652344 57.140625 51.6875 57.476562 51.753906 57.8125 C 51.820312 58.144531 51.917969 58.46875 52.046875 58.78125 C 52.175781 59.097656 52.335938 59.394531 52.523438 59.679688 C 52.714844 59.960938 52.929688 60.222656 53.167969 60.464844 C 53.410156 60.703125 53.671875 60.917969 53.953125 61.109375 C 54.234375 61.296875 54.535156 61.457031 54.847656 61.585938 C 55.160156 61.714844 55.484375 61.816406 55.816406 61.882812 C 56.152344 61.949219 56.488281 61.980469 56.828125 61.980469 C 57.167969 61.980469 57.503906 61.949219 57.835938 61.882812 C 58.167969 61.816406 58.492188 61.714844 58.804688 61.585938 C 59.121094 61.457031 59.417969 61.296875 59.699219 61.109375 C 59.984375 60.917969 60.246094 60.703125 60.484375 60.464844 C 60.726562 60.222656 60.941406 59.960938 61.128906 59.679688 C 61.316406 59.394531 61.476562 59.097656 61.605469 58.78125 C 61.738281 58.46875 61.835938 58.144531 61.902344 57.8125 C 61.96875 57.476562 62 57.140625 62 56.800781 C 62 56.460938 61.96875 56.125 61.902344 55.789062 C 61.835938 55.457031 61.738281 55.132812 61.609375 54.816406 C 61.476562 54.503906 61.320312 54.203125 61.128906 53.921875 C 60.941406 53.636719 60.726562 53.375 60.488281 53.136719 C 60.246094 52.894531 59.984375 52.679688 59.703125 52.492188 C 59.421875 52.300781 59.121094 52.140625 58.808594 52.011719 C 58.496094 51.882812 58.171875 51.785156 57.839844 51.71875 C 57.503906 51.652344 57.167969 51.617188 56.828125 51.617188 Z M 32.832031 56.804688 C 32.832031 57.144531 32.796875 57.480469 32.730469 57.816406 C 32.664062 58.148438 32.566406 58.472656 32.4375 58.785156 C 32.308594 59.101562 32.148438 59.398438 31.957031 59.683594 C 31.769531 59.964844 31.554688 60.226562 31.316406 60.46875 C 31.074219 60.707031 30.8125 60.921875 30.53125 61.113281 C 30.25 61.300781 29.949219 61.460938 29.636719 61.589844 C 29.324219 61.71875 29 61.820312 28.667969 61.886719 C 28.332031 61.953125 27.996094 61.984375 27.65625 61.984375 C 27.316406 61.984375 26.980469 61.953125 26.648438 61.886719 C 26.316406 61.820312 25.992188 61.71875 25.675781 61.589844 C 25.363281 61.460938 25.066406 61.300781 24.78125 61.113281 C 24.5 60.921875 24.238281 60.707031 24 60.46875 C 23.757812 60.226562 23.542969 59.964844 23.355469 59.683594 C 23.167969 59.398438 23.007812 59.101562 22.878906 58.785156 C 22.746094 58.472656 22.648438 58.148438 22.582031 57.816406 C 22.515625 57.480469 22.484375 57.144531 22.484375 56.804688 C 22.484375 56.464844 22.515625 56.128906 22.582031 55.792969 C 22.648438 55.460938 22.746094 55.136719 22.878906 54.820312 C 23.007812 54.507812 23.167969 54.210938 23.355469 53.925781 C 23.542969 53.644531 23.757812 53.382812 24 53.140625 C 24.238281 52.902344 24.5 52.6875 24.78125 52.496094 C 25.066406 52.308594 25.363281 52.148438 25.675781 52.019531 C 25.992188 51.886719 26.316406 51.789062 26.648438 51.722656 C 26.980469 51.65625 27.316406 51.625 27.65625 51.625 C 27.996094 51.625 28.332031 51.65625 28.667969 51.722656 C 29 51.789062 29.324219 51.886719 29.636719 52.015625 C 29.953125 52.148438 30.25 52.304688 30.53125 52.496094 C 30.816406 52.683594 31.078125 52.898438 31.316406 53.140625 C 31.558594 53.378906 31.773438 53.640625 31.960938 53.921875 C 32.148438 54.207031 32.308594 54.503906 32.4375 54.820312 C 32.570312 55.132812 32.667969 55.457031 32.734375 55.789062 C 32.800781 56.125 32.832031 56.460938 32.832031 56.800781 Z M 32.832031 56.804688 " fill-opacity="1" fill-rule="nonzero"/></svg>