<svg xmlns="http://www.w3.org/2000/svg" xmlns:xlink="http://www.w3.org/1999/xlink" width="500" zoomAndPan="magnify" viewBox="0 0 375 374.999991" height="500" preserveAspectRatio="xMidYMid meet" version="1.0"><defs><clipPath id="6a6e60c849"><path d="M 0 92.8125 L 375 92.8125 L 375 282.5625 L 0 282.5625 Z M 0 92.8125 " clip-rule="nonzero"/></clipPath></defs><g clip-path="url(#6a6e60c849)"><path fill="#a87f59" d="M 130.292969 244.511719 C 128.277344 244.53125 126.351562 244.550781 124.542969 244.558594 C 121.484375 244.578125 118.761719 244.59375 116.386719 244.59375 C 108.835938 244.613281 104.902344 244.550781 102.839844 244.394531 C 99.175781 244.121094 98.464844 243.273438 97.789062 242.09375 C 97.742188 242.011719 97.699219 241.921875 97.660156 241.839844 C 97.324219 241.171875 97.121094 240.433594 97.023438 239.28125 C 96.957031 238.542969 96.929688 237.28125 96.894531 235.265625 C 96.867188 233.410156 96.832031 230.863281 96.867188 228.097656 C 96.894531 225.21875 96.984375 222.160156 97.203125 219.503906 C 97.421875 216.671875 97.789062 214.070312 98.382812 211.632812 C 98.992188 209.113281 99.851562 206.8125 101.046875 204.695312 C 102.328125 202.4375 103.960938 200.394531 106.800781 198.511719 C 109.429688 196.777344 113.082031 195.214844 118.515625 193.808594 C 121.59375 193.015625 125.28125 192.257812 129.21875 191.535156 C 129.371094 191.5 129.535156 191.460938 129.703125 191.453125 L 130.292969 191.34375 L 130.292969 119.914062 C 130.292969 117.765625 129.417969 115.8125 128.003906 114.398438 C 126.585938 112.984375 124.632812 112.105469 122.488281 112.105469 L 14.3125 112.105469 C 12.167969 112.105469 10.214844 112.984375 8.800781 114.398438 C 7.382812 115.8125 6.507812 117.765625 6.507812 119.914062 L 6.507812 228.277344 L 44.136719 228.277344 C 46.273438 228.277344 48.207031 229.144531 49.613281 230.550781 L 49.625 230.5625 L 49.632812 230.550781 C 51.039062 231.957031 51.90625 233.902344 51.90625 236.050781 L 51.90625 275.785156 L 122.488281 275.785156 C 124.632812 275.785156 126.585938 274.910156 128.003906 273.484375 C 129.417969 272.070312 130.292969 270.117188 130.292969 267.980469 Z M 34.730469 130.351562 L 34.566406 130.351562 C 34.183594 130.351562 33.871094 130.660156 33.871094 131.042969 L 33.871094 135.683594 C 33.871094 136.066406 34.183594 136.375 34.566406 136.375 L 34.96875 136.375 C 36.28125 136.375 37.277344 136.101562 37.972656 135.582031 C 38.667969 135.050781 39.003906 134.285156 39.003906 133.300781 C 39.003906 132.257812 38.675781 131.507812 38 131.042969 C 37.332031 130.578125 36.238281 130.351562 34.730469 130.351562 Z M 28.832031 147.453125 L 28.832031 127.070312 C 28.832031 126.699219 29.144531 126.386719 29.527344 126.386719 L 34.429688 126.386719 C 36.21875 126.386719 37.605469 126.503906 38.59375 126.734375 C 39.589844 126.972656 40.457031 127.363281 41.222656 127.910156 C 42.027344 128.496094 42.65625 129.207031 43.105469 130.066406 C 43.550781 130.925781 43.769531 131.820312 43.769531 132.769531 C 43.769531 134.148438 43.421875 135.34375 42.730469 136.375 C 42.152344 137.207031 41.386719 137.902344 40.410156 138.441406 C 40.226562 138.539062 40.117188 138.695312 40.074219 138.894531 C 40.027344 139.097656 40.0625 139.28125 40.183594 139.445312 L 45.578125 147.050781 C 45.734375 147.269531 45.75 147.535156 45.625 147.769531 C 45.503906 148.007812 45.277344 148.144531 45.011719 148.144531 L 40.785156 148.144531 C 40.546875 148.144531 40.347656 148.035156 40.21875 147.84375 L 34.613281 139.597656 L 34.566406 139.597656 C 34.183594 139.597656 33.871094 139.910156 33.871094 140.292969 L 33.871094 147.453125 C 33.871094 147.835938 33.5625 148.144531 33.1875 148.144531 L 29.527344 148.144531 C 29.144531 148.144531 28.832031 147.835938 28.832031 147.453125 Z M 48.417969 147.453125 L 48.417969 127.070312 C 48.417969 126.699219 48.726562 126.386719 49.101562 126.386719 L 61.128906 126.386719 C 61.503906 126.386719 61.8125 126.699219 61.8125 127.070312 L 61.8125 130.175781 C 61.8125 130.558594 61.503906 130.871094 61.128906 130.871094 L 54.152344 130.871094 C 53.769531 130.871094 53.457031 131.179688 53.457031 131.5625 L 53.457031 134.113281 C 53.457031 134.496094 53.769531 134.804688 54.152344 134.804688 L 59.921875 134.804688 C 60.304688 134.804688 60.617188 135.117188 60.617188 135.5 L 60.617188 138.566406 C 60.617188 138.949219 60.304688 139.261719 59.921875 139.261719 L 54.152344 139.261719 C 53.769531 139.261719 53.457031 139.570312 53.457031 139.957031 L 53.457031 142.867188 C 53.457031 143.25 53.769531 143.5625 54.152344 143.5625 L 61.246094 143.5625 C 61.628906 143.5625 61.941406 143.871094 61.941406 144.257812 L 61.941406 147.453125 C 61.941406 147.835938 61.628906 148.144531 61.246094 148.144531 L 49.101562 148.144531 C 48.726562 148.144531 48.417969 147.835938 48.417969 147.453125 Z M 65.894531 147.453125 L 65.894531 125.675781 L 66.121094 125.675781 C 66.304688 125.675781 66.460938 125.738281 66.597656 125.867188 L 78.777344 137.28125 C 78.988281 137.480469 79.269531 137.527344 79.527344 137.417969 C 79.78125 137.296875 79.945312 137.0625 79.945312 136.777344 L 79.945312 127.070312 C 79.945312 126.699219 80.257812 126.386719 80.632812 126.386719 L 84.046875 126.386719 C 84.429688 126.386719 84.742188 126.699219 84.742188 127.070312 L 84.742188 148.976562 L 84.558594 148.976562 C 84.375 148.976562 84.21875 148.914062 84.082031 148.785156 L 71.855469 137.363281 C 71.648438 137.171875 71.363281 137.117188 71.109375 137.234375 C 70.851562 137.34375 70.6875 137.582031 70.6875 137.863281 L 70.6875 147.453125 C 70.6875 147.835938 70.378906 148.144531 70.003906 148.144531 L 66.589844 148.144531 C 66.203125 148.144531 65.894531 147.835938 65.894531 147.453125 Z M 94.136719 147.453125 L 94.136719 131.617188 C 94.136719 131.246094 93.824219 130.933594 93.441406 130.933594 L 87.910156 130.933594 C 87.535156 130.933594 87.222656 130.625 87.222656 130.238281 L 87.222656 127.070312 C 87.222656 126.699219 87.535156 126.386719 87.910156 126.386719 L 105.523438 126.386719 C 105.90625 126.386719 106.214844 126.699219 106.214844 127.070312 L 106.214844 130.238281 C 106.214844 130.625 105.90625 130.933594 105.523438 130.933594 L 100.027344 130.933594 C 99.640625 130.933594 99.332031 131.246094 99.332031 131.617188 L 99.332031 147.453125 C 99.332031 147.835938 99.023438 148.144531 98.636719 148.144531 L 94.832031 148.144531 C 94.445312 148.144531 94.136719 147.835938 94.136719 147.453125 Z M 42.335938 105.734375 L 42.335938 101.304688 C 42.335938 98.964844 43.296875 96.839844 44.828125 95.304688 C 44.902344 95.230469 44.976562 95.167969 45.058594 95.105469 C 46.582031 93.679688 48.609375 92.8125 50.835938 92.8125 L 84.949219 92.8125 C 87.289062 92.8125 89.40625 93.769531 90.949219 95.304688 C 92.484375 96.839844 93.441406 98.964844 93.441406 101.304688 L 93.441406 105.734375 L 122.488281 105.734375 C 126.394531 105.734375 129.9375 107.332031 132.503906 109.894531 C 135.078125 112.460938 136.667969 116.015625 136.667969 119.914062 L 136.667969 190.257812 C 139.800781 189.753906 142.941406 189.261719 145.945312 188.796875 C 149.46875 188.257812 152.800781 187.738281 156.28125 187.144531 C 161.386719 186.265625 164.902344 185.492188 167.496094 184.75 C 169.941406 184.046875 171.492188 183.390625 172.78125 182.714844 C 174.042969 182.058594 175.0625 181.375 176.203125 180.339844 C 177.445312 179.21875 178.90625 177.621094 180.988281 175.210938 L 182.988281 172.855469 C 187.28125 167.804688 193.007812 161.058594 198.21875 156.964844 C 201.488281 154.402344 204.511719 152.894531 208.566406 151.925781 C 212.390625 151.003906 217.011719 150.609375 223.6875 150.238281 C 234.257812 149.644531 250.558594 149.078125 263.203125 148.640625 L 273.90625 148.265625 C 284.6875 147.871094 288.871094 147.726562 292.707031 148.457031 C 294.972656 148.886719 297.023438 149.597656 299.363281 150.929688 C 301.554688 152.183594 303.964844 153.960938 307.042969 156.59375 C 309.441406 158.644531 312.15625 161.121094 314.929688 163.648438 C 319.1875 167.53125 323.605469 171.558594 326.828125 174.03125 C 329.265625 175.914062 330.984375 176.878906 332.5625 177.375 C 334.132812 177.859375 335.796875 177.929688 337.996094 177.96875 C 339.539062 177.996094 341.246094 178.011719 343.019531 178.023438 L 343.035156 178.023438 C 347.253906 178.058594 351.839844 178.09375 354.796875 178.304688 C 357.351562 178.488281 359.089844 178.816406 360.429688 179.484375 C 362.246094 180.378906 363.160156 181.609375 363.808594 183.417969 C 364.273438 184.714844 364.546875 186.292969 364.8125 187.835938 C 365.023438 189.023438 365.222656 190.195312 365.46875 190.898438 C 365.582031 191.242188 365.671875 191.40625 365.734375 191.460938 C 365.808594 191.527344 366.027344 191.582031 366.3125 191.644531 C 366.628906 191.710938 366.902344 191.753906 367.167969 191.800781 C 368.804688 192.066406 370.527344 192.359375 372.0625 193.71875 C 373.113281 194.648438 373.808594 195.882812 374.234375 197.71875 C 374.546875 199.042969 374.710938 200.765625 374.792969 203.132812 C 374.867188 205.121094 374.875 207.644531 374.847656 210.261719 C 374.820312 213.367188 374.738281 216.546875 374.636719 219.101562 C 374.539062 221.839844 374.402344 224.03125 373.367188 226.25 C 372.292969 228.535156 370.429688 230.433594 366.96875 232.242188 C 361.308594 235.199219 350.878906 238.121094 344.878906 239.792969 L 344.480469 239.910156 C 344.488281 240.292969 344.496094 240.667969 344.496094 241.0625 C 344.496094 248.292969 341.566406 254.847656 336.816406 259.597656 C 332.078125 264.335938 325.523438 267.277344 318.28125 267.277344 C 311.042969 267.277344 304.496094 264.335938 299.746094 259.597656 C 295.34375 255.195312 292.503906 249.242188 292.113281 242.632812 C 271.304688 242.90625 244.175781 243.226562 218.746094 243.519531 L 183.8125 243.929688 C 183.144531 250.019531 180.394531 255.488281 176.289062 259.597656 C 171.539062 264.335938 164.992188 267.277344 157.75 267.277344 C 150.511719 267.277344 143.953125 264.335938 139.214844 259.597656 C 138.292969 258.675781 137.445312 257.6875 136.667969 256.648438 L 136.667969 267.980469 C 136.667969 271.878906 135.078125 275.421875 132.503906 277.996094 C 129.9375 280.5625 126.394531 282.160156 122.488281 282.160156 L 48.527344 282.160156 C 47.542969 282.160156 46.65625 281.703125 46.070312 280.992188 L 1.539062 234.105469 C 0.691406 233.527344 0.132812 232.5625 0.132812 231.464844 L 0.132812 119.914062 C 0.132812 116.015625 1.730469 112.460938 4.296875 109.894531 C 6.863281 107.332031 10.414062 105.734375 14.3125 105.734375 Z M 87.070312 105.734375 L 87.070312 101.304688 C 87.070312 100.730469 86.832031 100.199219 86.4375 99.808594 C 86.054688 99.421875 85.527344 99.1875 84.949219 99.1875 L 50.835938 99.1875 C 50.300781 99.1875 49.816406 99.378906 49.441406 99.695312 L 49.339844 99.808594 C 48.949219 100.199219 48.710938 100.730469 48.710938 101.304688 L 48.710938 105.734375 Z M 10.816406 234.644531 L 45.53125 271.203125 L 45.53125 236.050781 C 45.53125 235.664062 45.378906 235.320312 45.121094 235.0625 L 45.132812 235.054688 C 44.875 234.808594 44.527344 234.644531 44.136719 234.644531 Z M 134.304688 197.085938 C 134.121094 197.132812 133.9375 197.167969 133.746094 197.179688 L 132.542969 197.390625 C 131.964844 199.460938 131.410156 201.589844 130.96875 203.964844 C 130.886719 204.417969 130.742188 205.25 130.605469 206.082031 C 130.09375 209.078125 129.574219 212.199219 128.40625 214.574219 C 127.527344 216.363281 126.367188 217.632812 124.652344 218.5625 L 124.449219 218.671875 C 122.898438 219.476562 121.007812 219.933594 118.488281 220.234375 C 114.753906 220.683594 109.238281 220.828125 103.476562 220.929688 C 103.3125 223.355469 103.238281 225.859375 103.210938 228.140625 C 103.183594 230.835938 103.210938 233.335938 103.238281 235.164062 C 103.257812 236.40625 103.285156 237.316406 103.320312 238.046875 C 105.394531 238.203125 109.191406 238.269531 116.386719 238.25 C 118.734375 238.25 121.445312 238.230469 124.515625 238.214844 C 126.714844 238.195312 129.109375 238.175781 131.691406 238.160156 C 132.359375 232.078125 135.105469 226.625 139.214844 222.515625 C 143.953125 217.777344 150.511719 214.839844 157.75 214.839844 C 164.992188 214.839844 171.539062 217.777344 176.289062 222.515625 C 180.257812 226.488281 182.960938 231.730469 183.738281 237.582031 L 218.691406 237.171875 C 244.238281 236.878906 271.503906 236.558594 292.503906 236.277344 C 293.484375 230.953125 296.074219 226.195312 299.746094 222.515625 C 304.496094 217.777344 311.042969 214.839844 318.28125 214.839844 C 325.523438 214.839844 332.078125 217.777344 336.816406 222.515625 C 339.867188 225.566406 342.167969 229.355469 343.429688 233.601562 C 349.246094 231.96875 359.089844 229.191406 364.027344 226.617188 C 366.109375 225.53125 367.140625 224.582031 367.617188 223.558594 C 368.136719 222.460938 368.21875 220.882812 368.292969 218.875 C 368.390625 216.28125 368.472656 213.15625 368.5 210.207031 C 368.527344 207.714844 368.511719 205.304688 368.445312 203.359375 C 368.375 201.425781 368.253906 200.074219 368.035156 199.132812 C 367.9375 198.703125 367.871094 198.511719 367.828125 198.464844 C 367.660156 198.320312 366.886719 198.191406 366.144531 198.074219 C 365.734375 198 365.316406 197.9375 364.996094 197.863281 C 363.84375 197.617188 362.796875 197.25 361.800781 196.464844 C 360.796875 195.671875 360 194.578125 359.445312 192.941406 C 359.042969 191.746094 358.796875 190.339844 358.550781 188.90625 C 358.328125 187.65625 358.101562 186.375 357.808594 185.5625 C 357.726562 185.335938 357.671875 185.207031 357.617188 185.179688 C 357.097656 184.925781 356.074219 184.769531 354.347656 184.652344 C 351.335938 184.441406 346.988281 184.40625 342.980469 184.367188 C 341.144531 184.359375 339.382812 184.339844 337.894531 184.3125 C 335.136719 184.269531 333.027344 184.167969 330.699219 183.445312 C 328.371094 182.722656 326.042969 181.445312 322.9375 179.0625 C 319.449219 176.371094 314.96875 172.289062 310.648438 168.351562 C 307.84375 165.796875 305.105469 163.304688 302.90625 161.421875 C 300.140625 159.058594 298.039062 157.496094 296.230469 156.453125 C 294.558594 155.503906 293.117188 155.003906 291.539062 154.703125 C 288.359375 154.097656 284.386719 154.234375 274.132812 154.609375 L 263.40625 154.984375 C 250.921875 155.414062 234.851562 155.972656 224.042969 156.582031 C 217.6875 156.9375 213.347656 157.296875 210.035156 158.097656 C 206.957031 158.828125 204.648438 159.988281 202.128906 161.96875 C 197.460938 165.621094 191.964844 172.105469 187.835938 176.964844 C 187.199219 177.722656 186.570312 178.460938 185.8125 179.347656 C 183.601562 181.921875 181.964844 183.675781 180.460938 185.042969 C 178.84375 186.503906 177.445312 187.445312 175.75 188.339844 C 174.085938 189.214844 172.152344 190.039062 169.238281 190.871094 C 166.460938 191.664062 162.726562 192.496094 157.359375 193.40625 C 154.785156 193.855469 150.96875 194.441406 146.921875 195.070312 C 142.832031 195.699219 138.484375 196.375 134.304688 197.085938 Z M 157.75 228.371094 C 161.238281 228.371094 164.40625 229.792969 166.707031 232.085938 L 166.71875 232.105469 C 169.019531 234.394531 170.433594 237.566406 170.433594 241.0625 C 170.433594 244.550781 169.019531 247.71875 166.71875 250.019531 L 166.707031 250.027344 C 164.40625 252.320312 161.238281 253.746094 157.75 253.746094 C 154.253906 253.746094 151.085938 252.320312 148.792969 250.027344 L 148.777344 250.019531 C 146.484375 247.71875 145.070312 244.550781 145.070312 241.0625 C 145.070312 237.566406 146.484375 234.394531 148.777344 232.105469 L 148.792969 232.085938 C 151.085938 229.792969 154.253906 228.371094 157.75 228.371094 Z M 162.214844 236.585938 C 161.074219 235.445312 159.496094 234.742188 157.75 234.742188 C 156 234.742188 154.417969 235.445312 153.277344 236.585938 C 152.136719 237.730469 151.433594 239.308594 151.433594 241.0625 C 151.433594 242.804688 152.136719 244.386719 153.277344 245.527344 C 154.417969 246.667969 156 247.371094 157.75 247.371094 C 159.496094 247.371094 161.074219 246.667969 162.214844 245.527344 C 163.359375 244.386719 164.0625 242.804688 164.0625 241.0625 C 164.0625 239.308594 163.359375 237.730469 162.214844 236.585938 Z M 318.28125 228.371094 C 321.777344 228.371094 324.949219 229.792969 327.238281 232.085938 L 327.257812 232.105469 C 329.550781 234.394531 330.964844 237.566406 330.964844 241.0625 C 330.964844 244.550781 329.550781 247.71875 327.257812 250.019531 L 327.238281 250.027344 C 324.949219 252.320312 321.777344 253.746094 318.28125 253.746094 C 314.792969 253.746094 311.625 252.320312 309.324219 250.027344 L 309.316406 250.019531 C 307.015625 247.71875 305.597656 244.550781 305.597656 241.0625 C 305.597656 237.566406 307.015625 234.394531 309.316406 232.105469 L 309.324219 232.085938 C 311.625 229.792969 314.792969 228.371094 318.28125 228.371094 Z M 322.757812 236.585938 C 321.613281 235.445312 320.035156 234.742188 318.28125 234.742188 C 316.539062 234.742188 314.957031 235.445312 313.816406 236.585938 C 312.675781 237.730469 311.972656 239.308594 311.972656 241.0625 C 311.972656 242.804688 312.675781 244.386719 313.816406 245.527344 C 314.957031 246.667969 316.539062 247.371094 318.28125 247.371094 C 320.035156 247.371094 321.613281 246.667969 322.757812 245.527344 C 323.898438 244.386719 324.601562 242.804688 324.601562 241.0625 C 324.601562 239.308594 323.898438 237.730469 322.757812 236.585938 Z M 332.316406 227.027344 C 328.726562 223.4375 323.761719 221.210938 318.28125 221.210938 C 312.804688 221.210938 307.84375 223.4375 304.246094 227.027344 C 300.660156 230.617188 298.441406 235.574219 298.441406 241.0625 C 298.441406 246.539062 300.660156 251.5 304.246094 255.085938 C 307.84375 258.683594 312.804688 260.902344 318.28125 260.902344 C 323.761719 260.902344 328.726562 258.683594 332.316406 255.085938 C 335.90625 251.5 338.132812 246.539062 338.132812 241.0625 C 338.132812 235.574219 335.90625 230.617188 332.316406 227.027344 Z M 171.785156 227.027344 C 168.1875 223.4375 163.230469 221.210938 157.75 221.210938 C 152.273438 221.210938 147.304688 223.4375 143.71875 227.027344 C 140.128906 230.617188 137.910156 235.574219 137.910156 241.0625 C 137.910156 246.539062 140.128906 251.5 143.71875 255.085938 C 147.304688 258.683594 152.273438 260.902344 157.75 260.902344 C 163.230469 260.902344 168.1875 258.683594 171.785156 255.085938 C 175.375 251.5 177.59375 246.539062 177.59375 241.0625 C 177.59375 235.574219 175.375 230.617188 171.785156 227.027344 Z M 218.0625 217.550781 C 216.316406 217.523438 214.910156 216.089844 214.929688 214.335938 C 214.949219 212.582031 216.390625 211.175781 218.144531 211.203125 L 239.253906 211.476562 C 241.007812 211.496094 242.414062 212.9375 242.394531 214.691406 C 242.367188 216.445312 240.933594 217.84375 239.179688 217.824219 Z M 125.609375 198.695312 C 123.628906 199.105469 121.765625 199.523438 120.105469 199.953125 C 115.429688 201.167969 112.390625 202.4375 110.316406 203.808594 C 108.460938 205.03125 107.402344 206.363281 106.574219 207.824219 C 105.679688 209.414062 105.03125 211.175781 104.554688 213.121094 C 104.4375 213.585938 104.335938 214.070312 104.234375 214.5625 C 109.429688 214.472656 114.335938 214.316406 117.75 213.914062 C 119.519531 213.695312 120.742188 213.433594 121.539062 213.03125 L 121.65625 212.964844 C 122.113281 212.710938 122.441406 212.328125 122.707031 211.777344 C 123.445312 210.273438 123.894531 207.605469 124.332031 205.039062 C 124.441406 204.390625 124.542969 203.761719 124.726562 202.820312 C 125 201.324219 125.300781 199.964844 125.609375 198.695312 Z M 256.65625 158.554688 C 257.316406 156.9375 259.167969 156.152344 260.785156 156.820312 C 262.410156 157.476562 263.1875 159.320312 262.527344 160.949219 L 249.828125 191.964844 L 279.785156 192.457031 C 289.097656 192.605469 293.875 192.6875 296.433594 192.332031 C 297.808594 192.136719 298.140625 191.710938 298.679688 190.859375 C 300.6875 187.710938 304.484375 180.972656 308.292969 174.222656 L 308.320312 174.167969 C 309.179688 172.636719 311.113281 172.097656 312.648438 172.953125 C 314.183594 173.8125 314.730469 175.75 313.871094 177.28125 L 313.84375 177.328125 C 310.074219 184.019531 306.300781 190.703125 304.039062 194.273438 C 302.429688 196.796875 301.445312 198.054688 297.300781 198.621094 C 294.324219 199.042969 289.363281 198.960938 279.695312 198.804688 L 185.746094 197.269531 C 183.992188 197.242188 182.597656 195.800781 182.625 194.046875 C 182.652344 192.292969 184.09375 190.898438 185.847656 190.925781 L 243.023438 191.855469 Z M 103.320312 238.933594 C 103.433594 239.125 103.394531 239.0625 103.332031 238.90625 C 103.320312 238.90625 103.304688 238.90625 103.304688 238.90625 Z M 103.320312 238.933594 " fill-opacity="1" fill-rule="nonzero"/></g></svg>