<svg xmlns="http://www.w3.org/2000/svg" xmlns:xlink="http://www.w3.org/1999/xlink" width="500" zoomAndPan="magnify" viewBox="0 0 375 374.999991" height="500" preserveAspectRatio="xMidYMid meet" version="1.0"><defs><clipPath id="6f77905830"><path d="M 0 95.859375 L 375 95.859375 L 375 278.859375 L 0 278.859375 Z M 0 95.859375 " clip-rule="nonzero"/></clipPath></defs><path fill="#a87f59" d="M 226.488281 166 C 227.0625 165.554688 227.632812 164.957031 228.175781 164.203125 C 228.734375 163.453125 229.011719 162.832031 229.011719 162.339844 C 229.011719 161.652344 228.882812 161.085938 228.617188 160.636719 C 228.355469 160.191406 228.039062 159.972656 227.664062 159.972656 C 226.984375 159.972656 226.402344 160.09375 225.929688 160.339844 C 225.441406 160.585938 225.039062 160.902344 224.71875 161.292969 C 224.402344 161.683594 224.140625 162.132812 223.945312 162.628906 C 223.75 163.128906 223.511719 163.746094 223.253906 164.480469 C 223 165.21875 222.851562 165.824219 222.820312 166.300781 C 222.789062 166.773438 222.773438 167.183594 222.773438 167.519531 C 223.339844 167.519531 223.960938 167.375 224.621094 167.09375 C 225.300781 166.808594 225.914062 166.445312 226.488281 166 " fill-opacity="1" fill-rule="nonzero"/><g clip-path="url(#6f77905830)"><path fill="#a87f59" d="M 308.28125 176.359375 C 297.324219 166.082031 279.5 166.082031 268.535156 176.359375 L 265.296875 173.316406 C 278.042969 161.359375 298.78125 161.363281 311.523438 173.316406 Z M 302.191406 182.4375 C 294.707031 175.414062 282.523438 175.414062 275.023438 182.4375 L 271.78125 179.398438 C 281.058594 170.695312 296.15625 170.695312 305.4375 179.398438 Z M 297.039062 200.816406 C 297.039062 205.273438 293.875 209.015625 288.109375 209.015625 C 282.988281 209.015625 279.332031 204.714844 279.332031 200.816406 C 279.332031 197.074219 282.429688 192.527344 288.109375 192.527344 C 293.714844 192.527344 297.039062 197.074219 297.039062 200.816406 Z M 296.519531 188.84375 C 294.457031 186.90625 291.714844 185.851562 288.816406 185.851562 C 285.910156 185.851562 283.167969 186.90625 281.105469 188.84375 L 277.867188 185.800781 C 280.789062 183.054688 284.683594 181.542969 288.816406 181.542969 C 292.953125 181.542969 296.835938 183.054688 299.765625 185.800781 Z M 299.796875 253.265625 L 277.066406 253.265625 L 277.066406 242.632812 L 280.476562 242.632812 L 280.476562 223.222656 L 277.066406 223.222656 L 277.066406 212.667969 L 295.898438 212.667969 L 295.898438 242.632812 L 299.796875 242.632812 Z M 273.820312 214.457031 L 259.453125 214.457031 L 259.453125 207.226562 L 247.179688 207.226562 L 247.179688 221.351562 L 262.613281 221.351562 L 262.613281 232.15625 L 247.179688 232.15625 L 247.179688 242.46875 L 255.46875 242.46875 L 255.46875 253.265625 L 225.269531 253.265625 L 225.269531 242.46875 L 230.300781 242.46875 L 230.300781 207.226562 L 225.269531 207.226562 L 225.269531 196.507812 L 273.820312 196.507812 Z M 219.320312 175.71875 C 219.046875 175.375 218.792969 174.988281 218.566406 174.597656 C 218.457031 174.679688 218.359375 174.765625 218.242188 174.855469 C 217.566406 175.335938 216.847656 175.816406 216.070312 176.28125 C 215.289062 176.753906 214.476562 177.167969 213.617188 177.523438 C 212.761719 177.886719 211.878906 178.1875 210.964844 178.398438 C 210.035156 178.617188 209.113281 178.730469 208.167969 178.730469 C 206.703125 178.730469 205.417969 178.453125 204.324219 177.910156 C 203.222656 177.367188 202.308594 176.632812 201.574219 175.71875 C 200.84375 174.808594 200.300781 173.738281 199.929688 172.535156 C 199.789062 172.070312 199.683594 171.589844 199.597656 171.105469 C 199.132812 171.316406 198.652344 171.503906 198.164062 171.65625 C 197.527344 171.851562 196.882812 171.949219 196.226562 171.949219 C 195.054688 171.949219 194.101562 171.710938 193.375 171.230469 C 192.652344 170.753906 192.085938 170.128906 191.660156 169.347656 C 191.234375 168.574219 190.917969 167.703125 190.722656 166.738281 C 190.507812 165.769531 190.351562 164.796875 190.226562 163.808594 L 189.847656 163.808594 L 185.632812 175.554688 C 185.414062 176.160156 185.207031 176.664062 185.011719 177.066406 C 184.8125 177.46875 184.617188 177.792969 184.414062 178.042969 C 184.207031 178.296875 183.996094 178.476562 183.75 178.570312 C 183.515625 178.675781 183.253906 178.730469 182.980469 178.730469 C 182.332031 178.730469 181.8125 178.59375 181.425781 178.3125 C 181.035156 178.042969 180.726562 177.675781 180.511719 177.210938 C 180.308594 176.753906 180.167969 176.222656 180.089844 175.632812 C 180.023438 175.042969 179.984375 174.4375 179.984375 173.808594 C 179.984375 173.117188 180.023438 172.316406 180.105469 171.394531 C 180.183594 170.476562 180.292969 169.511719 180.425781 168.492188 C 180.554688 167.46875 180.710938 166.433594 180.890625 165.371094 C 181.074219 164.3125 181.308594 163.183594 181.585938 161.984375 C 181.695312 161.523438 181.796875 161.101562 181.890625 160.703125 C 181.285156 160.726562 180.542969 160.753906 179.671875 160.78125 C 178.796875 160.8125 177.828125 160.84375 176.78125 160.882812 C 175.722656 160.914062 174.707031 160.953125 173.730469 160.984375 C 172.746094 161.015625 171.863281 161.042969 171.078125 161.066406 C 170.289062 161.085938 169.730469 161.101562 169.398438 161.101562 C 169.046875 162.984375 168.699219 164.8125 168.375 166.574219 C 168.042969 168.335938 167.613281 169.980469 167.058594 171.511719 C 166.523438 173.039062 165.886719 174.433594 165.144531 175.6875 C 164.40625 176.949219 163.53125 178.019531 162.507812 178.917969 C 161.492188 179.808594 160.308594 180.5 158.980469 180.996094 C 157.648438 181.492188 156.121094 181.738281 154.386719 181.738281 C 154.03125 181.738281 153.597656 181.714844 153.101562 181.675781 C 152.597656 181.621094 152.070312 181.550781 151.519531 181.429688 C 150.96875 181.328125 150.433594 181.179688 149.890625 180.996094 C 149.34375 180.816406 148.863281 180.597656 148.441406 180.328125 C 148.015625 180.058594 147.667969 179.753906 147.40625 179.398438 C 147.140625 179.042969 147.007812 178.644531 147.007812 178.1875 C 147.007812 177.949219 147.054688 177.640625 147.15625 177.257812 C 147.257812 176.871094 147.414062 176.5 147.628906 176.136719 C 147.839844 175.777344 148.109375 175.46875 148.425781 175.199219 C 148.746094 174.933594 149.140625 174.800781 149.597656 174.800781 C 150.109375 174.800781 150.652344 174.886719 151.226562 175.058594 C 151.804688 175.230469 152.394531 175.421875 153.007812 175.632812 C 153.613281 175.847656 154.246094 176.035156 154.882812 176.207031 C 155.511719 176.382812 156.160156 176.46875 156.8125 176.46875 C 157.332031 176.46875 157.835938 176.265625 158.332031 175.847656 C 158.828125 175.429688 159.292969 174.863281 159.71875 174.128906 C 160.160156 173.398438 160.578125 172.546875 160.972656 171.5625 C 161.375 170.582031 161.742188 169.523438 162.089844 168.386719 C 162.445312 167.253906 162.757812 166.0625 163.035156 164.824219 C 163.320312 163.582031 163.601562 162.34375 163.894531 161.105469 L 160.957031 161.101562 C 160.6875 161.101562 160.355469 161.074219 159.964844 161.011719 C 159.570312 160.953125 159.183594 160.855469 158.820312 160.710938 C 158.449219 160.570312 158.144531 160.378906 157.882812 160.144531 C 157.632812 159.90625 157.503906 159.609375 157.503906 159.253906 C 157.503906 159 157.585938 158.765625 157.71875 158.546875 C 157.859375 158.320312 158.105469 158.160156 158.433594 158.058594 C 159.316406 157.878906 160.089844 157.726562 160.757812 157.589844 C 161.414062 157.457031 162.003906 157.34375 162.515625 157.25 C 163.035156 157.152344 163.484375 157.070312 163.878906 156.992188 C 164.273438 156.917969 164.640625 156.859375 164.964844 156.816406 C 165.351562 154.96875 165.640625 153.417969 165.871094 152.164062 C 166.089844 150.914062 166.28125 149.789062 166.4375 148.785156 C 166.59375 147.785156 166.746094 146.84375 166.886719 145.957031 C 167.027344 145.070312 167.195312 144.117188 167.382812 143.097656 C 166.003906 143.492188 164.808594 143.960938 163.792969 144.511719 C 162.773438 145.058594 161.941406 145.648438 161.269531 146.277344 C 160.609375 146.902344 160.113281 147.554688 159.796875 148.226562 C 159.484375 148.902344 159.324219 149.566406 159.324219 150.203125 C 159.324219 150.234375 159.316406 150.347656 159.300781 150.53125 C 159.285156 150.726562 159.199219 150.929688 159.042969 151.144531 C 158.890625 151.363281 158.640625 151.5625 158.285156 151.734375 C 157.9375 151.90625 157.425781 151.992188 156.765625 151.992188 C 155.867188 151.992188 155.167969 151.941406 154.65625 151.839844 C 154.148438 151.742188 153.78125 151.605469 153.535156 151.429688 C 153.300781 151.253906 153.148438 151.054688 153.09375 150.832031 C 153.039062 150.613281 153.015625 150.382812 153.015625 150.15625 C 153.015625 147.808594 153.597656 145.796875 154.773438 144.121094 C 155.953125 142.445312 157.601562 141.074219 159.71875 140.003906 C 161.839844 138.933594 164.375 138.144531 167.34375 137.640625 C 170.304688 137.132812 173.582031 136.886719 177.164062 136.886719 C 179.535156 136.886719 182.042969 137 184.671875 137.226562 C 187.304688 137.460938 190.011719 137.699219 192.816406 137.945312 C 193.613281 138.164062 194.164062 138.476562 194.472656 138.882812 C 194.777344 139.292969 194.925781 139.726562 194.925781 140.179688 C 194.925781 140.476562 194.886719 140.789062 194.800781 141.121094 C 194.714844 141.453125 194.589844 141.753906 194.414062 142.039062 C 194.242188 142.320312 194.015625 142.550781 193.714844 142.730469 C 193.421875 142.910156 193.109375 143.003906 192.746094 143.003906 C 192.707031 143.003906 192.652344 143.003906 192.589844 142.992188 C 192.507812 142.988281 192.4375 142.984375 192.359375 142.976562 C 191.320312 142.898438 190.195312 142.8125 188.988281 142.714844 C 187.792969 142.621094 186.53125 142.523438 185.222656 142.421875 C 183.917969 142.320312 182.5625 142.253906 181.160156 142.214844 C 179.757812 142.175781 178.332031 142.15625 176.898438 142.15625 C 176.472656 142.15625 175.96875 142.175781 175.371094 142.214844 C 174.769531 142.25 174.195312 142.296875 173.644531 142.347656 C 173.015625 142.398438 172.351562 142.464844 171.675781 142.539062 C 171.675781 142.679688 171.660156 142.839844 171.628906 143.015625 C 171.597656 143.199219 171.558594 143.480469 171.503906 143.875 C 171.449219 144.265625 171.351562 144.785156 171.234375 145.429688 C 171.117188 146.078125 171.007812 146.855469 170.917969 147.769531 C 170.824219 148.683594 170.683594 149.832031 170.496094 151.214844 C 170.304688 152.597656 170.132812 154.332031 169.972656 156.417969 L 182.988281 156.417969 C 183.058594 156.417969 183.113281 156.433594 183.167969 156.4375 C 183.214844 156.347656 183.261719 156.253906 183.300781 156.183594 C 183.429688 155.976562 183.578125 155.816406 183.742188 155.699219 C 183.910156 155.582031 184.113281 155.503906 184.347656 155.464844 C 184.59375 155.425781 184.902344 155.40625 185.253906 155.40625 C 185.664062 155.40625 185.988281 155.425781 186.207031 155.464844 C 186.4375 155.503906 186.609375 155.597656 186.71875 155.746094 C 186.832031 155.894531 186.894531 156.113281 186.917969 156.394531 C 186.941406 156.675781 186.949219 157.058594 186.949219 157.550781 C 186.949219 158.128906 186.917969 158.949219 186.839844 160.019531 C 186.75 161.085938 186.734375 162.019531 186.765625 162.820312 L 187.019531 162.820312 C 187.335938 162.191406 187.726562 161.367188 188.199219 160.347656 C 188.664062 159.328125 189.160156 158.480469 189.691406 157.808594 C 190.203125 157.132812 190.785156 156.5625 191.445312 156.101562 C 192.109375 155.640625 192.863281 155.40625 193.730469 155.40625 C 194.03125 155.40625 194.3125 155.457031 194.605469 155.558594 C 194.878906 155.660156 195.132812 155.804688 195.34375 155.992188 C 195.558594 156.183594 195.730469 156.414062 195.847656 156.6875 C 195.976562 156.960938 196.039062 157.273438 196.039062 157.617188 C 196.039062 157.882812 196 158.257812 195.921875 158.734375 C 195.839844 159.214844 195.714844 159.839844 195.542969 160.605469 C 195.367188 161.378906 195.25 162.007812 195.164062 162.5 C 195.09375 162.996094 195.054688 163.40625 195.054688 163.738281 C 195.054688 164.304688 195.101562 164.773438 195.210938 165.148438 C 195.320312 165.523438 195.472656 165.824219 195.652344 166.054688 C 195.824219 166.28125 196.039062 166.441406 196.257812 166.535156 C 196.488281 166.632812 196.722656 166.679688 196.984375 166.679688 C 197.683594 166.679688 198.417969 166.519531 199.171875 166.207031 C 199.386719 166.113281 199.597656 166.011719 199.804688 165.914062 C 199.820312 165.820312 199.84375 165.734375 199.875 165.636719 C 200.195312 164.4375 200.535156 163.375 200.890625 162.445312 C 201.238281 161.515625 201.679688 160.628906 202.214844 159.785156 C 202.75 158.941406 203.363281 158.195312 204.074219 157.554688 C 204.78125 156.914062 205.578125 156.402344 206.460938 156.023438 C 207.339844 155.640625 208.316406 155.449219 209.398438 155.449219 C 210.277344 155.449219 211.089844 155.59375 211.847656 155.875 C 212.601562 156.160156 213.257812 156.550781 213.816406 157.058594 C 214.375 157.574219 214.808594 158.191406 215.125 158.90625 C 215.429688 159.628906 215.597656 160.433594 215.597656 161.328125 C 215.597656 162.277344 215.273438 163.347656 214.636719 164.527344 C 213.996094 165.710938 213.257812 166.722656 212.40625 167.5625 C 211.5625 168.410156 210.554688 169.160156 209.382812 169.820312 C 208.207031 170.480469 206.941406 170.996094 205.570312 171.359375 C 205.804688 171.777344 206.042969 172.121094 206.269531 172.398438 C 206.492188 172.675781 206.726562 172.890625 206.964844 173.039062 C 207.207031 173.199219 207.445312 173.300781 207.703125 173.363281 C 207.964844 173.425781 208.246094 173.457031 208.546875 173.457031 C 209.492188 173.457031 210.476562 173.273438 211.523438 172.902344 C 212.5625 172.535156 213.578125 172.074219 214.570312 171.519531 C 215.484375 171.011719 216.351562 170.453125 217.171875 169.851562 C 217.148438 169.488281 217.125 169.117188 217.125 168.738281 C 217.125 167.871094 217.289062 166.839844 217.621094 165.636719 C 217.941406 164.4375 218.28125 163.375 218.628906 162.445312 C 218.984375 161.515625 219.425781 160.628906 219.953125 159.785156 C 220.488281 158.941406 221.109375 158.195312 221.820312 157.554688 C 222.527344 156.914062 223.332031 156.402344 224.207031 156.023438 C 225.085938 155.640625 226.0625 155.449219 227.144531 155.449219 C 228.023438 155.449219 228.835938 155.59375 229.585938 155.875 C 230.339844 156.160156 231.003906 156.550781 231.5625 157.058594 C 232.113281 157.574219 232.554688 158.191406 232.871094 158.90625 C 233.183594 159.628906 233.34375 160.433594 233.34375 161.328125 C 233.34375 162.277344 233.019531 163.347656 232.382812 164.527344 C 231.75 165.710938 231.003906 166.722656 230.152344 167.5625 C 229.300781 168.410156 228.300781 169.160156 227.121094 169.820312 C 225.953125 170.480469 224.679688 170.996094 223.324219 171.359375 C 223.550781 171.777344 223.789062 172.121094 224.007812 172.398438 C 224.246094 172.675781 224.472656 172.890625 224.703125 173.039062 C 224.945312 173.199219 225.199219 173.300781 225.457031 173.363281 C 225.71875 173.425781 225.992188 173.457031 226.292969 173.457031 C 227.238281 173.457031 228.222656 173.273438 229.269531 172.902344 C 230.308594 172.535156 231.324219 172.074219 232.308594 171.519531 C 233.300781 170.96875 234.238281 170.367188 235.113281 169.71875 C 235.53125 169.414062 235.902344 169.113281 236.265625 168.824219 C 236.878906 168.316406 238.035156 168.554688 238.871094 169.40625 C 239.707031 170.257812 239.492188 171.921875 238.289062 173.003906 C 237.539062 173.664062 236.777344 174.277344 235.988281 174.855469 C 235.3125 175.335938 234.59375 175.816406 233.808594 176.28125 C 233.035156 176.753906 232.214844 177.167969 231.363281 177.523438 C 230.515625 177.886719 229.617188 178.1875 228.703125 178.398438 C 227.789062 178.617188 226.851562 178.730469 225.914062 178.730469 C 224.441406 178.730469 223.164062 178.453125 222.070312 177.910156 C 220.976562 177.367188 220.054688 176.632812 219.320312 175.71875 Z M 219.257812 239.300781 L 195.714844 239.300781 L 195.714844 228.492188 L 219.257812 228.492188 Z M 169.40625 200.816406 C 169.40625 197.074219 172.496094 192.527344 178.175781 192.527344 C 183.773438 192.527344 187.105469 197.074219 187.105469 200.816406 C 187.105469 205.273438 183.941406 209.015625 178.175781 209.015625 C 173.0625 209.015625 169.40625 204.714844 169.40625 200.816406 Z M 189.863281 253.265625 L 167.132812 253.265625 L 167.132812 242.632812 L 170.542969 242.632812 L 170.542969 223.222656 L 167.132812 223.222656 L 167.132812 212.667969 L 185.972656 212.667969 L 185.972656 242.632812 L 189.863281 242.632812 Z M 165.917969 207.0625 L 161.453125 207.0625 L 149.351562 253.265625 L 130.109375 253.265625 L 125.234375 233.9375 C 124.503906 231.179688 123.613281 226.390625 123.210938 223.871094 L 122.878906 223.871094 C 122.558594 226.304688 121.5 231.425781 120.933594 233.777344 L 115.980469 253.265625 L 97.148438 253.265625 L 86.425781 207.0625 L 81.882812 207.0625 L 81.882812 196.507812 L 108.671875 196.507812 L 108.671875 207.0625 L 103.960938 207.0625 L 106.070312 218.914062 C 106.96875 222.816406 108.347656 232.480469 108.671875 234.914062 L 109.082031 234.914062 C 109.246094 232.644531 111.433594 222.492188 113.058594 214.78125 L 117.113281 196.507812 L 134.011719 196.507812 L 139.121094 218.914062 C 140.265625 224.191406 141.152344 230.855469 141.554688 234.914062 L 141.964844 234.914062 C 142.289062 231.257812 143.667969 222.816406 144.398438 219.402344 L 147.164062 207.0625 L 142.699219 207.0625 L 142.699219 196.507812 L 165.917969 196.507812 Z M 303.585938 137.164062 C 290.976562 137.164062 279.136719 140.46875 268.875 146.238281 C 256.222656 116.617188 226.835938 95.855469 192.589844 95.855469 C 151.496094 95.855469 117.40625 125.761719 110.835938 164.984375 C 104.984375 162.640625 98.621094 161.316406 91.933594 161.316406 C 64.613281 161.316406 42.394531 182.839844 41.136719 209.84375 C 39.25 209.519531 37.320312 209.320312 35.34375 209.320312 C 16.0625 209.320312 0.429688 224.949219 0.429688 244.230469 C 0.429688 263.511719 16.0625 279.140625 35.34375 279.140625 C 35.6875 279.140625 36.019531 279.101562 36.359375 279.09375 L 36.359375 279.140625 L 308.53125 279.140625 L 308.53125 278.953125 C 345.417969 276.414062 374.566406 245.695312 374.566406 208.15625 C 374.566406 168.953125 342.785156 137.164062 303.582031 137.164062 " fill-opacity="1" fill-rule="nonzero"/></g><path fill="#a87f59" d="M 208.75 166 C 209.316406 165.554688 209.886719 164.957031 210.4375 164.203125 C 210.988281 163.453125 211.265625 162.832031 211.265625 162.339844 C 211.265625 161.652344 211.136719 161.085938 210.878906 160.636719 C 210.609375 160.191406 210.296875 159.972656 209.917969 159.972656 C 209.238281 159.972656 208.664062 160.09375 208.175781 160.339844 C 207.695312 160.585938 207.292969 160.902344 206.972656 161.292969 C 206.648438 161.683594 206.386719 162.132812 206.191406 162.628906 C 206.003906 163.128906 205.765625 163.746094 205.507812 164.480469 C 205.253906 165.21875 205.105469 165.824219 205.074219 166.300781 C 205.042969 166.773438 205.027344 167.183594 205.027344 167.519531 C 205.59375 167.519531 206.214844 167.375 206.882812 167.09375 C 207.554688 166.808594 208.175781 166.445312 208.75 166 " fill-opacity="1" fill-rule="nonzero"/></svg>