<svg xmlns="http://www.w3.org/2000/svg" xmlns:xlink="http://www.w3.org/1999/xlink" width="500" zoomAndPan="magnify" viewBox="0 0 375 374.999991" height="500" preserveAspectRatio="xMidYMid meet" version="1.0"><path fill="#a87f59" d="M 187.5 0 C 137.417969 0 90.332031 19.503906 54.917969 54.917969 C 19.503906 90.332031 0 137.417969 0 187.5 C 0 237.582031 19.503906 284.667969 54.917969 320.082031 C 90.332031 355.496094 137.417969 375 187.5 375 C 237.582031 375 284.667969 355.496094 320.082031 320.082031 C 355.496094 284.667969 375 237.582031 375 187.5 C 375 137.417969 355.496094 90.332031 320.082031 54.917969 C 284.667969 19.503906 237.582031 0 187.5 0 Z M 359.933594 187.5 C 359.933594 282.578125 282.578125 359.933594 187.5 359.933594 C 92.421875 359.933594 15.066406 282.578125 15.066406 187.5 C 15.066406 92.421875 92.421875 15.066406 187.5 15.066406 C 282.578125 15.066406 359.933594 92.421875 359.933594 187.5 Z M 359.933594 187.5 " fill-opacity="1" fill-rule="nonzero"/><path fill="#a87f59" d="M 164.953125 218.695312 L 164.953125 308.816406 L 107.1875 308.816406 L 107.1875 66.183594 L 202.816406 66.183594 C 224.144531 66.183594 240.46875 68.46875 251.785156 73.027344 C 263.101562 77.589844 273.207031 85.738281 282.09375 97.46875 C 290.980469 109.199219 295.425781 123.597656 295.425781 140.664062 C 295.425781 152.632812 293.054688 164.304688 288.3125 175.679688 C 283.574219 187.054688 276.878906 196.003906 268.226562 202.519531 C 259.578125 209.039062 251.191406 213.363281 243.078125 215.496094 C 234.957031 217.628906 222.25 218.695312 204.949219 218.695312 Z M 163 174.613281 L 199.972656 174.613281 C 214.074219 174.613281 223.96875 171.355469 229.65625 164.835938 C 235.34375 158.320312 238.1875 150.855469 238.1875 142.441406 C 238.1875 132.605469 235.015625 124.785156 228.679688 118.976562 C 222.339844 113.171875 212.710938 110.265625 199.792969 110.265625 L 163 110.265625 Z M 163 174.613281 " fill-opacity="1" fill-rule="nonzero"/></svg>